{"glyphs":{"0":{"ha":826,"x_min":38,"x_max":789,"o":"m 499 979 q 631 950 576 979 q 722 871 686 921 q 773 755 757 821 q 789 615 789 689 q 758 401 789 511 q 670 203 728 292 q 530 57 613 114 q 342 0 447 0 q 208 31 265 0 q 113 115 150 63 q 56 238 75 168 q 38 385 38 308 q 69 593 38 488 q 161 785 101 699 q 306 925 221 871 q 499 979 392 979 m 371 56 q 518 108 451 56 q 633 242 585 161 q 707 424 681 324 q 733 617 733 524 q 721 735 733 679 q 683 833 708 790 q 621 899 658 875 q 532 924 583 924 q 389 867 453 924 q 280 724 325 811 q 210 533 235 638 q 185 335 185 429 q 194 226 185 276 q 226 138 204 175 q 284 78 249 100 q 371 56 319 56 z "},"1":{"ha":435,"x_min":7,"x_max":399,"o":"m 371 56 q 391 47 383 56 q 399 28 399 39 q 391 8 399 17 q 371 0 383 0 l 35 0 q 15 8 24 0 q 7 28 7 17 q 15 47 7 39 q 35 56 24 56 l 164 56 q 160 132 160 85 q 168 300 160 204 q 192 496 176 396 q 228 692 207 596 q 272 858 249 788 l 96 742 q 81 738 90 738 q 61 746 69 738 q 53 765 53 754 q 65 788 53 779 l 322 958 q 342 972 332 965 q 364 979 351 979 q 385 971 376 979 q 393 951 393 963 q 388 909 393 950 q 376 802 383 868 q 358 653 368 736 q 336 486 347 571 q 308 306 321 386 q 285 168 296 226 q 272 112 278 140 q 257 56 265 83 l 371 56 z "},"2":{"ha":774,"x_min":21,"x_max":746,"o":"m 667 56 q 686 47 678 56 q 694 28 694 39 q 686 8 694 17 q 667 0 678 0 l 106 0 l 106 0 l 50 0 q 24 19 29 0 q 24 38 21 29 q 35 51 28 46 q 141 128 82 83 q 260 228 200 174 q 378 347 321 283 q 481 480 436 411 q 552 621 525 549 q 579 765 579 693 q 542 887 579 849 q 438 925 504 925 q 303 873 353 925 q 253 733 253 821 q 260 674 253 704 q 283 619 267 644 q 323 578 299 594 q 381 563 347 563 q 400 554 392 563 q 408 535 408 546 q 400 515 408 524 q 381 507 392 507 q 301 527 335 507 q 244 580 267 547 q 209 653 221 613 q 197 733 197 693 q 216 835 197 789 q 270 913 235 881 q 356 963 306 944 q 467 981 406 981 q 581 963 529 981 q 669 911 632 944 q 726 831 706 878 q 746 726 746 783 q 719 592 746 658 q 647 461 692 525 q 543 338 601 397 q 424 227 485 279 q 305 131 364 175 q 199 56 246 88 l 667 56 z "},"3":{"ha":746,"x_min":18,"x_max":714,"o":"m 686 972 q 706 964 697 972 q 714 944 714 956 q 707 925 714 932 l 400 611 q 492 585 447 606 q 573 531 538 565 q 630 447 608 497 q 651 332 651 397 q 624 199 651 260 q 547 93 596 138 q 428 24 497 49 q 276 0 360 0 q 85 55 151 0 q 18 213 18 110 q 26 232 18 224 q 46 240 35 240 q 65 232 57 240 q 74 213 74 224 q 117 97 74 138 q 239 56 160 56 q 345 78 297 56 q 427 140 393 100 q 480 236 461 181 q 499 358 499 292 q 479 465 499 425 q 424 528 460 506 q 338 557 389 550 q 222 564 286 564 q 203 572 211 564 q 194 592 194 581 q 203 611 194 603 l 499 917 l 215 917 q 196 925 204 917 q 188 944 188 933 q 196 964 188 956 q 215 972 204 972 l 686 972 z "},"4":{"ha":804,"x_min":4,"x_max":765,"o":"m 739 978 q 760 968 754 978 q 765 947 765 958 q 696 489 733 724 q 614 31 658 254 q 605 12 611 24 q 582 0 599 0 q 565 3 575 0 q 546 22 554 7 q 535 51 539 35 q 528 87 531 68 q 526 124 526 106 q 525 154 525 142 q 528 238 525 193 q 536 332 531 282 l 32 332 q 13 340 21 332 q 4 360 4 349 q 25 401 4 365 q 78 490 46 438 q 151 605 111 543 q 229 724 192 667 q 298 828 267 782 q 344 896 329 875 q 366 922 357 913 q 388 931 375 931 q 419 915 410 931 q 429 879 429 899 q 416 804 429 847 q 381 714 403 761 q 331 618 360 667 q 272 526 303 569 q 211 446 242 482 q 154 388 181 410 l 542 388 q 551 463 544 411 q 569 581 558 515 q 597 717 581 647 q 633 845 613 788 q 681 940 654 903 q 739 978 707 978 z "},"5":{"ha":713,"x_min":28,"x_max":692,"o":"m 664 972 q 683 964 675 972 q 692 944 692 956 q 683 925 692 933 q 664 917 675 917 l 360 917 l 300 604 q 419 576 358 596 q 528 519 479 556 q 608 430 578 483 q 639 303 639 376 q 613 181 639 236 q 540 85 586 125 q 431 22 494 44 q 294 0 368 0 q 99 59 171 0 q 28 217 28 118 q 36 236 28 228 q 56 244 44 244 q 75 236 67 244 q 83 217 83 228 q 131 99 83 143 q 257 56 178 56 q 351 74 308 56 q 423 127 393 93 q 469 207 453 161 q 486 307 486 253 q 477 381 486 339 q 436 463 468 424 q 343 528 404 501 q 178 557 282 556 q 142 590 142 557 l 210 950 q 238 972 215 972 l 664 972 z "},"6":{"ha":658,"x_min":29,"x_max":628,"o":"m 329 0 q 198 26 254 0 q 104 98 142 53 q 48 204 67 143 q 29 336 29 265 q 72 565 29 451 q 191 769 115 679 q 372 916 267 860 q 600 972 476 972 q 619 964 611 972 q 628 944 628 956 q 617 923 628 929 q 593 917 607 917 q 447 872 514 917 q 327 758 379 826 q 238 611 275 690 q 183 464 201 532 q 288 536 229 510 q 403 563 346 563 q 490 543 451 563 q 553 492 528 524 q 592 418 579 460 q 606 332 606 376 q 586 216 606 275 q 530 109 567 157 q 442 31 493 61 q 329 0 392 0 m 158 322 q 158 303 158 313 q 157 286 157 294 q 165 201 157 243 q 193 128 174 160 q 246 76 213 96 q 329 56 279 56 q 420 82 379 56 q 490 149 461 108 q 535 239 519 190 q 550 332 550 288 q 541 397 550 365 q 513 453 532 428 q 467 492 494 478 q 403 507 440 507 q 330 493 368 507 q 258 455 292 479 q 197 397 224 431 q 158 322 171 363 z "},"7":{"ha":569,"x_min":18,"x_max":564,"o":"m 536 972 q 556 964 547 972 q 564 944 564 956 q 563 938 564 940 q 557 924 561 935 q 544 894 553 914 q 526 853 538 876 q 499 796 514 829 q 435 652 472 736 q 358 478 399 568 q 206 160 267 275 q 146 53 171 90 q 114 12 126 24 q 88 0 101 0 q 57 15 65 0 q 49 50 49 31 q 107 260 49 106 q 174 423 135 333 q 257 603 213 513 q 351 775 301 693 q 451 917 401 857 l 46 917 q 26 926 35 918 q 18 946 18 933 q 26 965 18 957 q 46 972 35 972 l 536 972 z "},"8":{"ha":822,"x_min":31,"x_max":768,"o":"m 31 214 q 44 290 31 251 q 84 363 57 328 q 153 426 111 397 q 253 476 194 456 q 160 557 190 506 q 131 667 131 608 q 156 775 131 721 q 228 873 181 829 q 347 944 276 917 q 507 971 417 971 q 624 953 575 971 q 706 907 674 936 q 753 840 738 878 q 768 760 768 801 q 755 678 768 719 q 715 600 742 638 q 652 531 689 563 q 567 478 615 499 q 686 401 642 449 q 731 294 731 353 q 703 190 731 243 q 626 95 676 138 q 502 26 575 53 q 336 0 429 0 q 201 17 258 0 q 106 65 143 35 q 49 133 68 94 q 31 214 31 172 m 178 199 q 222 98 178 140 q 365 56 267 56 q 495 78 439 56 q 591 134 551 100 q 651 210 631 168 q 671 293 671 253 q 656 351 671 324 q 613 401 642 379 q 544 435 585 422 q 453 447 504 447 q 335 424 386 447 q 249 365 283 401 q 196 285 214 329 q 178 199 178 240 m 408 503 l 419 503 q 436 503 428 503 q 451 501 444 503 q 560 530 513 506 q 642 591 608 554 q 692 672 675 628 q 710 758 710 717 q 700 819 710 790 q 669 869 690 847 q 617 903 649 890 q 540 915 585 915 q 433 890 482 915 q 350 826 385 865 q 297 739 315 786 q 278 647 278 692 q 309 551 278 592 q 408 503 340 510 z "},"9":{"ha":660,"x_min":32,"x_max":631,"o":"m 331 972 q 462 947 406 972 q 556 875 518 921 q 612 768 593 829 q 631 636 631 707 q 588 407 631 521 q 469 203 546 293 q 288 56 393 113 q 60 0 183 0 q 40 8 49 0 q 32 28 32 17 q 42 49 32 43 q 65 56 53 56 q 212 101 144 56 q 332 214 279 146 q 422 361 385 282 q 476 508 458 440 q 372 436 431 463 q 257 410 313 410 q 170 429 208 410 q 106 481 132 449 q 67 554 81 513 q 54 642 54 596 q 74 757 54 699 q 130 863 93 815 q 217 942 167 911 q 331 972 268 972 m 501 650 q 502 669 501 660 q 503 688 503 678 q 494 772 503 731 q 467 845 486 813 q 414 897 447 878 q 331 917 381 917 q 240 890 281 917 q 169 824 199 864 q 125 735 140 783 q 110 642 110 686 q 119 576 110 608 q 147 519 128 544 q 192 480 165 494 q 257 465 219 465 q 330 479 292 465 q 402 517 368 493 q 463 576 436 542 q 501 650 489 610 z "},"\u0000":{"ha":0,"x_min":0,"x_max":0,"o":""},"\r":{"ha":347,"x_min":0,"x_max":0,"o":""}," ":{"ha":336,"x_min":0,"x_max":0,"o":""},"a":{"ha":690,"x_min":-26,"x_max":756,"o":"m 292 603 q 394 570 360 603 q 444 493 429 538 q 499 571 468 540 q 569 601 529 601 q 592 592 586 601 q 597 580 596 586 q 597 567 597 574 q 579 506 589 543 q 560 426 569 469 q 541 334 550 382 q 525 242 532 286 q 514 159 518 197 q 510 96 510 121 q 511 70 510 79 q 514 57 513 61 q 574 104 546 65 q 625 192 601 143 q 667 290 649 242 q 694 368 685 339 q 724 390 703 390 q 746 382 736 390 q 751 360 756 374 q 719 271 736 315 q 683 182 703 226 q 655 126 672 157 q 615 67 638 94 q 566 19 593 39 q 507 0 539 0 q 450 14 474 0 q 411 51 426 28 q 388 101 396 74 q 376 158 379 129 q 345 103 364 132 q 301 52 326 75 q 244 15 276 29 q 172 0 213 0 q 96 17 132 0 q 33 64 60 33 q -10 138 6 94 q -26 238 -26 182 q -1 373 -26 307 q 69 490 25 439 q 170 572 113 542 q 292 603 228 603 m 128 193 q 131 150 128 174 q 140 106 133 126 q 161 70 147 85 q 196 56 175 56 q 247 76 222 56 q 292 128 271 96 q 333 201 314 161 q 368 279 353 240 q 394 351 383 318 q 410 403 404 383 q 399 458 406 432 q 381 503 392 483 q 356 535 371 524 q 319 547 342 547 q 263 528 289 547 q 215 476 236 508 q 177 406 193 444 q 150 327 161 367 q 133 252 139 288 q 128 193 128 217 z "},"i":{"ha":289,"x_min":-26,"x_max":354,"o":"m 118 713 q 133 672 118 688 q 175 657 149 657 q 215 672 200 657 q 231 713 231 688 q 215 754 231 739 q 175 769 200 769 q 133 754 149 769 q 118 713 118 739 m 106 0 q 41 19 67 0 q 0 68 15 39 q -21 132 -15 97 q -26 199 -26 167 q -22 263 -26 224 q -6 347 -17 303 q 20 437 4 392 q 58 519 36 482 q 107 578 79 556 q 168 601 135 601 q 190 592 185 601 q 195 580 194 586 q 196 567 196 574 q 178 506 188 543 q 158 426 168 469 q 140 334 149 382 q 124 242 131 286 q 113 159 117 197 q 108 96 108 121 q 110 70 108 79 q 113 57 111 61 q 172 104 144 65 q 224 192 200 143 q 265 290 247 242 q 293 368 283 339 q 322 390 301 390 q 344 382 335 390 q 350 360 354 374 q 318 271 335 315 q 282 182 301 226 q 253 126 271 157 q 214 67 236 94 q 165 19 192 39 q 106 0 138 0 z "},"l":{"ha":289,"x_min":-10,"x_max":354,"o":"m 118 58 q 175 107 147 68 q 226 194 203 146 q 266 292 249 243 q 293 368 283 340 q 322 390 301 390 q 344 382 335 390 q 350 360 354 374 q 318 271 335 315 q 282 182 301 226 q 253 126 271 157 q 214 67 236 94 q 165 19 192 39 q 106 0 138 0 q 42 28 65 0 q 8 97 19 57 q -7 181 -4 138 q -10 251 -10 224 q -3 348 -10 279 q 17 503 4 417 q 51 681 31 589 q 97 851 71 774 q 157 977 124 928 q 231 1026 190 1026 q 252 1017 246 1026 q 258 993 258 1008 q 251 955 258 993 q 231 854 243 917 q 203 712 218 792 q 172 547 188 632 q 142 366 154 447 q 124 222 131 285 q 118 156 121 189 q 115 90 115 124 q 116 70 115 78 q 118 58 117 63 z "},"t":{"ha":290,"x_min":-28,"x_max":356,"o":"m 322 775 q 314 756 322 764 q 294 747 306 747 l 210 747 q 192 650 201 700 q 174 547 183 600 q 144 366 156 447 q 125 222 132 285 q 119 156 122 189 q 117 90 117 124 q 117 70 117 78 q 119 58 118 63 q 176 107 149 68 q 227 194 204 146 q 267 292 250 243 q 294 368 285 340 q 324 390 303 390 q 346 382 336 390 q 351 360 356 374 q 319 271 336 315 q 283 182 303 226 q 255 126 272 157 q 215 67 238 94 q 166 19 193 39 q 107 0 139 0 q 44 28 67 0 q 9 97 21 57 q -6 181 -3 138 q -8 251 -8 224 q -3 328 -8 275 q 10 449 1 381 q 34 596 19 518 q 68 747 49 674 l 0 747 q -19 756 -11 747 q -28 775 -28 764 q -19 794 -28 786 q 0 803 -11 803 l 83 803 q 114 891 97 850 q 149 962 131 932 q 189 1009 168 992 q 232 1026 210 1026 q 253 1017 247 1026 q 260 993 260 1008 q 249 939 260 992 q 221 803 238 886 l 294 803 q 314 794 306 803 q 322 775 322 786 z "},"h":{"ha":654,"x_min":-8,"x_max":719,"o":"m -8 251 q -2 351 -8 282 q 17 507 4 421 q 51 685 31 593 q 97 853 71 778 q 158 978 124 929 q 232 1026 192 1026 q 253 1017 247 1026 q 260 993 260 1008 q 251 951 258 990 q 231 851 243 913 q 203 710 218 789 q 172 546 188 631 q 143 365 156 446 q 124 221 131 283 q 122 201 122 210 q 121 182 121 192 q 144 260 131 215 q 176 351 158 304 q 217 444 194 399 q 269 526 240 490 q 331 583 297 561 q 404 606 365 606 q 503 551 467 606 q 540 404 540 496 q 528 284 540 346 q 500 161 515 222 q 489 109 493 136 q 478 57 485 82 q 538 104 510 65 q 589 192 565 143 q 631 290 613 242 q 658 368 649 339 q 688 390 667 390 q 710 382 700 390 q 715 360 719 374 q 683 271 700 315 q 647 182 667 226 q 619 126 636 157 q 579 67 601 94 q 530 19 557 39 q 471 0 503 0 q 419 11 440 0 q 385 41 399 22 q 365 85 371 60 q 358 139 358 111 q 366 220 358 175 q 382 314 374 265 q 398 397 390 354 q 406 481 406 439 q 400 527 406 504 q 374 550 394 550 q 340 534 357 550 q 307 493 324 518 q 276 438 290 468 q 249 379 261 407 q 228 328 236 351 q 215 294 219 306 q 185 205 199 249 q 162 124 172 161 q 144 62 151 88 q 135 26 138 36 q 129 11 135 19 q 122 6 128 8 q 107 0 117 0 q 44 28 67 0 q 9 97 21 57 q -6 181 -3 138 q -8 251 -8 224 z "},"e":{"ha":515,"x_min":-25,"x_max":581,"o":"m 204 0 q 110 17 153 0 q 38 64 68 33 q -8 138 8 94 q -25 236 -25 182 q 1 372 -25 307 q 74 489 28 438 q 179 571 119 540 q 306 601 239 601 q 401 574 368 601 q 433 497 433 547 q 407 400 433 451 q 335 306 381 349 q 244 243 294 268 q 132 215 193 218 q 131 210 132 213 q 131 204 131 207 q 131 200 131 201 q 133 153 131 178 q 147 106 136 128 q 176 70 157 85 q 228 56 196 56 q 330 92 281 56 q 417 179 379 129 q 461 244 442 211 q 493 305 481 278 q 513 350 506 332 q 519 368 519 368 q 549 390 526 390 q 571 382 561 390 q 576 360 581 374 q 522 235 556 299 q 441 119 488 171 q 335 33 394 67 q 204 0 276 0 m 378 496 q 329 546 378 546 q 255 515 288 546 q 198 440 222 483 q 158 349 174 396 q 138 271 143 301 q 219 295 176 275 q 297 346 261 315 q 355 415 332 376 q 378 496 378 454 z "},"r":{"ha":532,"x_min":-17,"x_max":597,"o":"m 217 199 q 221 254 217 221 q 233 326 225 288 q 253 404 240 364 q 282 481 265 444 q 182 449 233 461 q 86 436 131 436 q 74 398 79 417 q 61 360 68 379 q 32 338 53 338 q 10 346 19 338 q 4 368 0 354 q 19 415 13 393 q 33 454 26 438 q 10 475 19 461 q -5 506 1 489 q -14 539 -11 522 q -17 569 -17 556 q -10 623 -17 590 q 8 686 -4 656 q 40 739 21 717 q 88 761 60 761 q 129 737 119 761 q 139 688 139 713 q 127 590 139 639 q 103 492 115 540 q 171 503 135 493 q 240 525 207 513 q 299 550 272 538 q 340 569 326 563 q 411 601 372 601 q 433 592 428 601 q 438 580 438 586 q 439 567 439 574 q 421 506 431 543 q 401 426 411 469 q 383 334 392 382 q 367 242 374 286 q 356 159 360 197 q 351 96 351 121 q 353 70 351 79 q 356 57 354 61 q 415 104 388 65 q 467 192 443 143 q 508 290 490 242 q 536 368 526 339 q 565 390 544 390 q 588 382 578 390 q 593 360 597 374 q 561 271 578 315 q 525 182 544 226 q 497 126 514 157 q 457 67 479 94 q 408 19 435 39 q 349 0 381 0 q 284 19 310 0 q 243 68 258 39 q 222 132 228 97 q 217 199 217 167 z "},"c":{"ha":515,"x_min":-25,"x_max":581,"o":"m 576 360 q 522 235 556 299 q 441 119 488 171 q 335 33 394 67 q 204 0 276 0 q 112 17 154 0 q 39 64 69 33 q -8 139 8 94 q -25 238 -25 183 q 1 373 -25 307 q 74 490 28 439 q 180 571 119 540 q 307 601 240 601 q 401 574 369 601 q 433 494 433 546 q 431 467 433 485 q 424 433 429 450 q 409 404 418 417 q 386 392 400 392 q 375 394 383 392 q 358 421 358 404 q 361 432 358 424 q 378 497 378 468 q 363 535 378 525 q 329 546 349 546 q 243 505 281 546 q 181 408 206 464 q 143 291 156 351 q 131 193 131 231 q 133 150 131 174 q 147 106 136 126 q 176 70 157 85 q 228 56 196 56 q 330 92 281 56 q 417 179 379 129 q 461 244 442 211 q 493 305 481 278 q 513 350 506 332 q 519 368 519 368 q 549 390 526 390 q 571 382 561 390 q 576 360 581 374 z "},"k":{"ha":606,"x_min":-8,"x_max":671,"o":"m -8 251 q -2 351 -8 282 q 17 507 4 421 q 51 685 31 593 q 97 853 71 778 q 158 978 124 929 q 232 1026 192 1026 q 253 1017 247 1026 q 260 993 260 1008 q 251 951 258 990 q 231 851 243 913 q 203 710 218 789 q 172 546 188 631 q 165 502 168 524 q 158 461 161 481 q 166 469 163 465 q 172 476 169 474 q 287 576 238 546 q 388 606 336 606 q 440 599 414 606 q 486 576 465 592 q 519 538 507 561 q 532 482 532 514 q 513 412 532 443 q 466 356 494 381 q 403 315 438 332 q 335 288 368 299 q 410 218 388 260 q 432 115 432 176 q 431 86 432 101 q 429 57 429 71 q 489 104 461 65 q 540 192 517 143 q 582 290 564 242 q 610 368 600 339 q 639 390 618 390 q 661 382 651 390 q 667 360 671 374 q 635 271 651 315 q 599 182 618 226 q 570 126 588 157 q 531 67 553 94 q 481 19 508 39 q 422 0 454 0 q 370 11 392 0 q 335 40 349 22 q 313 82 321 58 q 301 131 306 106 q 282 201 293 175 q 252 242 271 228 q 204 260 233 256 q 131 264 175 264 q 126 242 128 253 q 124 221 125 232 q 115 103 117 147 q 117 69 115 81 q 119 53 118 58 q 135 28 135 46 q 126 8 135 17 q 107 0 118 0 q 44 28 67 0 q 9 97 21 57 q -6 181 -3 138 q -8 251 -8 224 m 136 319 q 226 331 181 321 q 310 365 272 342 q 371 424 347 388 q 394 513 394 460 q 390 536 394 522 q 367 550 386 550 q 304 523 339 550 q 238 463 269 496 q 184 410 211 435 q 146 368 157 385 q 143 365 143 365 q 140 342 140 353 q 136 319 139 331 z "},"m":{"ha":954,"x_min":-25,"x_max":1019,"o":"m 124 235 q 165 373 143 304 q 221 506 188 442 q 279 581 249 556 q 360 606 310 606 q 469 562 428 606 q 514 438 510 518 q 540 497 525 467 q 575 551 554 528 q 623 590 596 575 q 686 606 650 606 q 800 549 763 606 q 838 400 838 493 q 825 282 838 342 q 797 161 813 222 q 792 138 796 153 q 785 109 789 124 q 780 80 782 94 q 778 57 778 65 q 838 104 810 65 q 889 192 865 143 q 931 290 913 242 q 958 368 949 339 q 988 390 967 390 q 1010 382 1000 390 q 1015 360 1019 374 q 983 271 1000 315 q 947 182 967 226 q 919 126 936 157 q 879 67 901 94 q 830 19 857 39 q 771 0 803 0 q 683 42 710 0 q 657 143 657 85 q 664 221 657 176 q 681 314 671 265 q 696 397 689 354 q 703 482 703 439 q 697 527 703 504 q 668 550 692 550 q 622 522 644 550 q 579 449 600 493 q 541 351 558 404 q 510 247 524 297 q 488 157 497 197 q 475 99 479 117 q 451 69 475 74 q 364 105 389 69 q 339 199 339 140 q 345 269 339 231 q 358 349 351 308 q 372 418 365 383 q 378 488 378 453 q 372 532 378 514 q 343 550 365 550 q 294 517 318 550 q 251 442 271 485 q 219 358 232 400 q 200 296 206 315 q 176 213 188 254 q 157 136 165 171 q 142 74 149 101 q 133 35 136 47 q 135 28 135 32 q 127 8 135 17 q 107 0 119 0 q 42 19 68 0 q 1 68 17 39 q -19 132 -14 97 q -25 199 -25 167 q -20 262 -25 222 q -4 346 -15 301 q 22 436 7 390 q 60 519 38 482 q 109 578 82 556 q 169 601 136 601 q 192 592 186 601 q 197 580 196 586 q 197 567 197 574 q 179 505 189 543 q 160 422 169 467 q 140 328 150 376 q 124 235 131 279 z "},"s":{"ha":510,"x_min":-76,"x_max":575,"o":"m 368 203 q 458 269 424 231 q 514 367 493 307 q 543 389 522 389 q 565 381 556 389 q 571 358 575 372 q 531 271 554 308 q 478 206 508 233 q 408 160 447 179 q 319 126 369 142 q 213 34 271 68 q 81 0 154 0 q 10 14 43 0 q -46 72 -24 28 q -57 99 -51 83 q -67 133 -62 115 q -74 167 -71 150 q -76 194 -76 183 q -69 214 -76 206 q -50 222 -61 222 q -32 217 -37 222 q -3 203 -24 211 q 48 187 18 194 q 115 174 78 179 q 192 169 151 169 q 235 286 219 222 q 251 403 251 350 q 248 451 251 425 q 233 498 244 476 q 201 534 221 519 q 147 549 181 549 q 133 549 140 549 q 122 550 125 550 q 110 513 119 540 q 92 455 101 486 q 73 397 82 424 q 61 360 64 369 q 32 338 53 338 q 10 346 19 338 q 4 368 0 354 q 18 410 8 381 q 39 472 28 440 q 60 532 50 504 q 72 568 69 560 q 35 624 46 589 q 24 690 24 658 q 28 742 24 711 q 45 803 33 774 q 75 853 57 832 q 119 874 93 874 q 159 848 150 874 q 168 793 168 822 q 156 701 168 749 q 133 604 144 653 l 151 604 q 256 587 208 604 q 336 538 303 569 q 388 463 369 507 q 407 364 407 418 q 368 203 407 281 m -12 146 q -3 115 -8 131 q 11 85 3 99 q 33 64 19 72 q 64 56 46 56 q 157 114 111 56 q 71 124 114 117 q -12 146 28 132 z "},"f":{"ha":278,"x_min":-31,"x_max":343,"o":"m -11 -231 q -26 -145 -22 -194 q -31 -32 -31 -96 q -19 189 -31 67 q 12 438 -8 311 q 61 686 32 565 q 126 903 90 807 q 177 998 153 968 q 229 1028 201 1028 q 251 1018 242 1028 q 257 996 260 1008 q 248 943 257 994 q 224 807 239 892 q 192 614 210 722 q 157 390 174 506 q 141 280 149 332 q 126 179 133 228 q 219 261 176 215 q 282 368 263 307 q 311 390 290 390 q 333 382 324 390 q 339 360 343 374 q 306 284 325 317 q 262 224 286 251 q 208 172 238 196 q 142 125 178 149 q 180 83 165 110 q 203 25 194 56 q 214 -36 211 -6 q 217 -92 217 -67 q 211 -165 217 -125 q 190 -241 206 -206 q 148 -301 175 -276 q 78 -325 121 -325 q 42 -317 57 -325 q 17 -294 28 -308 q 0 -264 7 -281 q -11 -231 -7 -247 m 100 -49 q 91 -151 93 -111 q 89 -218 89 -192 q 90 -249 89 -237 q 92 -268 90 -261 q 128 -240 114 -261 q 149 -192 142 -218 q 158 -138 156 -165 q 161 -92 161 -111 q 159 -51 161 -75 q 151 -3 157 -28 q 137 42 146 21 q 114 76 128 64 q 106 10 110 42 q 100 -49 103 -21 z "},"o":{"ha":564,"x_min":-43,"x_max":622,"o":"m 622 367 q 621 360 622 363 q 546 244 597 288 q 425 178 494 201 q 388 108 410 140 q 335 52 365 76 q 268 14 306 28 q 185 0 231 0 q 101 13 142 0 q 28 53 60 26 q -24 120 -4 79 q -43 215 -43 161 q -15 341 -43 281 q 63 446 14 401 q 135 557 82 513 q 265 601 188 601 q 357 578 319 601 q 417 520 394 556 q 449 440 439 485 q 458 354 458 396 q 456 301 458 328 q 447 247 453 275 q 517 297 488 271 q 564 368 547 322 q 593 390 572 390 q 613 384 604 390 q 622 367 622 378 m 294 215 q 337 217 315 215 q 381 225 358 219 q 397 293 392 260 q 403 354 403 326 q 397 417 403 383 q 375 481 390 451 q 333 529 360 510 q 265 549 307 549 q 203 535 232 549 q 156 499 175 522 q 242 514 197 514 q 261 506 253 514 q 269 486 269 497 q 261 467 269 475 q 242 458 253 458 q 203 444 221 458 q 172 406 186 429 q 146 353 157 383 q 126 293 135 324 q 196 233 150 251 q 294 215 242 215 m 213 56 q 297 87 261 56 q 356 163 332 118 q 329 160 342 161 q 303 160 317 160 q 199 175 249 160 q 114 222 150 190 q 112 202 113 211 q 111 185 111 193 q 115 143 111 165 q 131 101 119 121 q 162 69 142 82 q 213 56 182 56 z "},"n":{"ha":653,"x_min":-26,"x_max":718,"o":"m -26 199 q -22 262 -26 222 q -6 346 -17 301 q 21 436 6 390 q 58 519 36 482 q 108 578 81 556 q 168 601 135 601 q 190 592 185 601 q 195 580 194 586 q 196 567 196 574 q 174 488 186 538 q 150 380 163 438 q 128 264 138 322 q 113 160 118 206 q 136 241 122 194 q 169 337 150 288 q 211 435 188 386 q 264 521 235 483 q 328 582 293 558 q 403 606 363 606 q 502 551 465 606 q 539 404 539 496 q 526 284 539 346 q 499 161 514 222 q 488 109 492 136 q 476 57 483 82 q 536 104 508 65 q 588 192 564 143 q 629 290 611 242 q 657 368 647 339 q 686 390 665 390 q 708 382 699 390 q 714 360 718 374 q 682 271 699 315 q 646 182 665 226 q 617 126 635 157 q 578 67 600 94 q 528 19 556 39 q 469 0 501 0 q 418 11 439 0 q 383 41 397 22 q 363 85 369 60 q 357 139 357 111 q 365 220 357 175 q 381 314 372 265 q 397 397 389 354 q 404 481 404 439 q 399 527 404 504 q 372 550 393 550 q 339 534 356 550 q 306 493 322 518 q 274 438 289 468 q 247 379 260 407 q 226 328 235 351 q 214 294 218 306 q 184 205 197 249 q 160 124 171 161 q 143 62 150 88 q 133 26 136 36 q 126 8 133 15 q 106 0 118 0 q 41 19 67 0 q 0 68 15 39 q -21 132 -15 97 q -26 199 -26 167 z "},"u":{"ha":660,"x_min":-19,"x_max":725,"o":"m 347 151 q 165 0 267 0 q 79 20 114 0 q 22 73 44 40 q -10 148 0 106 q -19 235 -19 190 q -14 300 -19 263 q 3 378 -8 338 q 31 459 14 419 q 70 531 47 499 q 122 582 93 563 q 186 601 151 601 q 206 593 197 601 q 214 574 214 585 q 211 564 214 569 q 205 547 211 564 q 188 500 199 529 q 166 432 178 471 q 143 351 154 393 q 119 235 125 283 q 113 156 113 188 q 114 124 113 142 q 120 92 115 107 q 136 66 125 76 q 165 56 147 56 q 233 88 201 56 q 290 163 264 119 q 334 255 315 207 q 363 333 353 303 q 388 427 372 379 q 426 513 404 475 q 476 576 447 551 q 539 601 504 601 q 561 592 556 601 q 566 580 565 586 q 567 567 567 574 q 549 506 558 543 q 529 426 539 469 q 510 334 519 382 q 494 242 501 286 q 483 159 488 197 q 479 96 479 121 q 481 70 479 79 q 483 57 482 61 q 543 104 515 65 q 594 192 571 143 q 636 290 618 242 q 664 368 654 339 q 693 390 672 390 q 715 382 706 390 q 721 360 725 374 q 689 271 706 315 q 653 182 672 226 q 624 126 642 157 q 585 67 607 94 q 535 19 563 39 q 476 0 508 0 q 422 13 444 0 q 383 48 399 26 q 360 97 368 69 q 347 151 351 124 z "},"p":{"ha":651,"x_min":-68,"x_max":717,"o":"m 82 -297 q 74 -317 82 -308 q 54 -325 65 -325 q -12 -296 13 -325 q -49 -225 -36 -267 q -65 -139 -61 -183 q -68 -65 -68 -94 q -51 142 -68 29 q -4 358 -33 256 q 16 423 3 382 q 49 503 29 464 q 95 572 69 543 q 151 601 121 601 q 171 594 163 601 q 179 575 179 586 q 178 568 179 569 q 171 531 175 553 q 160 481 167 508 q 234 565 189 526 q 344 603 279 603 q 421 586 385 603 q 484 539 457 569 q 527 465 511 508 q 543 365 543 421 q 503 199 543 276 q 598 267 560 224 q 656 368 636 310 q 685 390 664 390 q 707 382 697 390 q 713 360 717 374 q 626 213 683 271 q 478 129 569 156 q 467 126 472 128 q 457 124 463 125 q 352 34 413 68 q 225 0 292 0 q 139 22 171 0 q 88 75 107 43 q 73 -34 79 19 q 63 -133 67 -87 q 60 -214 60 -178 q 65 -271 60 -250 q 82 -297 82 -278 m 325 165 q 328 171 325 168 q 372 289 356 225 q 389 410 389 353 q 386 453 389 429 q 376 497 383 476 q 356 533 369 518 q 321 547 342 547 q 251 508 285 547 q 189 414 217 468 q 141 303 161 360 q 111 213 121 246 q 115 210 113 213 q 158 190 131 199 q 215 176 185 182 q 274 168 244 171 q 325 165 304 165 m 289 111 q 192 124 236 114 q 118 146 149 133 q 147 81 129 107 q 197 56 164 56 q 289 111 244 56 z "},"y":{"ha":639,"x_min":-11,"x_max":704,"o":"m 194 601 q 214 594 206 601 q 222 574 222 586 q 219 563 222 571 q 185 481 203 526 q 153 386 168 435 q 130 290 139 338 q 121 203 121 243 q 122 176 121 190 q 130 149 124 161 q 147 128 136 136 q 178 121 158 121 q 253 153 218 121 q 317 232 289 186 q 364 327 344 278 q 393 410 383 376 q 400 527 399 482 q 401 574 401 572 q 410 593 403 585 q 429 601 418 601 q 467 585 451 601 q 494 544 483 569 q 510 489 504 519 q 519 428 515 458 q 523 373 522 399 q 524 332 524 347 q 522 270 524 303 q 517 203 519 238 q 593 278 558 236 q 643 368 628 319 q 672 390 651 390 q 694 382 685 390 q 700 360 704 374 q 623 224 672 276 q 506 131 574 172 q 463 -33 492 49 q 390 -180 435 -115 q 281 -285 344 -244 q 132 -325 218 -325 q 40 -292 75 -325 q 6 -203 6 -258 q 33 -101 6 -144 q 101 -25 60 -57 q 192 31 143 7 q 286 76 242 56 q 357 110 319 92 q 360 128 358 119 q 363 143 361 136 q 368 183 365 163 q 374 222 371 203 q 338 166 358 194 q 290 115 317 138 q 231 79 264 93 q 160 65 199 65 q 86 81 118 65 q 33 126 54 97 q 0 192 11 154 q -11 275 -11 231 q 5 388 -11 329 q 49 493 21 446 q 114 571 76 540 q 194 601 151 601 m 310 26 q 231 -12 275 8 q 150 -58 188 -32 q 87 -119 113 -85 q 61 -201 61 -154 q 80 -251 61 -233 q 132 -269 99 -269 q 206 -240 174 -269 q 265 -164 239 -210 q 310 -63 292 -118 q 342 43 329 -8 q 326 35 333 39 q 310 26 318 31 z "},"g":{"ha":663,"x_min":-8,"x_max":728,"o":"m 211 97 q 134 110 174 97 q 63 148 94 122 q 12 213 32 174 q -8 307 -8 253 q 20 426 -8 372 q 94 519 49 481 q 194 580 139 558 q 303 601 249 601 q 376 587 347 601 q 424 549 406 572 q 425 560 425 556 q 425 567 425 564 q 425 574 425 571 q 434 593 426 585 q 453 601 442 601 q 491 585 475 601 q 517 544 507 569 q 533 489 528 519 q 542 428 539 458 q 547 373 546 399 q 547 332 547 347 q 545 270 547 303 q 540 203 543 238 q 617 278 582 236 q 667 368 651 319 q 696 390 675 390 q 718 382 708 390 q 724 360 728 374 q 647 224 696 276 q 529 131 597 172 q 487 -33 515 49 q 413 -180 458 -115 q 305 -285 368 -244 q 156 -325 242 -325 q 64 -292 99 -325 q 29 -203 29 -258 q 56 -101 29 -144 q 125 -25 83 -57 q 216 31 167 7 q 310 76 265 56 q 381 110 343 92 q 383 128 382 119 q 386 143 385 136 q 392 182 389 163 q 397 221 394 201 q 317 128 361 158 q 211 97 272 97 m 415 393 q 416 401 415 397 q 417 411 417 406 q 388 506 408 465 q 322 546 368 546 q 250 515 282 546 q 195 441 218 485 q 160 349 172 397 q 149 265 149 301 q 153 226 149 246 q 166 190 157 206 q 190 163 175 174 q 225 153 204 153 q 290 180 260 153 q 346 245 321 207 q 388 324 371 283 q 415 393 406 365 m 333 26 q 255 -12 299 8 q 174 -58 211 -32 q 110 -119 136 -85 q 85 -201 85 -154 q 103 -251 85 -233 q 156 -269 122 -269 q 230 -240 197 -269 q 289 -164 263 -210 q 334 -63 315 -118 q 365 43 353 -8 q 349 35 357 39 q 333 26 342 31 z "},"b":{"ha":665,"x_min":-8,"x_max":731,"o":"m -8 250 q -2 350 -8 281 q 17 506 4 419 q 51 684 31 592 q 97 852 71 776 q 158 976 124 928 q 232 1025 192 1025 q 253 1015 247 1025 q 260 992 260 1007 q 251 950 258 989 q 231 849 243 911 q 203 708 218 788 q 172 544 188 629 q 164 497 168 519 q 157 451 160 474 q 190 505 171 478 q 233 553 208 532 q 290 589 258 575 q 358 603 321 603 q 435 586 399 603 q 498 539 471 569 q 541 465 525 508 q 557 365 557 421 q 517 199 557 276 q 612 267 574 224 q 669 368 650 310 q 699 390 678 390 q 721 382 711 390 q 726 360 731 374 q 640 213 697 271 q 492 129 583 156 q 481 126 486 128 q 471 124 476 125 q 366 34 426 68 q 239 0 306 0 q 178 10 203 0 q 133 35 153 19 q 135 26 135 32 q 126 7 135 15 q 107 -1 118 -1 q 44 27 67 -1 q 9 96 21 56 q -6 179 -3 136 q -8 250 -8 222 m 125 213 q 129 210 126 213 q 172 190 144 199 q 228 176 199 182 q 288 168 258 171 q 339 165 318 165 q 342 171 339 168 q 386 289 369 225 q 403 410 403 353 q 400 453 403 429 q 390 497 397 476 q 369 533 383 518 q 335 547 356 547 q 265 508 299 547 q 203 414 231 468 q 155 303 175 360 q 125 213 135 246 m 211 56 q 303 111 258 56 q 206 124 250 114 q 132 146 163 133 q 160 81 143 107 q 211 56 178 56 z "},"q":{"ha":653,"x_min":-26,"x_max":718,"o":"m 292 603 q 394 569 360 603 q 446 492 429 536 q 492 569 465 536 q 553 601 519 601 q 572 594 564 601 q 581 575 581 586 q 579 568 581 569 q 566 503 574 543 q 549 413 558 464 q 528 305 539 363 q 507 186 518 247 q 597 267 556 221 q 657 368 639 313 q 686 390 665 390 q 708 382 699 390 q 714 360 718 374 q 677 278 699 314 q 628 215 656 243 q 568 163 601 186 q 496 117 535 139 q 478 -5 486 54 q 465 -115 469 -64 q 461 -207 461 -167 q 467 -271 461 -247 q 483 -297 483 -278 q 475 -317 483 -308 q 456 -325 467 -325 q 390 -296 414 -325 q 353 -225 365 -267 q 337 -139 340 -183 q 333 -65 333 -94 q 346 104 333 15 q 274 32 317 64 q 172 0 232 0 q 96 17 132 0 q 33 64 60 33 q -10 138 6 94 q -26 238 -26 182 q -1 373 -26 307 q 69 490 25 439 q 170 572 113 542 q 292 603 228 603 m 128 193 q 131 150 128 174 q 140 106 133 126 q 161 70 147 85 q 196 56 175 56 q 247 76 222 56 q 292 128 271 96 q 333 201 314 161 q 368 279 353 240 q 394 351 383 318 q 410 403 404 383 q 399 458 406 432 q 381 503 392 483 q 356 535 371 524 q 319 547 342 547 q 263 528 289 547 q 215 476 236 508 q 177 406 193 444 q 150 327 161 367 q 133 252 139 288 q 128 193 128 217 z "},"w":{"ha":857,"x_min":-17,"x_max":915,"o":"m 390 218 q 451 313 426 267 q 475 388 475 360 q 451 372 464 388 q 427 333 439 357 q 406 279 415 310 q 390 218 396 249 m 708 236 q 798 284 758 253 q 857 368 838 315 q 886 390 865 390 q 906 384 897 390 q 915 367 915 378 q 914 360 915 363 q 821 231 886 278 q 674 168 756 183 q 669 160 671 164 q 664 153 667 157 q 557 39 615 78 q 432 0 499 0 q 360 15 392 0 q 307 54 329 29 q 233 15 271 29 q 156 0 194 0 q 77 20 110 0 q 24 74 44 40 q -7 149 3 107 q -17 236 -17 192 q -4 339 -17 276 q 33 460 8 401 q 97 560 58 518 q 189 601 136 601 q 213 590 204 601 q 217 575 217 582 q 215 564 217 567 q 209 547 215 564 q 192 500 203 529 q 170 432 182 471 q 147 351 158 393 q 140 324 146 344 q 129 274 135 303 q 119 214 124 246 q 115 153 115 182 q 128 84 115 113 q 176 56 140 56 q 225 67 200 56 q 278 100 250 79 q 261 185 261 138 q 276 275 261 229 q 319 358 292 321 q 387 419 347 396 q 476 443 426 443 q 516 428 501 443 q 531 386 531 413 q 519 327 531 360 q 489 260 508 294 q 443 189 469 225 q 385 121 417 153 q 405 74 390 92 q 451 56 419 56 q 503 69 478 56 q 549 101 528 82 q 588 143 571 121 q 618 183 606 165 q 675 301 654 238 q 696 415 696 364 q 654 486 696 486 q 635 494 643 486 q 626 514 626 503 q 635 533 626 525 q 654 542 643 542 q 700 531 682 542 q 730 502 718 519 q 747 462 742 485 q 751 415 751 439 q 740 328 751 375 q 708 236 728 282 z "},"x":{"ha":550,"x_min":-8,"x_max":615,"o":"m 611 360 q 579 271 596 315 q 543 182 563 226 q 515 126 532 157 q 475 67 497 94 q 426 19 453 39 q 367 0 399 0 q 260 44 310 0 q 169 154 210 88 l 57 11 q 35 0 49 0 q 18 6 24 0 q 7 24 8 13 q 13 44 6 36 l 140 207 q 97 306 115 256 q 67 401 78 356 q 60 381 64 390 q 53 360 56 371 q 24 338 44 338 q 1 346 11 338 q -4 368 -8 354 q 24 451 10 410 q 53 533 39 492 q 54 536 53 535 q 72 581 58 561 q 117 601 86 601 q 143 583 136 601 q 150 561 143 583 q 169 503 157 539 q 199 422 182 467 q 235 328 215 376 l 444 596 q 467 606 453 606 q 483 600 476 606 q 493 582 492 593 q 488 561 494 571 l 258 268 q 285 206 269 239 q 315 142 300 172 q 346 89 331 113 q 374 57 361 65 q 433 104 406 65 q 485 192 461 143 q 526 290 508 242 q 554 368 544 339 q 583 390 563 390 q 606 382 596 390 q 611 360 615 374 z "},"j":{"ha":254,"x_min":-289,"x_max":313,"o":"m 254 368 q 283 390 263 390 q 303 384 294 390 q 313 367 313 378 q 311 360 313 363 q 234 224 283 276 q 117 131 185 172 q 74 -33 103 49 q 1 -180 46 -115 q -108 -285 -44 -244 q -257 -325 -172 -325 q -281 -317 -272 -325 q -289 -297 -289 -308 q -281 -278 -289 -286 q -257 -269 -272 -269 q -158 -218 -200 -269 q -87 -87 -117 -167 q -37 92 -57 -7 q -7 284 -18 190 q 8 456 4 378 q 13 574 13 533 q 22 593 14 585 q 40 601 29 601 q 78 585 63 601 q 105 544 94 569 q 121 489 115 519 q 130 428 126 458 q 134 373 133 399 q 135 332 135 347 q 133 270 135 303 q 128 203 131 238 q 204 278 169 236 q 254 368 239 319 m 40 657 q -1 672 14 657 q -17 713 -17 688 q -1 754 -17 739 q 40 769 14 769 q 81 754 65 769 q 96 713 96 739 q 81 672 96 688 q 40 657 65 657 z "},"v":{"ha":589,"x_min":-17,"x_max":647,"o":"m -17 236 q -4 339 -17 276 q 33 460 8 401 q 97 560 58 518 q 189 601 136 601 q 213 590 204 601 q 217 575 217 582 q 215 564 217 567 q 209 547 215 564 q 192 500 203 529 q 170 432 182 471 q 147 351 158 393 q 140 324 146 344 q 129 274 135 303 q 119 214 124 246 q 115 153 115 182 q 128 84 115 113 q 181 56 140 56 q 276 96 231 56 q 355 192 321 136 q 408 310 389 249 q 428 415 428 372 q 386 486 428 486 q 367 494 375 486 q 358 514 358 503 q 367 533 358 525 q 386 542 375 542 q 432 531 414 542 q 462 502 450 519 q 478 462 474 485 q 483 415 483 439 q 472 328 483 375 q 440 236 460 282 q 530 284 490 253 q 589 368 569 315 q 618 390 597 390 q 638 384 629 390 q 647 367 647 378 q 646 360 647 363 q 553 231 618 278 q 406 168 488 183 q 401 160 403 164 q 396 153 399 157 q 288 39 347 78 q 163 0 229 0 q 80 20 114 0 q 24 74 46 40 q -7 149 3 107 q -17 236 -17 192 z "},"z":{"ha":522,"x_min":-56,"x_max":588,"o":"m 151 192 q 160 211 151 203 q 179 219 168 219 q 203 235 192 219 q 224 273 214 250 q 242 324 233 296 q 257 379 250 353 q 272 434 264 407 q 289 486 279 461 q 183 450 238 464 q 82 436 129 436 q 69 398 75 417 q 57 360 64 379 q 28 338 49 338 q 6 346 15 338 q 0 368 -4 354 q 15 415 8 393 q 29 454 22 438 q 6 475 15 461 q -9 506 -3 489 q -18 539 -15 522 q -21 569 -21 556 q -15 623 -21 590 q 4 686 -8 656 q 36 739 17 717 q 83 761 56 761 q 125 737 115 761 q 135 688 135 713 q 123 590 135 639 q 99 492 111 540 q 167 503 131 493 q 235 525 203 513 q 295 550 268 538 q 336 569 322 563 q 344 579 339 574 q 408 603 375 603 q 428 594 421 603 q 436 574 436 585 q 435 555 436 572 q 429 510 433 538 q 418 447 425 482 q 399 375 411 413 q 344 259 375 301 q 281 194 314 217 q 328 156 307 178 q 447 245 390 192 q 526 368 503 299 q 556 390 535 390 q 578 382 568 390 q 583 360 588 374 q 546 278 568 314 q 495 214 524 243 q 433 160 467 185 q 358 113 399 136 q 388 40 378 79 q 397 -40 397 0 q 371 -162 397 -110 q 302 -251 344 -215 q 206 -306 260 -287 q 96 -325 151 -325 q -18 -292 19 -325 q -56 -203 -56 -260 q -31 -102 -56 -147 q 35 -20 -6 -57 q 126 46 76 17 q 226 101 176 75 q 206 145 218 128 q 179 164 194 163 q 160 172 168 164 q 151 192 151 181 m 82 -269 q 158 -251 126 -269 q 210 -201 190 -232 q 238 -131 229 -171 q 247 -50 247 -92 q 239 47 247 -6 q 154 -3 197 24 q 77 -62 111 -31 q 22 -128 43 -93 q 0 -201 0 -162 q 82 -269 0 -269 z "},"d":{"ha":699,"x_min":-24,"x_max":764,"o":"m 294 603 q 380 582 347 603 q 431 529 413 561 q 465 702 444 614 q 511 863 485 790 q 569 981 538 935 q 640 1026 601 1026 q 662 1017 656 1026 q 668 993 668 1008 q 660 955 668 993 q 640 854 653 917 q 613 712 628 792 q 582 547 597 632 q 552 366 564 447 q 533 222 540 285 q 528 156 531 189 q 525 90 525 124 q 526 70 525 78 q 528 58 526 63 q 585 107 557 68 q 635 194 613 146 q 676 292 658 243 q 703 368 693 340 q 732 390 711 390 q 754 382 744 390 q 760 360 764 374 q 728 271 744 315 q 692 182 711 226 q 663 126 681 157 q 624 67 646 94 q 574 19 601 39 q 515 0 547 0 q 460 20 482 0 q 426 71 439 40 q 408 138 414 101 q 401 206 403 174 q 401 204 401 204 q 400 203 400 204 q 371 141 389 176 q 325 74 353 106 q 260 22 297 43 q 175 0 224 0 q 99 17 135 0 q 35 64 63 33 q -8 138 8 94 q -24 238 -24 182 q 2 373 -24 307 q 72 490 28 439 q 173 572 115 542 q 294 603 231 603 m 131 193 q 133 150 131 174 q 143 106 136 126 q 164 70 150 85 q 199 56 178 56 q 249 76 225 56 q 295 128 274 96 q 336 201 317 161 q 371 279 356 240 q 397 351 386 318 q 413 403 407 383 q 401 458 408 432 q 384 503 394 483 q 359 535 374 524 q 322 547 344 547 q 265 528 292 547 q 217 476 239 508 q 180 406 196 444 q 153 327 164 367 q 136 252 142 288 q 131 193 131 217 z "},"H":{"ha":914,"x_min":0,"x_max":900,"o":"m 0 511 q 8 531 0 522 q 28 539 17 539 q 47 531 39 539 q 56 511 56 522 q 69 478 56 492 q 80 471 74 475 q 96 464 86 467 q 108 536 99 486 q 130 649 117 586 q 162 777 143 711 q 205 898 181 843 q 258 988 229 953 q 319 1025 286 1024 q 333 1024 326 1025 q 342 1015 339 1022 q 347 992 351 1003 q 335 935 346 985 q 311 816 325 885 q 283 673 297 747 q 260 543 269 599 q 252 497 256 519 q 246 451 249 474 q 256 452 251 451 q 267 453 261 453 q 413 471 339 458 q 563 496 488 483 q 600 502 582 499 q 636 508 618 506 q 649 576 640 531 q 670 679 657 622 q 701 797 683 736 q 742 908 719 858 q 793 991 765 958 q 853 1025 821 1024 q 866 1024 860 1025 q 875 1015 872 1022 q 881 992 885 1003 q 869 935 879 985 q 844 816 858 885 q 816 673 831 747 q 793 543 801 599 q 792 535 792 539 q 790 529 792 532 l 814 529 q 842 527 826 529 q 869 520 857 525 q 891 506 882 515 q 900 479 900 496 q 892 460 900 468 q 872 451 883 451 q 846 471 851 451 q 818 474 838 474 q 802 474 811 474 q 782 472 793 474 q 753 288 767 379 q 736 101 740 196 q 738 68 736 79 q 740 51 739 57 q 756 26 756 44 q 748 7 757 15 q 728 -1 739 -1 q 665 28 688 -1 q 630 97 642 57 q 615 180 618 138 q 613 250 613 222 q 617 345 613 294 q 628 451 621 396 q 600 447 614 449 q 572 442 586 444 q 421 416 496 429 q 271 397 346 403 q 253 397 261 397 q 236 396 244 396 q 215 249 225 321 q 203 101 206 176 q 204 68 203 79 q 207 51 206 57 q 222 26 222 44 q 215 7 224 15 q 194 -1 206 -1 q 131 28 154 -1 q 97 97 108 57 q 82 180 85 138 q 79 250 79 222 q 82 324 79 285 q 89 408 85 364 q 26 443 53 419 q 0 511 0 467 z "},"C":{"ha":749,"x_min":0,"x_max":693,"o":"m 656 356 q 675 347 667 356 q 683 328 683 339 q 672 292 683 317 q 647 242 661 268 q 618 192 632 215 q 597 161 604 169 q 481 47 549 93 q 325 0 413 0 q 185 26 246 0 q 83 99 124 53 q 21 212 42 146 q 0 357 0 278 q 17 501 0 425 q 65 652 33 578 q 141 794 96 726 q 244 915 186 863 q 369 997 301 967 q 515 1028 438 1028 q 645 985 597 1028 q 693 860 693 942 q 690 822 693 849 q 679 767 686 794 q 660 719 672 740 q 633 699 649 699 q 621 701 629 699 q 604 726 604 708 q 607 738 604 729 q 630 802 622 771 q 638 861 638 833 q 605 946 638 919 q 515 972 572 972 q 385 915 450 972 q 267 754 321 858 q 186 540 215 656 q 157 319 157 424 q 163 231 157 278 q 188 146 169 185 q 240 81 207 107 q 325 56 272 56 q 418 76 376 56 q 494 128 460 97 q 553 196 528 160 q 594 263 578 232 q 620 316 611 294 q 629 338 629 338 q 656 356 636 356 z "},"T":{"ha":735,"x_min":0,"x_max":914,"o":"m 829 1011 q 856 1010 842 1011 q 884 1003 871 1008 q 906 988 897 997 q 914 961 914 978 q 906 942 914 950 q 886 933 897 933 q 860 953 865 933 q 832 956 851 956 q 774 951 814 956 q 678 939 731 947 q 663 867 672 910 q 644 772 654 824 q 624 663 635 721 q 603 546 614 606 q 573 365 585 446 q 554 221 561 283 q 546 88 546 154 q 547 65 546 72 q 549 53 547 57 q 564 28 564 46 q 556 8 564 17 q 536 0 547 0 q 473 28 496 0 q 438 97 450 57 q 424 181 426 138 q 421 251 421 224 q 431 409 421 321 q 458 589 440 497 q 501 767 475 681 q 557 918 526 854 q 412 896 486 907 q 271 879 338 885 q 236 877 253 878 q 204 876 219 876 q 140 880 175 876 q 73 896 104 883 q 21 931 42 908 q 0 993 0 954 q 8 1013 0 1004 q 28 1021 17 1021 q 47 1013 39 1021 q 56 993 56 1004 q 71 960 56 974 q 114 941 83 950 q 208 932 144 932 q 237 933 222 932 q 268 935 251 933 q 420 953 339 940 q 578 978 501 965 q 585 979 581 979 q 592 981 589 979 q 622 1012 603 997 q 661 1026 642 1026 q 689 996 689 1026 q 768 1007 733 1003 q 829 1011 803 1011 z "},"I":{"ha":886,"x_min":0,"x_max":914,"o":"m 829 1011 q 856 1010 842 1011 q 884 1003 871 1008 q 906 988 897 997 q 914 961 914 978 q 906 942 914 950 q 886 933 897 933 q 860 953 865 933 q 832 956 851 956 q 774 951 814 956 q 678 939 731 947 q 663 867 672 910 q 644 772 654 824 q 624 663 635 721 q 603 546 614 606 q 567 336 583 442 q 546 124 551 231 q 549 124 549 124 q 553 125 550 125 q 635 142 596 135 q 707 154 675 150 q 757 158 736 158 q 806 149 781 158 q 831 108 831 139 q 822 89 831 97 q 803 81 814 81 q 776 101 781 81 q 660 92 715 101 q 547 67 606 82 q 548 58 547 61 q 549 53 549 56 q 564 28 564 46 q 556 8 564 17 q 536 0 547 0 q 497 10 518 0 q 458 49 476 19 q 386 36 422 42 q 317 28 350 31 q 253 24 282 24 q 194 28 224 24 q 139 47 164 33 q 99 83 114 60 q 83 140 83 106 q 92 160 83 151 q 111 168 100 168 q 131 160 122 168 q 139 140 139 151 q 151 107 139 119 q 179 89 163 94 q 215 82 196 83 q 251 81 235 81 q 345 87 299 81 q 438 101 392 93 q 421 251 421 160 q 431 409 421 321 q 458 589 440 497 q 501 767 475 681 q 557 918 526 854 q 412 896 486 907 q 271 879 338 885 q 236 877 253 878 q 204 876 219 876 q 140 880 175 876 q 73 896 104 883 q 21 931 42 908 q 0 993 0 954 q 8 1013 0 1004 q 28 1021 17 1021 q 47 1013 39 1021 q 56 993 56 1004 q 71 960 56 974 q 114 941 83 950 q 208 932 144 932 q 237 933 222 932 q 268 935 251 933 q 420 953 339 940 q 578 978 501 965 q 585 979 581 979 q 592 981 589 979 q 622 1012 603 997 q 661 1026 642 1026 q 689 996 689 1026 q 768 1007 733 1003 q 829 1011 803 1011 z "},"F":{"ha":824,"x_min":0,"x_max":914,"o":"m 829 1011 q 856 1010 842 1011 q 884 1003 871 1008 q 906 988 897 997 q 914 961 914 978 q 906 942 914 950 q 886 933 897 933 q 860 953 865 933 q 832 956 851 956 q 774 951 814 956 q 678 939 731 947 q 663 867 672 910 q 644 772 654 824 q 624 663 635 721 q 603 546 614 606 q 599 528 600 538 q 596 511 599 519 l 767 511 q 786 503 778 511 q 794 483 794 494 q 786 464 794 472 q 767 456 778 456 l 588 456 q 554 221 564 315 q 546 88 546 154 q 547 65 546 72 q 549 53 547 57 q 564 28 564 46 q 556 8 564 17 q 536 0 547 0 q 473 28 496 0 q 438 97 450 57 q 424 181 426 138 q 421 251 421 224 q 425 349 421 297 q 436 456 429 400 l 267 456 q 247 464 256 456 q 239 483 239 472 q 247 503 239 494 q 267 511 256 511 l 444 511 q 487 719 461 611 q 557 918 513 826 q 412 896 486 907 q 271 879 338 885 q 236 877 253 878 q 204 876 219 876 q 140 880 175 876 q 73 896 104 883 q 21 931 42 908 q 0 993 0 954 q 8 1013 0 1004 q 28 1021 17 1021 q 47 1013 39 1021 q 56 993 56 1004 q 71 960 56 974 q 114 941 83 950 q 208 932 144 932 q 237 933 222 932 q 268 935 251 933 q 420 953 339 940 q 578 978 501 965 q 585 979 581 979 q 592 981 589 979 q 622 1012 603 997 q 661 1026 642 1026 q 689 996 689 1026 q 768 1007 733 1003 q 829 1011 803 1011 z "},"G":{"ha":749,"x_min":0,"x_max":693,"o":"m 649 418 q 657 419 651 419 q 675 411 669 419 q 683 392 683 403 q 672 351 683 379 q 647 292 661 324 q 619 234 633 261 q 599 196 606 207 q 549 123 576 158 q 487 60 521 88 q 413 17 453 33 q 325 0 372 0 q 185 26 246 0 q 83 99 124 53 q 21 212 42 146 q 0 357 0 278 q 17 501 0 425 q 65 652 33 578 q 141 794 96 726 q 244 915 186 863 q 369 997 301 967 q 515 1028 438 1028 q 645 985 597 1028 q 693 860 693 942 q 690 822 693 849 q 679 767 686 794 q 660 719 672 740 q 633 699 649 699 q 621 701 629 699 q 604 726 604 708 q 607 738 604 729 q 639 860 639 806 q 606 945 639 918 q 515 972 572 972 q 385 915 450 972 q 267 754 321 858 q 186 540 215 656 q 157 319 157 424 q 163 231 157 278 q 188 146 169 185 q 240 81 207 107 q 325 56 272 56 q 431 89 383 56 q 515 169 479 122 q 575 268 550 217 q 613 354 600 319 q 520 338 568 343 q 426 332 472 332 q 383 335 407 332 q 337 346 358 338 q 301 369 315 354 q 286 411 286 385 q 294 431 286 422 q 314 439 303 439 q 333 431 325 439 q 342 411 342 422 q 353 398 342 403 q 378 391 364 393 q 406 388 393 389 q 424 388 419 388 q 464 389 442 388 q 514 394 486 390 q 565 401 542 397 q 608 410 589 406 q 649 418 629 414 z "},"E":{"ha":750,"x_min":0,"x_max":694,"o":"m 656 356 q 676 347 668 356 q 685 326 685 338 q 674 292 685 317 q 648 242 663 268 q 619 192 633 215 q 599 161 604 169 q 544 98 574 128 q 477 47 514 68 q 395 13 440 25 q 292 0 350 0 q 172 16 226 0 q 80 62 118 32 q 21 133 42 92 q 0 226 0 175 q 13 306 0 267 q 51 378 26 344 q 108 440 75 413 q 183 486 142 468 q 104 569 135 510 q 74 704 74 628 q 101 835 74 775 q 178 938 129 894 q 297 1004 228 981 q 450 1028 367 1028 q 631 982 568 1028 q 694 861 694 936 q 658 715 694 794 q 635 699 653 699 q 622 701 631 699 q 606 726 606 708 q 608 738 606 729 q 639 860 639 807 q 602 942 639 911 q 496 972 565 972 q 391 951 439 972 q 309 890 343 929 q 256 798 275 851 q 238 681 238 744 q 263 559 238 604 q 332 514 289 514 q 351 506 343 514 q 360 486 360 497 q 351 467 360 475 q 332 458 343 458 q 264 441 294 458 q 211 393 233 424 q 177 324 189 363 q 165 240 165 285 q 209 105 165 154 q 329 56 253 56 q 397 67 365 56 q 457 98 429 79 q 508 141 485 117 q 551 192 532 165 q 585 244 571 218 q 610 290 600 269 q 625 324 619 311 q 631 338 631 338 q 640 351 633 346 q 656 356 647 356 z "},"D":{"ha":879,"x_min":0,"x_max":838,"o":"m 533 1028 q 663 1002 607 1028 q 758 930 719 976 q 817 819 797 883 q 838 678 838 754 q 821 531 838 608 q 774 378 804 453 q 699 234 743 303 q 598 113 654 165 q 475 31 542 61 q 332 0 408 0 q 194 43 244 0 q 144 168 144 86 q 148 207 144 181 q 159 260 151 233 q 178 308 167 288 q 207 329 190 329 q 218 326 210 329 q 235 301 235 319 q 232 290 235 299 q 200 167 200 219 q 232 82 200 108 q 311 56 264 56 q 451 113 385 56 q 572 274 517 169 q 653 488 624 372 q 682 708 682 604 q 675 797 682 750 q 649 882 668 843 q 597 947 631 921 q 508 972 563 972 q 288 835 388 972 q 253 783 268 808 q 229 737 239 757 q 215 703 219 717 q 210 690 210 690 q 206 683 208 689 q 165 453 183 568 q 132 221 146 339 q 124 103 124 149 q 125 69 124 81 q 128 53 126 58 q 143 28 143 46 q 135 8 143 17 q 115 0 126 0 q 51 28 74 0 q 17 97 28 57 q 3 180 6 138 q 0 251 0 222 q 10 413 0 322 q 38 598 19 504 q 83 780 57 692 q 143 935 110 868 q 159 965 150 949 q 181 994 168 981 q 208 1017 193 1008 q 240 1026 222 1026 q 260 1019 251 1026 q 268 1000 268 1011 q 267 993 268 996 q 259 956 267 990 q 240 865 251 922 q 361 981 290 935 q 533 1028 432 1028 z "},"B":{"ha":844,"x_min":0,"x_max":838,"o":"m 656 542 q 736 468 708 518 q 764 346 764 418 q 734 206 764 269 q 652 97 704 143 q 529 26 600 51 q 378 0 458 0 q 205 46 267 0 q 143 168 143 92 q 147 207 143 181 q 158 260 150 233 q 177 308 165 288 q 206 329 189 329 q 217 326 208 329 q 233 301 233 319 q 231 290 233 299 q 199 167 199 219 q 235 86 199 117 q 338 56 271 56 q 442 79 394 56 q 525 145 490 103 q 580 245 560 188 q 600 371 600 303 q 580 473 600 432 q 506 514 560 514 q 486 522 494 514 q 478 542 478 531 q 486 561 478 553 q 506 569 494 569 q 574 588 543 569 q 628 635 606 606 q 662 706 650 665 q 674 790 674 746 q 631 924 674 875 q 511 972 588 972 q 419 951 461 972 q 343 899 376 931 q 284 832 310 868 q 242 765 258 796 q 217 713 225 733 q 208 690 208 692 q 207 688 207 689 q 165 455 183 571 q 132 221 146 339 q 124 103 124 149 q 125 69 124 81 q 128 53 126 58 q 143 28 143 46 q 135 8 143 17 q 115 0 126 0 q 51 28 74 0 q 17 97 28 57 q 3 180 6 138 q 0 251 0 222 q 10 413 0 322 q 38 598 19 504 q 83 780 57 692 q 143 935 110 868 q 159 965 150 949 q 181 994 168 981 q 208 1017 193 1008 q 240 1026 222 1026 q 260 1019 251 1026 q 268 1000 268 1011 q 267 993 268 996 q 260 957 267 990 q 242 868 253 924 q 296 931 267 901 q 363 981 325 960 q 446 1015 400 1003 q 547 1028 492 1028 q 665 1012 611 1028 q 756 966 718 996 q 816 894 794 936 q 838 801 838 853 q 824 724 838 763 q 788 651 811 685 q 731 589 764 617 q 656 542 697 561 z "},"J":{"ha":1011,"x_min":0,"x_max":914,"o":"m 829 1011 q 856 1010 842 1011 q 884 1003 871 1008 q 906 988 897 997 q 914 961 914 978 q 906 942 914 950 q 886 933 897 933 q 860 953 865 933 q 832 956 851 956 q 753 951 793 956 q 676 939 714 946 q 715 820 704 881 q 725 696 725 760 q 713 544 725 624 q 679 387 701 464 q 625 240 657 310 q 551 116 593 169 q 460 31 510 63 q 353 0 411 0 q 263 60 289 0 q 251 147 243 100 q 290 229 260 193 q 311 239 300 239 q 329 232 319 239 q 338 213 338 225 q 332 193 339 201 q 306 135 310 167 q 313 83 303 104 q 353 56 325 56 q 428 121 386 56 q 494 268 465 182 q 544 447 524 354 q 574 631 564 540 q 585 789 585 721 q 581 863 585 829 q 571 921 578 897 q 419 897 497 908 q 271 879 342 885 q 235 877 253 878 q 203 876 218 876 q 138 880 174 876 q 72 896 103 883 q 21 931 42 908 q 0 993 0 954 q 8 1013 0 1004 q 28 1021 17 1021 q 47 1013 39 1021 q 56 993 56 1004 q 69 960 56 974 q 113 941 82 950 q 207 932 143 932 q 235 933 221 932 q 267 935 250 933 q 399 949 329 939 q 536 971 469 960 q 517 979 525 971 q 508 999 508 988 q 517 1018 508 1010 q 536 1026 525 1026 q 638 988 594 1026 q 750 1005 703 999 q 829 1011 797 1011 z "},"L":{"ha":663,"x_min":0,"x_max":635,"o":"m 118 0 q 53 29 76 0 q 17 99 29 58 q 3 181 6 139 q 0 251 0 224 q 10 414 0 322 q 39 599 21 506 q 83 781 57 693 q 143 935 110 869 q 182 993 157 963 q 240 1026 207 1024 q 263 1017 257 1026 q 268 1006 265 1011 q 268 993 271 1000 q 256 936 267 986 q 232 817 246 886 q 203 674 218 749 q 181 544 189 600 q 151 358 163 438 q 132 221 139 279 q 126 156 128 185 q 124 103 125 126 q 125 73 124 83 q 128 56 126 63 l 607 56 q 626 47 618 56 q 635 28 635 39 q 626 8 635 17 q 607 0 618 0 l 118 0 z "},"P":{"ha":881,"x_min":0,"x_max":849,"o":"m 540 1028 q 654 1011 599 1028 q 753 960 710 994 q 822 871 796 925 q 849 742 849 817 q 807 558 849 646 q 697 401 765 469 q 542 291 629 332 q 364 250 456 250 q 224 292 274 250 q 174 417 174 335 q 177 455 174 428 q 188 510 181 482 q 208 558 196 538 q 235 579 219 579 q 246 576 238 579 q 263 551 263 569 q 260 540 263 549 q 229 417 229 471 q 262 332 229 358 q 349 306 294 306 q 490 353 426 306 q 598 472 553 401 q 667 625 643 543 q 692 775 692 707 q 682 853 692 817 q 652 915 672 889 q 600 957 632 942 q 524 972 568 972 q 427 951 471 972 q 349 899 383 931 q 288 832 314 868 q 244 765 261 796 q 219 713 228 733 q 210 690 210 692 q 207 683 210 689 q 165 453 185 568 q 133 222 144 339 q 125 103 125 150 q 126 69 125 81 q 129 53 126 58 q 143 28 143 46 q 135 8 143 17 q 115 0 126 0 q 52 28 75 0 q 17 97 29 57 q 3 181 6 138 q 0 251 0 224 q 10 410 0 318 q 40 599 21 503 q 85 784 58 694 q 144 935 113 874 q 160 965 151 949 q 182 994 169 981 q 209 1017 194 1008 q 240 1026 224 1026 q 262 1017 256 1026 q 268 993 268 1008 q 260 958 268 992 q 242 865 253 924 q 363 981 292 933 q 540 1028 433 1028 z "},"O":{"ha":815,"x_min":0,"x_max":774,"o":"m 324 0 q 192 24 251 0 q 90 93 132 49 q 24 202 47 138 q 0 347 0 267 q 22 502 0 426 q 82 644 43 578 q 126 790 93 721 q 208 913 158 860 q 322 997 257 965 q 464 1028 388 1028 q 611 988 551 1028 q 707 887 671 949 q 758 750 743 825 q 774 606 774 675 q 763 476 774 544 q 728 340 751 407 q 668 210 704 272 q 582 102 632 149 q 467 28 532 56 q 324 0 403 0 m 160 368 q 159 345 160 357 q 158 317 158 333 q 167 227 158 274 q 198 142 175 181 q 260 80 221 104 q 360 56 299 56 q 473 82 422 56 q 563 151 524 108 q 632 251 603 194 q 681 370 661 308 q 709 494 700 432 q 718 608 718 556 q 706 729 718 665 q 666 847 694 793 q 588 937 638 901 q 464 972 539 972 q 371 956 414 972 q 292 912 328 940 q 227 847 256 883 q 178 768 199 810 q 411 868 285 868 q 431 860 422 868 q 439 840 439 851 q 431 821 439 829 q 411 813 422 813 q 346 793 376 813 q 290 742 315 774 q 245 669 265 710 q 210 588 225 629 q 184 508 194 547 q 168 442 174 469 q 174 433 171 439 q 299 375 218 375 q 390 392 349 375 q 460 438 431 408 q 506 509 490 468 q 522 600 522 550 q 521 629 522 615 q 515 658 519 643 q 514 667 514 661 q 535 693 514 689 q 556 690 546 693 q 568 672 565 686 q 578 600 578 639 q 557 488 578 539 q 499 399 536 436 q 411 340 463 361 q 299 319 360 319 q 160 368 217 319 z "},"Q":{"ha":815,"x_min":0,"x_max":774,"o":"m 325 0 q 192 24 253 0 q 90 93 132 49 q 24 201 47 138 q 0 346 0 265 q 22 501 0 424 q 82 644 43 578 q 126 789 93 719 q 208 911 158 858 q 322 996 257 964 q 465 1028 388 1028 q 613 988 553 1028 q 708 888 672 949 q 758 752 743 826 q 774 607 774 678 q 763 476 774 546 q 728 340 751 407 q 669 210 706 272 q 583 102 633 149 q 469 28 533 56 q 325 0 406 0 m 464 972 q 371 956 414 972 q 292 912 328 940 q 227 847 256 883 q 178 768 199 810 q 411 868 285 868 q 431 860 422 868 q 439 840 439 851 q 431 821 439 829 q 411 813 422 813 q 317 770 360 813 q 244 669 275 728 q 195 547 214 610 q 169 442 176 483 q 175 433 172 436 q 299 375 217 375 q 390 392 349 375 q 460 438 431 408 q 506 509 490 468 q 522 600 522 550 q 521 629 522 615 q 515 658 519 643 q 514 667 514 661 q 535 693 514 689 q 556 690 546 693 q 568 672 565 686 q 578 600 578 639 q 557 488 578 539 q 499 399 536 436 q 411 340 463 361 q 299 319 360 319 q 160 368 217 319 q 159 345 160 357 q 158 317 158 333 q 167 227 158 274 q 198 142 175 181 q 260 80 221 104 q 360 56 299 56 q 473 82 422 56 q 563 151 524 108 q 632 251 603 194 q 681 370 661 308 q 709 494 700 432 q 718 608 718 556 q 706 729 718 665 q 666 847 694 793 q 588 937 638 901 q 464 972 539 972 m 638 -83 q 669 -85 651 -83 q 702 -92 686 -86 q 728 -108 718 -97 q 739 -139 739 -119 q 731 -158 739 -150 q 711 -167 722 -167 q 683 -144 689 -167 q 670 -140 681 -142 q 638 -139 660 -139 q 589 -140 615 -139 q 531 -144 563 -142 q 447 -150 490 -147 q 361 -153 404 -153 q 230 -142 294 -153 q 114 -104 165 -132 q 31 -26 63 -76 q 0 103 0 24 q 8 122 0 114 q 28 131 17 131 q 47 122 39 131 q 56 103 56 114 q 83 -3 56 36 q 156 -63 111 -43 q 255 -90 200 -83 q 364 -96 310 -96 q 447 -94 406 -96 q 526 -89 489 -92 q 588 -85 561 -86 q 638 -83 615 -83 z "},"S":{"ha":732,"x_min":0,"x_max":683,"o":"m 489 969 q 401 953 442 969 q 332 911 361 938 q 286 851 303 885 q 269 779 269 817 q 284 707 269 742 q 321 643 299 672 q 370 590 343 614 q 422 546 397 565 q 497 492 458 519 q 566 432 535 465 q 617 356 597 399 q 638 251 638 313 q 616 155 638 200 q 553 75 594 110 q 453 20 513 40 q 319 0 394 0 q 181 23 240 0 q 81 87 121 46 q 20 183 40 128 q 0 304 0 239 q 8 324 0 315 q 28 332 17 332 q 47 324 39 332 q 56 304 56 315 q 75 193 56 240 q 126 115 94 146 q 197 70 157 85 q 276 56 236 56 q 356 70 318 56 q 422 109 393 85 q 466 166 450 133 q 482 233 482 199 q 469 296 482 268 q 435 347 456 324 q 389 392 414 371 q 340 431 364 413 q 265 491 304 460 q 192 562 225 522 q 138 651 160 601 q 117 763 117 700 q 140 863 117 815 q 206 947 163 911 q 310 1004 249 983 q 447 1025 371 1025 q 622 979 561 1025 q 683 858 683 933 q 647 713 683 792 q 624 696 642 696 q 611 699 619 696 q 594 724 594 706 q 597 735 594 726 q 629 857 629 803 q 592 939 629 908 q 489 969 556 969 z "},"U":{"ha":818,"x_min":0,"x_max":818,"o":"m 244 56 q 360 103 307 56 q 455 219 413 150 q 528 367 497 289 q 576 507 558 444 q 609 685 589 593 q 656 853 629 778 q 716 978 682 929 q 790 1026 750 1026 q 811 1017 806 1026 q 818 993 818 1008 q 809 951 817 990 q 789 851 801 913 q 761 710 776 789 q 731 546 746 631 q 701 365 714 446 q 682 221 689 283 q 674 103 675 147 q 675 69 674 81 q 678 53 676 58 q 693 28 693 46 q 685 8 693 17 q 665 0 676 0 q 602 28 625 0 q 567 97 579 57 q 553 181 556 138 q 550 251 550 224 q 550 266 550 258 q 551 285 550 274 q 501 188 531 239 q 433 96 471 138 q 347 27 394 54 q 244 0 300 0 q 123 35 171 0 q 48 123 75 69 q 10 241 21 176 q 0 365 0 306 q 22 581 0 468 q 83 792 44 693 q 115 863 96 824 q 160 937 135 903 q 216 994 185 971 q 282 1018 247 1018 q 301 1010 293 1018 q 310 990 310 1001 q 307 981 310 986 q 295 949 307 981 q 266 866 283 918 q 228 746 249 814 q 188 603 207 678 q 147 427 164 515 q 131 249 131 339 q 134 185 131 219 q 149 122 138 151 q 184 74 161 93 q 244 56 207 56 z "},"V":{"ha":804,"x_min":0,"x_max":769,"o":"m 617 914 q 690 895 661 914 q 738 846 719 876 q 763 778 756 815 q 769 704 769 742 q 751 557 769 636 q 699 400 733 478 q 618 250 665 322 q 513 122 571 178 q 386 33 454 67 q 244 0 318 0 q 122 35 169 0 q 48 124 75 69 q 10 242 21 178 q 0 367 0 307 q 22 582 0 469 q 83 794 43 694 q 115 866 96 826 q 160 940 135 906 q 216 997 185 974 q 282 1021 247 1021 q 301 1012 293 1021 q 310 992 310 1003 q 308 983 310 986 q 295 949 307 981 q 265 866 283 918 q 226 747 247 814 q 186 604 206 679 q 147 428 164 517 q 131 249 131 339 q 134 185 131 219 q 149 122 138 151 q 184 74 161 93 q 244 56 207 56 q 373 88 313 56 q 485 172 433 119 q 580 293 538 225 q 652 433 622 361 q 698 576 682 506 q 714 704 714 646 q 710 756 714 729 q 697 806 707 783 q 667 844 686 829 q 617 858 647 858 q 597 867 606 858 q 589 886 589 875 q 597 906 589 897 q 617 914 606 914 z "},"W":{"ha":1132,"x_min":0,"x_max":1097,"o":"m 1042 710 q 1038 761 1042 733 q 1024 812 1035 789 q 994 850 1014 835 q 944 865 975 865 q 925 874 933 865 q 917 893 917 882 q 925 913 917 904 q 944 921 933 921 q 1018 901 989 921 q 1065 852 1047 882 q 1090 785 1083 822 q 1097 710 1097 747 q 1081 562 1097 642 q 1033 403 1064 482 q 958 252 1001 325 q 862 123 915 179 q 746 33 808 67 q 615 0 683 0 q 514 22 557 0 q 440 83 471 44 q 338 22 389 44 q 239 0 288 0 q 120 35 167 0 q 47 125 74 71 q 10 244 21 179 q 0 369 0 310 q 22 587 0 474 q 85 800 44 700 q 117 872 97 832 q 161 946 136 911 q 217 1004 186 981 q 285 1028 249 1028 q 308 1017 300 1028 q 313 1000 313 1008 q 311 990 313 993 q 250 822 282 917 q 192 626 218 726 q 149 428 165 526 q 132 250 132 331 q 135 187 132 221 q 151 124 139 153 q 184 75 163 94 q 242 56 206 56 q 324 76 282 56 q 411 132 367 96 q 376 299 376 206 q 399 448 376 369 q 462 592 421 526 q 563 702 503 658 q 697 746 622 746 q 777 719 756 746 q 799 651 799 693 q 778 545 799 606 q 722 419 757 485 q 638 289 686 354 q 536 168 590 224 q 565 88 543 119 q 626 56 586 56 q 740 88 686 56 q 840 174 793 121 q 924 295 886 226 q 987 437 961 364 q 1027 581 1013 510 q 1042 710 1042 651 m 743 664 q 740 682 743 674 q 719 690 736 690 q 668 665 692 690 q 624 601 644 640 q 588 512 604 561 q 561 413 572 463 q 543 322 550 364 q 533 251 536 279 q 616 360 578 303 q 682 473 654 418 q 726 578 710 528 q 743 664 743 628 z "},"X":{"ha":761,"x_min":0,"x_max":817,"o":"m 806 1022 q 817 1000 817 1014 q 811 983 817 989 l 410 469 q 428 423 414 458 q 464 342 443 388 q 510 246 485 296 q 559 153 535 196 q 606 84 583 111 q 643 57 628 57 q 663 49 654 57 q 671 29 671 40 q 663 10 671 18 q 643 1 654 1 q 542 34 592 1 q 449 117 493 67 q 369 226 406 167 q 304 336 332 285 l 50 11 q 28 0 42 0 q 11 7 21 0 q 0 28 0 14 q 7 46 0 36 l 278 392 q 226 509 253 443 q 176 646 199 575 q 138 786 153 717 q 122 913 122 856 q 125 948 122 929 q 135 983 128 967 q 155 1010 142 999 q 189 1021 168 1021 q 217 1001 210 1021 q 231 956 218 997 q 267 849 244 915 q 320 700 290 783 q 385 529 350 617 l 767 1017 q 789 1028 775 1028 q 806 1022 800 1028 z "},"Y":{"ha":801,"x_min":0,"x_max":732,"o":"m 644 22 q 708 -37 685 -1 q 732 -112 732 -74 q 724 -132 732 -124 q 704 -140 715 -140 q 685 -132 693 -140 q 676 -112 676 -124 q 617 -26 676 -61 q 574 -129 600 -76 q 513 -226 549 -182 q 429 -297 476 -269 q 322 -325 382 -325 q 230 -291 264 -325 q 196 -200 196 -257 q 225 -98 196 -144 q 299 -17 254 -51 q 399 36 344 17 q 504 57 454 56 q 538 230 524 140 q 558 407 551 319 q 510 305 539 357 q 442 209 481 253 q 355 138 404 165 q 244 110 306 110 q 128 138 175 110 q 53 213 82 167 q 13 317 25 258 q 0 436 0 375 q 22 628 0 528 q 83 817 43 728 q 115 879 96 844 q 160 944 135 914 q 215 996 185 975 q 281 1017 246 1017 q 300 1010 292 1017 q 308 992 308 1003 q 306 978 308 986 q 294 951 306 978 q 266 879 283 924 q 228 776 249 835 q 188 653 207 718 q 147 494 164 575 q 131 332 131 414 q 135 273 131 303 q 151 219 139 243 q 186 180 164 194 q 244 165 208 165 q 341 193 297 165 q 420 266 385 221 q 483 369 456 311 q 529 485 510 426 q 560 597 549 543 q 576 692 572 651 q 587 810 583 756 q 592 903 590 864 q 592 966 593 943 q 592 990 592 989 q 600 1009 592 1001 q 619 1017 608 1017 q 671 974 650 1017 q 693 899 685 944 q 706 805 701 854 q 711 709 710 756 q 713 632 713 663 q 695 328 713 481 q 635 28 678 175 q 640 25 638 26 q 644 22 642 24 m 322 -269 q 384 -239 356 -269 q 433 -165 413 -208 q 469 -76 454 -122 q 490 0 483 -31 q 410 -19 453 -3 q 333 -62 368 -35 q 274 -125 297 -89 q 250 -203 250 -161 q 269 -253 250 -236 q 322 -269 289 -269 z "},"Z":{"ha":747,"x_min":0,"x_max":733,"o":"m 674 -112 q 662 -46 674 -76 q 629 11 650 -15 q 583 -124 618 -62 q 498 -231 549 -186 q 383 -300 447 -275 q 246 -325 318 -325 q 76 -269 138 -325 q 14 -110 14 -214 q 38 5 14 -47 q 106 95 61 57 q 214 155 150 133 q 357 176 278 176 q 471 164 417 176 q 456 234 464 200 q 436 299 447 268 q 396 372 415 351 q 365 393 376 393 q 346 401 354 393 q 338 421 338 410 q 346 440 338 432 q 365 449 354 449 q 406 462 382 449 q 456 528 429 475 q 492 622 476 568 q 522 729 507 675 q 552 831 538 782 q 586 919 567 879 q 596 939 592 933 q 481 956 556 946 q 319 965 407 965 q 213 950 261 965 q 129 906 164 935 q 75 839 94 878 q 56 753 56 800 q 47 733 56 742 q 28 725 39 725 q 8 733 17 725 q 0 753 0 742 q 28 869 0 819 q 100 953 56 919 q 202 1003 144 986 q 319 1021 260 1021 q 426 1017 375 1021 q 518 1008 476 1013 q 590 997 560 1003 q 632 989 619 992 q 706 1019 667 1019 q 725 1011 717 1019 q 733 992 733 1003 q 731 966 733 992 q 724 899 729 940 q 708 806 718 858 q 679 697 697 753 q 649 615 667 657 q 606 536 631 574 q 549 467 581 499 q 476 417 517 436 q 546 354 517 392 q 595 272 575 317 q 625 180 615 228 q 635 86 635 132 q 704 -1 679 49 q 729 -112 729 -51 q 721 -132 729 -124 q 701 -140 713 -140 q 682 -132 690 -140 q 674 -112 674 -124 m 231 -269 q 333 -247 288 -269 q 412 -182 379 -224 q 462 -80 444 -140 q 479 56 479 -19 q 479 80 479 68 q 478 104 479 92 q 356 121 422 121 q 235 103 289 121 q 145 56 182 86 q 89 -18 108 25 q 69 -111 69 -61 q 113 -229 69 -189 q 231 -269 156 -269 z "},"A":{"ha":874,"x_min":0,"x_max":874,"o":"m 846 1026 q 865 1019 857 1026 q 874 1000 874 1011 q 872 993 874 996 q 864 951 872 990 q 843 851 856 913 q 816 710 831 789 q 786 546 801 631 q 756 365 768 446 q 738 221 744 283 q 729 103 729 149 q 731 69 729 81 q 733 53 732 58 q 749 28 749 46 q 740 8 749 17 q 721 0 732 0 q 656 28 679 0 q 622 97 633 57 q 608 180 611 138 q 606 251 606 222 q 606 291 606 271 q 608 333 606 311 q 565 234 592 292 q 499 124 539 176 q 403 36 458 72 q 275 0 349 0 q 161 29 213 0 q 74 109 110 58 q 19 228 39 160 q 0 374 0 296 q 16 520 0 444 q 62 668 32 596 q 135 805 92 740 q 231 919 178 869 q 349 997 285 968 q 485 1025 413 1025 q 583 1006 544 1025 q 646 955 622 986 q 681 884 669 924 q 697 804 692 844 q 722 876 710 843 q 749 935 735 910 q 765 965 756 949 q 786 994 774 981 q 813 1017 799 1008 q 846 1026 828 1026 m 300 56 q 395 92 353 56 q 471 180 438 129 q 527 283 504 231 q 563 368 550 336 q 599 476 583 422 q 627 573 615 529 q 646 648 639 617 q 656 689 653 679 q 651 715 653 701 q 649 742 650 728 q 635 835 643 793 q 614 908 628 878 q 578 953 600 938 q 519 969 556 969 q 386 913 451 969 q 267 753 321 857 q 221 650 242 704 q 186 540 200 596 q 165 428 172 483 q 157 321 157 372 q 163 233 157 279 q 185 147 169 186 q 229 81 201 107 q 300 56 257 56 z "},"K":{"ha":733,"x_min":0,"x_max":706,"o":"m 0 251 q 10 411 0 319 q 40 599 21 503 q 85 783 58 694 q 144 935 111 872 q 160 965 151 949 q 182 994 169 981 q 209 1017 194 1008 q 240 1026 224 1026 q 263 1017 254 1026 q 268 993 271 1007 q 260 955 268 993 q 239 854 251 917 q 212 712 226 792 q 182 547 197 632 q 178 530 179 539 q 176 513 178 521 q 313 524 251 513 q 421 555 374 536 q 501 597 468 574 q 556 642 535 619 q 629 763 608 700 q 650 871 650 825 q 640 930 650 907 q 614 953 629 953 q 594 961 603 953 q 586 981 586 969 q 594 1000 586 992 q 614 1008 603 1008 q 658 995 640 1008 q 687 961 676 982 q 701 916 697 940 q 706 871 706 892 q 674 722 706 792 q 588 596 642 651 q 547 563 571 578 q 497 534 524 547 q 445 510 471 521 q 396 490 419 499 q 405 488 400 489 q 414 485 410 486 q 520 432 479 464 q 583 357 561 400 q 613 260 606 314 q 621 142 621 206 q 620 122 621 136 q 620 92 619 107 q 625 67 621 78 q 638 56 629 56 q 657 47 649 56 q 665 28 665 39 q 657 8 665 17 q 638 0 649 0 q 551 17 583 0 q 499 63 518 33 q 472 131 481 92 q 458 214 464 169 q 443 305 453 261 q 405 383 433 349 q 322 437 376 417 q 172 457 267 457 l 167 457 q 133 222 143 317 q 125 103 125 150 q 125 69 124 81 q 128 53 126 58 q 143 28 143 46 q 135 8 143 17 q 115 0 126 0 q 52 28 75 0 q 17 97 29 57 q 3 181 6 138 q 0 251 0 224 z "},"N":{"ha":863,"x_min":0,"x_max":807,"o":"m 129 196 q 181 369 153 275 q 244 558 210 463 q 318 741 279 653 q 400 896 357 829 q 485 991 438 953 q 604 1029 532 1029 q 698 1006 660 1029 q 760 944 736 983 q 796 850 785 904 q 807 735 807 796 q 791 549 807 642 q 756 365 775 457 q 732 242 744 307 q 719 119 719 178 q 723 81 719 93 q 731 63 726 68 q 746 56 735 56 q 765 47 757 56 q 774 28 774 39 q 765 8 774 17 q 746 0 757 0 q 666 18 697 0 q 616 67 635 36 q 590 136 597 97 q 582 217 582 175 q 595 374 582 296 q 624 531 608 453 q 650 680 638 606 q 663 829 663 754 q 660 881 663 856 q 649 928 657 907 q 624 961 640 949 q 581 974 608 974 q 553 969 568 974 q 521 953 538 965 q 484 917 504 940 q 440 854 464 893 q 369 718 408 801 q 286 506 331 635 q 233 344 257 424 q 190 199 208 265 q 159 88 171 133 q 143 28 147 43 q 135 8 143 17 q 115 0 126 0 q 52 28 75 0 q 17 97 29 57 q 3 181 6 138 q 0 251 0 224 q 6 351 0 282 q 26 507 13 421 q 59 685 39 593 q 106 853 79 778 q 166 978 132 929 q 240 1026 200 1026 q 263 1017 254 1026 q 267 1005 265 1010 q 268 993 269 1000 q 260 951 268 990 q 239 850 251 913 q 211 708 226 788 q 181 544 196 629 q 151 364 164 444 q 132 221 139 283 q 131 208 131 214 q 129 196 131 203 z "},"R":{"ha":858,"x_min":0,"x_max":853,"o":"m 718 56 q 738 47 729 56 q 746 28 746 39 q 738 8 746 17 q 718 0 729 0 q 621 19 660 0 q 556 70 582 38 q 513 146 529 103 q 483 238 497 189 q 464 303 474 272 q 439 358 454 335 q 351 403 408 403 q 332 411 340 403 q 324 431 324 419 q 332 450 324 442 q 351 458 340 458 q 488 494 425 458 q 595 583 550 529 q 665 701 640 638 q 690 821 690 765 q 677 890 690 861 q 642 937 664 918 q 592 964 621 956 q 529 972 563 972 q 430 951 475 972 q 349 899 385 931 q 288 832 314 868 q 244 765 261 796 q 218 713 226 733 q 210 690 210 692 q 206 683 208 689 q 165 453 183 568 q 132 222 146 339 q 124 103 124 150 q 125 69 124 81 q 128 53 126 58 q 143 28 143 46 q 135 8 143 17 q 115 0 126 0 q 51 28 74 0 q 17 97 28 57 q 3 180 6 138 q 0 251 0 222 q 10 413 0 322 q 38 598 19 504 q 83 780 57 692 q 143 935 110 868 q 159 965 150 949 q 181 994 168 981 q 208 1017 193 1008 q 240 1026 222 1026 q 260 1019 251 1026 q 268 1000 268 1011 q 267 993 268 996 q 259 958 267 992 q 240 865 251 924 q 295 928 265 899 q 362 981 325 958 q 443 1015 399 1003 q 542 1028 488 1028 q 642 1017 588 1028 q 742 978 696 1006 q 821 906 789 951 q 853 790 853 860 q 824 665 853 724 q 747 560 794 607 q 641 478 700 513 q 524 425 582 444 q 589 377 564 406 q 630 314 614 349 q 656 240 646 279 q 672 161 665 201 q 690 81 682 107 q 718 56 699 56 z "},"M":{"ha":1044,"x_min":0,"x_max":1128,"o":"m 1108 1025 q 1128 999 1128 1021 q 1119 979 1128 988 q 1100 971 1111 971 q 1045 922 1071 971 q 998 797 1019 872 q 960 628 976 721 q 931 451 943 536 q 913 300 919 367 q 907 207 907 233 q 908 175 907 200 q 910 124 908 150 q 917 76 913 97 q 929 56 921 56 q 941 47 936 56 q 946 28 946 39 q 939 8 946 15 q 922 0 932 0 q 840 30 871 0 q 791 105 808 60 q 768 203 774 150 q 763 300 763 256 q 773 463 763 374 q 805 640 783 551 q 862 808 826 728 q 947 946 897 889 q 837 894 890 926 q 734 821 783 861 q 642 733 685 781 q 565 636 600 686 q 593 522 583 578 q 603 417 603 465 q 594 330 603 372 q 565 254 585 288 q 515 201 546 221 q 442 181 485 181 q 369 210 388 181 q 350 278 350 240 q 359 344 350 308 q 382 416 368 379 q 413 488 396 453 q 446 551 429 522 q 387 738 422 643 q 299 914 351 833 q 260 958 275 944 q 246 889 254 932 q 226 791 238 846 q 203 674 215 736 q 181 546 192 611 q 151 365 164 446 q 132 221 139 283 q 126 155 129 185 q 124 101 124 125 q 125 68 124 79 q 128 51 126 57 q 143 28 143 44 q 135 8 143 15 q 115 0 126 0 q 52 28 75 0 q 17 97 29 57 q 3 178 6 136 q 0 250 0 221 q 6 351 0 289 q 22 487 11 414 q 48 638 32 560 q 85 785 64 715 q 131 910 106 854 q 185 996 156 967 q 240 1025 210 1025 q 342 990 294 1025 q 430 905 390 956 q 498 798 469 854 q 543 699 526 742 q 552 711 547 706 q 563 724 557 717 q 672 840 613 785 q 799 936 731 894 q 942 1002 867 978 q 1100 1026 1018 1026 q 1108 1025 1106 1026 m 458 453 q 419 352 433 399 q 406 274 406 306 q 409 251 406 265 q 431 236 413 236 q 455 249 446 236 q 468 280 464 263 q 474 316 472 297 q 475 346 475 335 q 472 404 475 375 q 464 465 469 433 q 458 453 461 461 z "},".":{"ha":310,"x_min":99,"x_max":211,"o":"m 99 56 q 114 97 99 82 q 156 113 129 113 q 196 97 181 113 q 211 56 211 82 q 196 15 211 31 q 156 0 181 0 q 114 15 129 0 q 99 56 99 31 z "},":":{"ha":221,"x_min":43,"x_max":208,"o":"m 43 56 q 58 97 43 82 q 100 113 74 113 q 140 97 125 113 q 156 56 156 82 q 140 15 156 31 q 100 0 125 0 q 58 15 74 0 q 43 56 43 31 m 96 472 q 111 514 96 499 q 153 529 126 529 q 193 514 178 529 q 208 472 208 499 q 193 432 208 447 q 153 417 178 417 q 111 432 126 417 q 96 472 96 447 z "},"-":{"ha":561,"x_min":119,"x_max":442,"o":"m 147 397 q 128 406 136 397 q 119 425 119 414 q 128 444 119 436 q 147 453 136 453 l 414 453 q 433 444 425 453 q 442 425 442 436 q 433 406 442 414 q 414 397 425 397 l 147 397 z "},"=":{"ha":563,"x_min":121,"x_max":443,"o":"m 149 369 q 129 378 138 369 q 121 397 121 386 q 129 417 121 408 q 149 425 138 425 l 415 425 q 435 417 426 425 q 443 397 443 408 q 435 378 443 386 q 415 369 426 369 l 149 369 m 149 467 q 129 475 138 467 q 121 494 121 483 q 129 514 121 506 q 149 522 138 522 l 415 522 q 435 514 426 522 q 443 494 443 506 q 435 475 443 483 q 415 467 426 467 l 149 467 z "},"":{"ha":906,"x_min":60,"x_max":811,"o":"m 747 338 q 774 356 754 356 q 793 347 785 356 q 801 328 801 339 q 790 292 801 317 q 765 242 779 268 q 736 192 750 215 q 715 161 722 169 q 599 47 667 93 q 443 0 531 0 q 312 23 369 0 q 213 87 254 46 q 149 185 172 128 q 119 314 125 243 l 88 314 q 68 322 76 314 q 60 342 60 331 q 68 361 60 353 q 88 369 76 369 l 118 369 q 122 417 119 393 q 128 467 124 442 l 88 467 q 68 475 76 467 q 60 494 60 483 q 68 514 60 506 q 88 522 76 522 l 140 522 q 207 704 163 614 q 315 867 251 794 q 458 983 378 939 q 633 1028 539 1028 q 763 985 715 1028 q 811 860 811 942 q 808 822 811 849 q 797 767 804 794 q 778 719 790 740 q 751 699 767 699 q 739 701 747 699 q 722 726 722 708 q 725 738 722 729 q 748 802 740 771 q 756 861 756 833 q 723 946 756 919 q 633 972 690 972 q 549 949 589 972 q 476 889 510 926 q 413 803 442 851 q 363 706 385 756 q 325 608 340 656 q 300 522 310 560 l 521 522 q 540 514 532 522 q 549 494 549 506 q 540 475 549 483 q 521 467 532 467 l 289 467 q 276 369 281 415 l 521 369 q 540 361 532 369 q 549 342 549 353 q 540 322 549 331 q 521 314 532 314 l 275 314 q 282 226 275 272 q 308 143 289 181 q 359 81 326 106 q 443 56 392 56 q 536 76 494 56 q 612 128 578 97 q 671 196 646 160 q 713 263 696 232 q 738 316 729 294 q 747 338 747 338 z "},"_":{"ha":590,"x_min":121,"x_max":471,"o":"m 149 -158 q 129 -150 138 -158 q 121 -131 121 -142 q 129 -111 121 -119 q 149 -103 138 -103 l 443 -103 q 463 -111 454 -103 q 471 -131 471 -119 q 463 -150 471 -142 q 443 -158 454 -158 l 149 -158 z "},"(":{"ha":546,"x_min":71,"x_max":542,"o":"m 514 890 q 533 882 525 890 q 542 863 542 874 q 533 843 542 851 q 514 835 525 835 q 406 775 461 835 q 301 607 350 715 q 259 498 278 556 q 226 381 240 440 q 206 265 213 322 q 199 156 199 208 q 203 77 199 121 q 224 -6 208 33 q 266 -70 239 -44 q 339 -96 293 -96 q 360 -104 351 -96 q 368 -124 368 -112 q 360 -143 368 -135 q 340 -151 351 -151 q 212 -119 264 -151 q 128 -35 160 -87 q 84 81 97 17 q 71 211 71 146 q 83 346 71 272 q 120 494 96 419 q 181 641 144 569 q 267 768 218 713 q 378 857 317 824 q 514 890 440 890 z "},")":{"ha":546,"x_min":4,"x_max":475,"o":"m 32 -151 q 13 -143 21 -151 q 4 -124 4 -135 q 13 -104 4 -112 q 32 -96 21 -96 q 140 -36 85 -96 q 244 132 196 24 q 287 242 268 185 q 319 358 306 299 q 340 474 333 417 q 347 583 347 532 q 342 663 347 619 q 322 744 338 706 q 280 809 307 783 q 207 835 253 835 q 186 843 194 835 q 178 863 178 851 q 186 882 178 874 q 206 890 194 890 q 334 858 282 890 q 417 774 386 826 q 462 658 449 722 q 475 528 475 593 q 463 394 475 468 q 426 244 450 319 q 365 98 401 169 q 278 -29 328 26 q 167 -118 229 -85 q 32 -151 106 -151 z "},"[":{"ha":524,"x_min":54,"x_max":518,"o":"m 490 882 q 510 874 501 882 q 518 854 518 865 q 510 835 518 843 q 490 826 501 826 l 363 826 l 200 -86 l 321 -86 q 340 -94 332 -86 q 349 -114 349 -103 q 340 -133 349 -125 q 321 -142 332 -142 l 167 -142 l 167 -142 l 83 -142 q 63 -132 72 -142 q 57 -110 54 -122 l 229 858 q 238 876 231 869 q 256 882 246 882 l 490 882 z "},"]":{"ha":525,"x_min":6,"x_max":469,"o":"m 33 -142 q 14 -133 22 -142 q 6 -114 6 -125 q 14 -94 6 -103 q 33 -86 22 -86 l 161 -86 l 324 826 l 203 826 q 183 835 192 826 q 175 854 175 843 q 183 874 175 865 q 203 882 192 882 l 357 882 l 357 882 l 440 882 q 461 872 451 882 q 467 850 469 863 l 294 -118 q 285 -135 293 -129 q 268 -142 278 -142 l 33 -142 z "},"!":{"ha":349,"x_min":100,"x_max":300,"o":"m 171 222 q 144 236 151 222 q 132 265 136 250 q 128 325 128 286 q 133 467 128 386 q 150 633 139 549 q 177 798 161 718 q 213 936 193 878 q 224 959 215 944 q 251 974 232 974 q 284 953 275 974 q 296 915 293 933 q 300 822 300 882 q 297 751 300 803 q 289 632 294 699 q 274 493 283 565 q 249 360 264 421 q 215 261 235 300 q 171 222 196 222 m 100 56 q 115 97 100 82 q 157 113 131 113 q 197 97 182 113 q 213 56 213 82 q 197 15 213 31 q 157 0 182 0 q 115 15 131 0 q 100 56 100 31 z "},"?":{"ha":576,"x_min":124,"x_max":540,"o":"m 364 972 q 492 919 444 972 q 540 769 540 867 q 509 592 540 692 q 421 390 478 492 q 385 331 408 368 q 335 260 363 294 q 276 200 307 225 q 215 175 244 175 q 192 189 199 175 q 188 203 188 196 q 190 217 188 208 q 203 241 190 217 q 236 305 217 265 q 280 397 256 344 q 328 507 304 450 q 396 706 378 631 q 414 826 414 782 q 350 917 414 917 q 279 888 313 917 q 221 806 246 858 q 203 762 211 783 q 190 724 194 740 q 181 697 185 707 q 178 686 178 686 q 167 668 175 672 q 146 664 158 664 q 127 676 131 669 q 124 697 124 683 q 127 710 124 699 q 136 741 131 722 q 150 783 142 760 q 171 831 158 806 q 251 936 204 900 q 364 972 297 972 m 157 56 q 172 97 157 82 q 214 113 188 113 q 254 97 239 113 q 269 56 269 82 q 254 15 269 31 q 214 0 239 0 q 172 15 188 0 q 157 56 157 31 z "},"":{"ha":301,"x_min":44,"x_max":244,"o":"m 174 428 q 201 414 193 428 q 213 385 208 400 q 217 325 217 364 q 211 183 217 264 q 194 17 206 101 q 167 -148 183 -68 q 132 -286 151 -228 q 121 -309 129 -294 q 93 -324 113 -324 q 60 -303 69 -324 q 49 -265 51 -283 q 44 -172 44 -232 q 47 -101 44 -153 q 56 18 50 -49 q 71 157 61 85 q 95 290 81 229 q 129 389 110 350 q 174 428 149 428 m 244 594 q 229 553 244 568 q 188 538 214 538 q 147 553 163 538 q 132 594 132 568 q 147 635 132 619 q 188 650 163 650 q 229 635 214 650 q 244 594 244 619 z "},"":{"ha":510,"x_min":35,"x_max":451,"o":"m 211 -325 q 83 -272 131 -325 q 35 -122 35 -219 q 66 56 35 -44 q 154 257 97 156 q 190 316 167 279 q 240 388 213 353 q 299 447 268 422 q 360 472 331 472 q 383 458 376 472 q 388 444 388 453 q 385 431 388 439 q 372 406 385 431 q 339 342 358 382 q 295 250 319 303 q 247 140 271 197 q 179 -59 197 17 q 161 -179 161 -135 q 225 -269 161 -269 q 296 -240 263 -269 q 354 -158 329 -211 q 373 -115 365 -136 q 385 -76 381 -93 q 394 -49 390 -60 q 397 -39 397 -39 q 408 -21 400 -25 q 429 -17 417 -17 q 448 -29 444 -22 q 451 -50 451 -36 q 448 -63 451 -51 q 439 -94 444 -75 q 425 -135 433 -112 q 404 -183 417 -158 q 324 -289 371 -253 q 211 -325 278 -325 m 418 592 q 403 550 418 565 q 361 535 388 535 q 321 550 336 535 q 306 592 306 565 q 321 632 306 617 q 361 647 336 647 q 403 632 388 647 q 418 592 418 617 z "},"&":{"ha":665,"x_min":49,"x_max":604,"o":"m 576 385 q 596 376 588 385 q 604 356 604 367 q 603 349 604 351 q 478 115 556 206 q 515 74 490 90 q 568 57 540 57 q 592 51 582 57 q 601 29 601 44 q 588 5 601 10 q 558 0 574 0 q 503 17 535 0 q 438 76 471 33 q 251 3 356 3 q 104 53 160 3 q 49 185 49 104 q 70 291 49 235 q 125 406 92 347 q 199 524 158 465 q 281 639 240 583 q 283 720 281 672 q 298 812 286 768 q 335 886 310 856 q 407 917 361 917 q 456 901 439 917 q 474 857 474 885 q 458 790 474 829 q 420 708 442 750 q 376 629 399 667 q 340 568 354 592 q 354 460 344 515 q 378 353 364 406 q 409 253 392 301 q 447 165 426 206 q 550 365 510 244 q 576 385 556 385 m 414 861 q 378 844 392 861 q 356 806 364 828 q 343 760 347 783 q 338 721 339 736 q 360 755 344 732 q 389 801 375 778 q 412 843 403 825 q 414 861 421 861 m 274 58 q 342 77 308 58 q 407 124 376 96 q 334 300 360 207 q 293 488 308 393 q 213 331 249 408 q 178 183 178 254 q 203 92 178 125 q 274 58 229 58 z "},"'":{"ha":321,"x_min":82,"x_max":228,"o":"m 125 525 q 98 539 106 525 q 86 568 90 553 q 82 628 82 589 q 83 673 82 642 q 88 742 85 704 q 99 822 92 781 q 117 897 106 863 q 143 952 128 931 q 179 974 158 974 q 206 961 196 974 q 220 931 215 949 q 226 894 225 913 q 228 863 228 875 q 226 822 228 851 q 221 756 225 793 q 210 677 217 718 q 192 603 203 636 q 164 547 181 569 q 125 525 147 525 z "},"\"":{"ha":540,"x_min":107,"x_max":433,"o":"m 150 525 q 123 539 131 525 q 111 568 115 553 q 107 628 107 589 q 108 673 107 642 q 113 742 110 704 q 124 822 117 781 q 142 897 131 863 q 168 952 153 931 q 204 974 183 974 q 231 961 221 974 q 245 931 240 949 q 251 894 250 913 q 253 863 253 875 q 251 822 253 851 q 246 756 250 793 q 235 677 242 718 q 217 603 228 636 q 189 547 206 569 q 150 525 172 525 m 331 525 q 303 539 311 525 q 292 568 296 553 q 288 628 288 589 q 289 673 288 642 q 294 742 290 704 q 304 822 297 781 q 322 897 311 863 q 349 952 333 931 q 385 974 364 974 q 411 961 401 974 q 426 931 421 949 q 432 894 431 913 q 433 863 433 875 q 432 822 433 851 q 426 756 431 793 q 415 677 422 718 q 397 603 408 636 q 369 547 386 569 q 331 525 353 525 z "},",":{"ha":317,"x_min":86,"x_max":232,"o":"m 129 -239 q 102 -225 110 -239 q 90 -196 94 -211 q 86 -136 86 -175 q 88 -91 86 -122 q 92 -22 89 -60 q 103 58 96 17 q 121 133 110 99 q 147 188 132 167 q 183 210 163 210 q 210 197 200 210 q 224 167 219 185 q 231 130 229 149 q 232 99 232 111 q 231 58 232 88 q 225 -8 229 29 q 214 -87 221 -46 q 196 -161 207 -128 q 168 -217 185 -194 q 129 -239 151 -239 z "},";":{"ha":238,"x_min":31,"x_max":208,"o":"m 74 -239 q 47 -225 54 -239 q 35 -196 39 -211 q 31 -136 31 -175 q 32 -91 31 -122 q 37 -22 33 -60 q 47 58 40 17 q 65 133 54 99 q 92 188 76 167 q 128 210 107 210 q 154 197 144 210 q 169 167 164 185 q 175 130 174 149 q 176 99 176 111 q 175 58 176 88 q 169 -8 174 29 q 158 -87 165 -46 q 140 -161 151 -128 q 113 -217 129 -194 q 74 -239 96 -239 m 96 472 q 111 432 96 447 q 153 417 126 417 q 193 432 178 417 q 208 472 208 447 q 193 514 208 499 q 153 529 178 529 q 111 514 126 529 q 96 472 96 499 z "},"":{"ha":317,"x_min":86,"x_max":232,"o":"m 129 -239 q 102 -225 110 -239 q 90 -196 94 -211 q 86 -136 86 -175 q 88 -91 86 -122 q 92 -22 89 -60 q 103 58 96 17 q 121 133 110 99 q 147 188 132 167 q 183 210 163 210 q 210 197 200 210 q 224 167 219 185 q 231 130 229 149 q 232 99 232 111 q 231 58 232 88 q 225 -8 229 29 q 214 -87 221 -46 q 196 -161 207 -128 q 168 -217 185 -194 q 129 -239 151 -239 z "},"":{"ha":539,"x_min":107,"x_max":433,"o":"m 150 -239 q 123 -225 131 -239 q 111 -196 115 -211 q 107 -136 107 -175 q 108 -91 107 -122 q 113 -22 110 -60 q 124 58 117 17 q 142 133 131 99 q 168 188 153 167 q 204 210 183 210 q 231 197 221 210 q 245 167 240 185 q 251 130 250 149 q 253 99 253 111 q 251 58 253 88 q 246 -8 250 29 q 235 -87 242 -46 q 217 -161 228 -128 q 189 -217 206 -194 q 150 -239 172 -239 m 331 -239 q 303 -225 311 -239 q 292 -196 296 -211 q 288 -136 288 -175 q 289 -91 288 -122 q 294 -22 290 -60 q 304 58 297 17 q 322 133 311 99 q 349 188 333 167 q 385 210 364 210 q 411 197 401 210 q 426 167 421 185 q 432 130 431 149 q 433 99 433 111 q 432 58 433 88 q 426 -8 431 29 q 415 -87 422 -46 q 397 -161 408 -128 q 369 -217 386 -194 q 331 -239 353 -239 z "},"":{"ha":539,"x_min":107,"x_max":433,"o":"m 331 524 q 303 538 311 524 q 292 567 296 551 q 288 626 288 588 q 289 672 288 640 q 294 741 290 703 q 304 820 297 779 q 322 895 311 861 q 349 951 333 929 q 385 972 364 972 q 411 960 401 972 q 426 929 421 947 q 432 892 431 911 q 433 861 433 874 q 432 821 433 850 q 426 754 431 792 q 415 676 422 717 q 397 601 408 635 q 369 546 386 568 q 331 524 353 524 m 150 524 q 123 538 131 524 q 111 567 115 551 q 107 626 107 588 q 108 672 107 640 q 113 741 110 703 q 124 820 117 779 q 142 895 131 861 q 168 951 153 929 q 204 972 183 972 q 231 960 221 972 q 245 929 240 947 q 251 892 250 911 q 253 861 253 874 q 251 821 253 850 q 246 754 250 792 q 235 676 242 717 q 217 601 228 635 q 189 546 206 568 q 150 524 172 524 z "},"":{"ha":499,"x_min":107,"x_max":433,"o":"m 210 972 q 237 958 229 972 q 249 929 244 944 q 253 869 253 908 q 251 824 253 856 q 247 755 250 793 q 236 676 243 717 q 218 601 229 635 q 192 545 207 567 q 156 524 176 524 q 129 536 139 524 q 115 567 119 549 q 108 603 110 585 q 107 635 107 622 q 108 675 107 646 q 114 742 110 704 q 125 820 118 779 q 143 894 132 861 q 171 950 154 928 q 210 972 188 972 m 390 972 q 417 958 410 972 q 429 929 425 944 q 433 869 433 908 q 432 824 433 856 q 427 755 431 793 q 417 676 424 717 q 399 601 410 635 q 372 545 388 567 q 336 524 357 524 q 310 536 319 524 q 295 567 300 549 q 289 603 290 585 q 288 635 288 622 q 289 675 288 646 q 294 742 290 704 q 306 820 299 779 q 324 894 313 861 q 351 950 335 928 q 390 972 368 972 z "},"":{"ha":317,"x_min":86,"x_max":232,"o":"m 129 524 q 102 538 110 524 q 90 567 94 551 q 86 626 86 588 q 88 672 86 640 q 92 741 89 703 q 103 820 96 779 q 121 895 110 861 q 147 951 132 929 q 183 972 163 972 q 210 960 200 972 q 224 929 219 947 q 231 892 229 911 q 232 861 232 874 q 231 821 232 850 q 225 754 229 792 q 214 676 221 717 q 196 601 207 635 q 168 546 185 568 q 129 524 151 524 z "},"":{"ha":315,"x_min":85,"x_max":231,"o":"m 188 972 q 215 958 207 972 q 226 929 222 944 q 231 869 231 908 q 229 824 231 856 q 224 755 228 793 q 214 676 221 717 q 196 601 207 635 q 169 545 185 567 q 133 524 154 524 q 107 536 117 524 q 92 567 97 549 q 86 603 88 585 q 85 635 85 622 q 86 675 85 646 q 92 742 88 704 q 103 820 96 779 q 121 894 110 861 q 149 950 132 928 q 188 972 165 972 z "},"+":{"ha":406,"x_min":28,"x_max":378,"o":"m 135 271 q 131 295 132 282 q 131 326 131 308 q 131 356 131 338 q 133 397 132 374 l 56 397 q 36 406 44 397 q 28 425 28 414 q 36 444 28 436 q 56 453 44 453 l 140 453 q 151 513 144 483 q 169 567 158 543 q 194 606 179 592 q 226 621 208 621 q 252 609 243 621 q 267 580 261 597 q 274 544 272 563 q 275 514 275 526 q 274 490 275 507 q 272 453 274 474 l 350 453 q 369 444 361 453 q 378 425 378 436 q 369 406 378 414 q 350 397 361 397 l 265 397 q 253 337 261 367 q 235 283 246 307 q 209 243 224 258 q 174 228 194 228 q 146 242 154 228 q 135 271 138 256 z "},"":{"ha":743,"x_min":64,"x_max":721,"o":"m 289 425 q 265 265 275 344 q 251 103 256 185 q 253 73 251 83 q 256 56 254 63 l 693 56 q 713 47 704 56 q 721 28 721 39 q 713 8 721 17 q 693 0 704 0 l 246 0 q 181 29 204 0 q 145 99 157 58 q 131 181 133 139 q 128 251 128 224 q 131 333 128 289 q 139 425 133 376 l 92 425 q 72 433 81 425 q 64 453 64 442 q 72 472 64 464 q 92 481 81 481 l 147 481 q 158 553 150 504 q 180 661 167 601 q 212 784 193 721 q 254 900 231 847 q 306 988 278 953 q 367 1026 333 1024 l 368 1026 q 485 1009 428 1026 q 587 958 542 992 q 659 874 632 924 q 686 758 686 824 q 678 739 686 747 q 658 731 669 731 q 639 739 647 731 q 631 758 631 747 q 613 840 631 803 q 564 906 596 878 q 488 950 532 933 q 390 969 444 967 q 374 891 385 943 q 351 778 364 839 q 328 654 339 717 q 308 544 317 592 q 303 512 306 528 q 297 481 300 496 l 525 481 q 544 472 536 481 q 553 453 553 464 q 544 433 553 442 q 525 425 536 425 l 289 425 z "},"/":{"ha":364,"x_min":32,"x_max":335,"o":"m 32 51 q 39 111 32 79 q 60 219 46 151 q 91 366 74 286 q 128 533 108 446 q 170 698 149 619 q 214 841 192 776 q 256 942 236 906 q 269 960 260 949 q 294 972 279 972 q 315 966 307 972 q 328 950 324 960 q 333 928 332 940 q 335 907 335 917 q 322 815 333 874 q 306 728 319 796 q 272 569 292 660 q 226 379 251 479 q 174 195 201 279 q 119 56 147 111 q 67 1 92 1 q 40 19 46 1 q 32 51 33 36 z "},"#":{"ha":678,"x_min":60,"x_max":618,"o":"m 129 43 q 125 103 125 64 q 130 183 125 117 q 144 340 135 249 l 88 340 q 68 349 76 340 q 60 368 60 357 q 68 388 60 379 q 88 396 76 396 l 150 396 q 160 484 156 439 q 172 574 165 529 l 88 574 q 68 582 76 574 q 60 601 60 590 q 68 621 60 613 q 88 629 76 629 l 181 629 q 202 760 190 699 q 226 870 214 822 q 252 946 239 918 q 279 974 265 974 q 312 953 303 974 q 324 915 321 933 q 327 866 326 899 q 328 793 328 833 q 325 731 328 774 q 315 629 322 688 l 403 629 q 424 760 413 699 q 449 870 436 822 q 474 946 461 918 q 501 974 488 974 q 534 953 525 974 q 546 915 543 933 q 549 866 549 899 q 550 793 550 833 q 547 731 550 774 q 538 629 544 688 l 590 629 q 610 621 601 629 q 618 601 618 613 q 610 582 618 590 q 590 574 601 574 l 532 574 q 522 487 528 532 q 510 396 517 442 l 590 396 q 610 388 601 396 q 618 368 618 379 q 610 349 618 357 q 590 340 601 340 l 501 340 q 479 212 492 274 q 452 103 467 150 q 422 28 438 56 q 390 0 407 0 q 363 14 371 0 q 351 43 356 28 q 347 103 347 64 q 352 183 347 117 q 367 340 357 249 l 279 340 q 257 212 269 274 q 230 103 244 150 q 200 28 215 56 q 168 0 185 0 q 141 14 149 0 q 129 43 133 28 m 372 396 q 383 484 378 439 q 394 574 388 529 l 310 574 q 300 487 306 532 q 288 396 294 442 l 372 396 z "},"%":{"ha":421,"x_min":60,"x_max":363,"o":"m 60 51 q 67 111 60 79 q 88 219 74 151 q 119 366 101 286 q 156 533 136 446 q 198 698 176 619 q 242 841 219 776 q 283 942 264 906 q 297 960 288 949 q 322 972 307 972 q 343 966 335 972 q 356 950 351 960 q 361 928 360 940 q 363 907 363 917 q 350 815 361 874 q 336 749 347 799 q 308 629 325 699 q 272 478 292 560 q 230 317 251 396 q 187 168 208 238 q 146 54 165 99 q 120 15 135 28 q 94 1 106 1 q 67 19 74 1 q 60 51 61 36 m 222 56 q 238 15 222 31 q 279 0 253 0 q 319 15 304 0 q 335 56 335 31 q 319 97 335 82 q 279 113 304 113 q 238 97 253 113 q 222 56 222 82 m 88 915 q 103 875 88 890 q 144 860 118 860 q 185 875 169 860 q 200 915 200 890 q 185 957 200 942 q 144 972 169 972 q 103 957 118 972 q 88 915 88 942 z "},"$":{"ha":833,"x_min":63,"x_max":746,"o":"m 539 1057 q 558 1049 550 1057 q 567 1029 567 1040 l 567 1022 q 700 967 654 1011 q 746 858 746 924 q 710 713 746 792 q 686 696 704 696 q 674 699 682 696 q 657 724 657 706 q 660 735 657 726 q 692 857 692 803 q 657 938 692 907 q 557 969 622 968 l 482 547 q 483 547 483 547 q 485 546 483 546 q 559 492 521 519 q 628 432 597 465 q 680 356 660 399 q 700 251 700 313 q 678 156 700 201 q 617 76 657 110 q 518 21 576 42 q 386 0 460 0 l 383 -15 q 356 -39 379 -39 q 336 -31 344 -39 q 328 -11 328 -22 q 329 -7 328 -8 l 331 3 q 214 35 264 10 q 130 101 164 61 q 79 193 96 142 q 63 304 63 244 q 71 324 63 315 q 90 332 79 332 q 110 324 101 332 q 118 304 118 315 q 138 193 118 240 q 188 115 157 146 q 259 70 219 85 q 340 56 299 56 l 406 429 q 404 430 404 429 q 403 431 404 431 q 327 491 367 460 q 255 562 288 522 q 201 651 222 601 q 179 763 179 700 q 202 863 179 815 q 268 947 225 911 q 372 1004 311 983 q 510 1025 433 1025 l 511 1031 l 511 1033 q 522 1051 514 1044 q 539 1057 529 1057 m 332 779 q 363 673 332 721 q 433 588 393 625 l 499 964 q 431 938 461 956 q 378 896 400 921 q 344 841 357 871 q 332 779 332 811 m 544 233 q 517 321 544 283 q 454 389 490 358 l 397 64 q 503 128 461 81 q 544 233 544 175 z "},"@":{"ha":1033,"x_min":90,"x_max":943,"o":"m 90 333 q 124 539 90 435 q 224 727 158 643 q 384 864 289 811 q 601 917 479 917 q 755 885 690 917 q 861 802 819 854 q 923 681 903 750 q 943 535 943 611 q 909 326 943 432 q 810 133 875 219 q 653 -8 746 47 q 444 -62 561 -62 q 286 -30 353 -62 q 176 57 219 3 q 111 183 132 111 q 90 333 90 254 m 236 300 q 250 181 236 238 q 293 83 264 125 q 367 17 322 42 q 474 -7 411 -7 q 619 28 553 -7 q 736 121 685 63 q 674 170 693 132 q 651 251 656 208 q 624 206 640 229 q 588 163 608 182 q 540 131 567 143 q 479 118 513 118 q 415 132 446 118 q 362 172 385 146 q 325 235 339 197 q 311 318 311 272 q 333 432 311 376 q 391 531 354 488 q 476 600 428 574 q 579 626 525 626 q 666 599 638 626 q 708 533 694 571 q 754 599 728 574 q 814 625 781 625 q 832 618 829 625 q 837 607 836 613 q 838 596 838 601 q 815 513 828 567 q 790 399 801 458 q 772 285 779 340 q 764 199 764 231 q 767 176 764 185 q 771 165 769 168 q 857 344 828 246 q 886 539 886 443 q 872 663 886 604 q 826 765 857 721 q 747 835 794 810 q 635 861 700 861 q 472 808 546 861 q 346 674 399 756 q 265 492 293 592 q 236 300 236 393 m 442 281 q 444 244 442 264 q 452 207 446 225 q 469 177 458 189 q 499 165 481 165 q 560 202 531 165 q 615 288 590 239 q 656 385 639 336 q 679 458 672 433 q 655 544 671 507 q 603 581 639 581 q 534 545 564 581 q 483 460 504 510 q 452 360 463 411 q 442 281 442 310 z "},"":{"ha":285,"x_min":50,"x_max":210,"o":"m 78 694 q 58 703 67 694 q 50 722 50 711 q 51 732 50 729 l 122 925 q 149 943 129 943 q 195 921 181 943 q 210 871 210 899 q 200 815 210 846 q 172 758 190 785 q 131 713 154 731 q 78 694 107 694 z "},"`":{"ha":285,"x_min":69,"x_max":229,"o":"m 201 694 q 149 713 172 694 q 107 758 125 731 q 79 815 89 785 q 69 871 69 846 q 83 921 69 899 q 129 943 97 943 q 156 925 149 943 l 226 732 q 229 722 229 726 q 221 703 229 711 q 201 694 213 694 z "},"":{"ha":404,"x_min":47,"x_max":303,"o":"m 200 939 q 243 925 224 940 q 276 887 263 910 q 296 838 289 864 q 303 792 303 813 q 299 758 303 775 q 286 726 294 740 q 264 703 278 713 q 231 694 250 694 q 212 701 219 694 q 203 718 204 708 l 186 842 l 97 721 q 75 710 89 710 q 56 718 64 710 q 47 738 47 726 q 53 753 47 747 l 182 931 q 200 939 189 939 z "},"":{"ha":400,"x_min":97,"x_max":353,"o":"m 200 694 q 157 710 176 694 q 124 747 138 725 q 104 795 111 769 q 97 842 97 821 q 113 908 97 876 q 169 939 129 939 q 188 933 181 939 q 197 915 196 926 l 214 792 l 301 913 q 325 924 308 924 q 344 915 336 924 q 353 896 353 907 q 347 881 353 889 l 218 703 q 200 694 213 694 z "},"":{"ha":493,"x_min":114,"x_max":379,"o":"m 114 750 q 129 792 114 776 q 171 807 144 807 q 211 792 196 807 q 226 750 226 776 q 211 710 226 725 q 171 694 196 694 q 129 710 144 694 q 114 750 114 725 m 267 750 q 282 792 267 776 q 324 807 297 807 q 364 792 349 807 q 379 750 379 776 q 364 710 379 725 q 324 694 349 694 q 282 710 297 694 q 267 750 267 725 z "},"":{"ha":393,"x_min":57,"x_max":338,"o":"m 190 -68 q 297 -109 257 -75 q 338 -193 338 -143 q 294 -277 338 -246 q 183 -308 250 -308 q 90 -283 122 -308 q 57 -212 57 -257 q 65 -193 57 -201 q 85 -185 72 -185 q 104 -193 96 -185 q 113 -212 113 -201 q 128 -242 113 -232 q 165 -253 143 -253 q 210 -236 194 -253 q 226 -192 226 -219 q 208 -141 226 -160 q 157 -122 189 -122 q 150 -124 153 -122 q 126 -111 135 -124 q 121 -96 121 -106 q 124 -85 121 -90 l 172 32 q 199 49 179 49 q 218 40 210 49 q 226 21 226 32 q 224 10 226 15 l 190 -68 z "},"":{"ha":468,"x_min":100,"x_max":368,"o":"m 219 694 q 133 725 167 694 q 100 806 100 756 q 104 838 100 819 q 117 874 108 857 q 138 901 125 890 q 167 913 150 913 q 197 898 189 913 q 206 864 206 883 q 204 833 206 849 q 203 803 203 818 q 213 765 203 779 q 242 750 222 750 q 293 784 274 750 q 313 872 313 818 q 316 900 313 888 q 339 913 319 913 q 363 901 358 913 q 368 874 368 889 q 328 744 368 793 q 219 694 289 694 z "},"":{"ha":303,"x_min":96,"x_max":208,"o":"m 96 750 q 111 792 96 776 q 153 807 126 807 q 193 792 178 807 q 208 750 208 776 q 193 710 208 725 q 153 694 178 694 q 111 710 126 694 q 96 750 96 725 z "},"":{"ha":431,"x_min":94,"x_max":338,"o":"m 94 783 q 131 867 94 836 q 231 899 168 899 q 308 873 279 899 q 338 807 338 847 q 301 718 338 751 q 207 685 265 685 q 126 712 157 685 q 94 783 94 739 m 189 776 q 221 740 189 740 q 265 758 249 740 q 281 807 281 776 q 271 833 281 822 q 244 843 261 843 q 204 825 219 843 q 189 776 189 807 z "},"":{"ha":396,"x_min":65,"x_max":331,"o":"m 189 -329 q 101 -300 136 -329 q 65 -221 65 -271 q 83 -147 65 -186 q 126 -72 100 -108 q 185 -5 153 -35 q 246 42 217 25 q 260 46 253 46 q 279 38 271 46 q 288 18 288 29 q 279 -1 288 6 q 241 -49 260 -21 q 207 -108 222 -76 q 183 -171 192 -139 q 174 -229 174 -203 q 206 -274 174 -274 q 248 -258 226 -274 q 276 -214 269 -242 q 304 -194 283 -194 q 327 -206 324 -194 q 331 -231 331 -218 q 279 -302 317 -275 q 189 -329 242 -329 z "},"":{"ha":524,"x_min":104,"x_max":419,"o":"m 313 694 q 263 701 286 694 q 215 718 239 708 q 188 727 204 721 q 160 733 171 733 q 153 710 157 721 q 132 700 150 700 q 113 708 121 700 q 104 728 104 715 q 138 794 104 775 q 214 814 171 814 q 271 808 243 814 q 326 792 299 801 q 346 785 335 789 q 364 781 357 782 q 369 806 365 794 q 392 817 374 817 q 411 808 403 817 q 419 788 419 800 q 388 717 419 740 q 313 694 357 694 z "},"":{"ha":501,"x_min":83,"x_max":403,"o":"m 111 694 q 92 703 100 694 q 83 722 83 711 q 85 732 83 729 l 156 925 q 182 943 163 943 q 228 921 214 943 q 243 871 243 899 q 233 815 243 846 q 206 758 224 785 q 164 713 188 731 q 111 694 140 694 m 271 694 q 252 703 260 694 q 244 722 244 711 q 246 732 244 729 l 317 925 q 343 943 324 943 q 389 921 375 943 q 403 871 403 899 q 393 815 403 846 q 366 758 383 785 q 324 713 349 731 q 271 694 300 694 z "},"":{"ha":519,"x_min":-185,"x_max":585,"o":"m -50 -297 q -58 -317 -50 -308 q -78 -325 -67 -325 q -148 -267 -124 -325 q -178 -114 -172 -208 q -176 102 -185 -19 q -147 350 -167 224 q -98 598 -126 476 q -37 814 -69 719 q 30 967 -4 908 q 96 1025 64 1025 q 115 1017 107 1025 q 124 999 124 1010 q 122 992 124 993 q 108 919 118 969 q 85 801 99 869 q 57 649 72 732 q 26 476 42 565 q 59 523 40 500 q 101 563 78 546 q 151 592 124 581 q 213 603 179 603 q 289 586 253 603 q 352 539 325 569 q 395 465 379 508 q 411 365 411 421 q 371 199 411 276 q 466 267 428 224 q 524 368 504 310 q 553 390 532 390 q 575 382 565 390 q 581 360 585 374 q 494 213 551 271 q 346 129 438 156 q 335 126 340 128 q 325 124 331 125 q 220 34 281 68 q 93 0 160 0 q 10 19 42 0 q -40 68 -21 39 q -56 -48 -49 7 q -66 -147 -62 -103 q -70 -222 -69 -190 q -67 -271 -71 -254 q -50 -297 -50 -278 m -15 232 l -19 211 q -18 210 -18 211 q -17 210 -18 210 q 26 190 -1 199 q 83 176 53 182 q 142 168 113 171 q 193 165 172 165 q 196 171 193 168 q 240 289 224 225 q 257 410 257 353 q 254 453 257 429 q 244 497 251 476 q 224 533 238 518 q 189 547 210 547 q 122 513 154 547 q 64 428 90 478 q 17 324 38 378 q -15 232 -4 269 m 157 111 q 60 124 104 114 q -14 146 17 133 q 15 81 -3 107 q 65 56 32 56 q 157 111 113 56 z "},"":{"ha":690,"x_min":-26,"x_max":756,"o":"m 292 603 q 394 570 360 603 q 444 493 429 538 q 499 571 468 540 q 569 601 529 601 q 592 592 586 601 q 597 580 596 586 q 597 567 597 574 q 579 506 589 543 q 560 426 569 469 q 541 334 550 382 q 525 242 532 286 q 514 159 518 197 q 510 96 510 121 q 511 70 510 79 q 514 57 513 61 q 574 104 546 65 q 625 192 601 143 q 667 290 649 242 q 694 368 685 339 q 724 390 703 390 q 746 382 736 390 q 751 360 756 374 q 719 271 736 315 q 683 182 703 226 q 655 126 672 157 q 615 67 638 94 q 566 19 593 39 q 507 0 539 0 q 450 14 474 0 q 411 51 426 28 q 388 101 396 74 q 376 158 379 129 q 345 103 364 132 q 301 52 326 75 q 244 15 276 29 q 172 0 213 0 q 96 17 132 0 q 33 64 60 33 q -10 138 6 94 q -26 238 -26 182 q -1 373 -26 307 q 69 490 25 439 q 170 572 113 542 q 292 603 228 603 m 128 193 q 131 150 128 174 q 140 106 133 126 q 161 70 147 85 q 196 56 175 56 q 247 76 222 56 q 292 128 271 96 q 333 201 314 161 q 368 279 353 240 q 394 351 383 318 q 410 403 404 383 q 399 458 406 432 q 381 503 392 483 q 356 535 371 524 q 319 547 342 547 q 263 528 289 547 q 215 476 236 508 q 177 406 193 444 q 150 327 161 367 q 133 252 139 288 q 128 193 128 217 m 319 657 q 311 638 319 646 q 292 629 303 629 q 239 647 263 629 q 197 692 215 665 q 169 750 179 719 q 160 806 160 781 q 174 856 160 833 q 219 878 188 878 q 246 860 239 878 l 317 667 q 319 657 319 661 z "},"":{"ha":690,"x_min":-26,"x_max":756,"o":"m 292 603 q 394 570 360 603 q 444 493 429 538 q 499 571 468 540 q 569 601 529 601 q 592 592 586 601 q 597 580 596 586 q 597 567 597 574 q 579 506 589 543 q 560 426 569 469 q 541 334 550 382 q 525 242 532 286 q 514 159 518 197 q 510 96 510 121 q 511 70 510 79 q 514 57 513 61 q 574 104 546 65 q 625 192 601 143 q 667 290 649 242 q 694 368 685 339 q 724 390 703 390 q 746 382 736 390 q 751 360 756 374 q 719 271 736 315 q 683 182 703 226 q 655 126 672 157 q 615 67 638 94 q 566 19 593 39 q 507 0 539 0 q 450 14 474 0 q 411 51 426 28 q 388 101 396 74 q 376 158 379 129 q 345 103 364 132 q 301 52 326 75 q 244 15 276 29 q 172 0 213 0 q 96 17 132 0 q 33 64 60 33 q -10 138 6 94 q -26 238 -26 182 q -1 373 -26 307 q 69 490 25 439 q 170 572 113 542 q 292 603 228 603 m 128 193 q 131 150 128 174 q 140 106 133 126 q 161 70 147 85 q 196 56 175 56 q 247 76 222 56 q 292 128 271 96 q 333 201 314 161 q 368 279 353 240 q 394 351 383 318 q 410 403 404 383 q 399 458 406 432 q 381 503 392 483 q 356 535 371 524 q 319 547 342 547 q 263 528 289 547 q 215 476 236 508 q 177 406 193 444 q 150 327 161 367 q 133 252 139 288 q 128 193 128 217 m 425 806 q 415 750 425 781 q 388 692 406 719 q 346 647 369 665 q 293 629 322 629 q 274 638 282 629 q 265 657 265 646 q 267 667 265 664 l 338 860 q 364 878 344 878 q 410 856 396 878 q 425 806 425 833 z "},"":{"ha":690,"x_min":-26,"x_max":756,"o":"m 292 603 q 394 570 360 603 q 444 493 429 538 q 499 571 468 540 q 569 601 529 601 q 592 592 586 601 q 597 580 596 586 q 597 567 597 574 q 579 506 589 543 q 560 426 569 469 q 541 334 550 382 q 525 242 532 286 q 514 159 518 197 q 510 96 510 121 q 511 70 510 79 q 514 57 513 61 q 574 104 546 65 q 625 192 601 143 q 667 290 649 242 q 694 368 685 339 q 724 390 703 390 q 746 382 736 390 q 751 360 756 374 q 719 271 736 315 q 683 182 703 226 q 655 126 672 157 q 615 67 638 94 q 566 19 593 39 q 507 0 539 0 q 450 14 474 0 q 411 51 426 28 q 388 101 396 74 q 376 158 379 129 q 345 103 364 132 q 301 52 326 75 q 244 15 276 29 q 172 0 213 0 q 96 17 132 0 q 33 64 60 33 q -10 138 6 94 q -26 238 -26 182 q -1 373 -26 307 q 69 490 25 439 q 170 572 113 542 q 292 603 228 603 m 128 193 q 131 150 128 174 q 140 106 133 126 q 161 70 147 85 q 196 56 175 56 q 247 76 222 56 q 292 128 271 96 q 333 201 314 161 q 368 279 353 240 q 394 351 383 318 q 410 403 404 383 q 399 458 406 432 q 381 503 392 483 q 356 535 371 524 q 319 547 342 547 q 263 528 289 547 q 215 476 236 508 q 177 406 193 444 q 150 327 161 367 q 133 252 139 288 q 128 193 128 217 m 319 865 q 338 874 326 874 q 381 860 361 875 q 413 822 400 844 q 433 773 426 799 q 440 726 440 747 q 436 692 440 710 q 424 661 432 675 q 401 638 415 647 q 368 629 388 629 q 349 636 357 629 q 340 653 342 643 l 324 776 l 235 656 q 213 644 226 644 q 193 653 201 644 q 185 672 185 661 q 190 688 185 682 l 319 865 z "},"":{"ha":690,"x_min":-26,"x_max":756,"o":"m 292 603 q 394 570 360 603 q 444 493 429 538 q 499 571 468 540 q 569 601 529 601 q 592 592 586 601 q 597 580 596 586 q 597 567 597 574 q 579 506 589 543 q 560 426 569 469 q 541 334 550 382 q 525 242 532 286 q 514 159 518 197 q 510 96 510 121 q 511 70 510 79 q 514 57 513 61 q 574 104 546 65 q 625 192 601 143 q 667 290 649 242 q 694 368 685 339 q 724 390 703 390 q 746 382 736 390 q 751 360 756 374 q 719 271 736 315 q 683 182 703 226 q 655 126 672 157 q 615 67 638 94 q 566 19 593 39 q 507 0 539 0 q 450 14 474 0 q 411 51 426 28 q 388 101 396 74 q 376 158 379 129 q 345 103 364 132 q 301 52 326 75 q 244 15 276 29 q 172 0 213 0 q 96 17 132 0 q 33 64 60 33 q -10 138 6 94 q -26 238 -26 182 q -1 373 -26 307 q 69 490 25 439 q 170 572 113 542 q 292 603 228 603 m 128 193 q 131 150 128 174 q 140 106 133 126 q 161 70 147 85 q 196 56 175 56 q 247 76 222 56 q 292 128 271 96 q 333 201 314 161 q 368 279 353 240 q 394 351 383 318 q 410 403 404 383 q 399 458 406 432 q 381 503 392 483 q 356 535 371 524 q 319 547 342 547 q 263 528 289 547 q 215 476 236 508 q 177 406 193 444 q 150 327 161 367 q 133 252 139 288 q 128 193 128 217 m 450 722 q 419 652 450 675 q 343 629 388 629 q 293 636 317 629 q 246 653 269 643 q 218 662 235 656 q 190 668 201 668 q 184 645 188 656 q 163 635 181 635 q 143 642 151 635 q 135 663 135 650 q 168 729 135 710 q 244 749 201 749 q 301 742 274 749 q 357 726 329 736 q 376 720 365 724 q 394 715 388 717 q 400 740 396 729 q 422 751 404 751 q 442 743 433 751 q 450 722 450 735 z "},"":{"ha":690,"x_min":-26,"x_max":756,"o":"m 292 603 q 394 570 360 603 q 444 493 429 538 q 499 571 468 540 q 569 601 529 601 q 592 592 586 601 q 597 580 596 586 q 597 567 597 574 q 579 506 589 543 q 560 426 569 469 q 541 334 550 382 q 525 242 532 286 q 514 159 518 197 q 510 96 510 121 q 511 70 510 79 q 514 57 513 61 q 574 104 546 65 q 625 192 601 143 q 667 290 649 242 q 694 368 685 339 q 724 390 703 390 q 746 382 736 390 q 751 360 756 374 q 719 271 736 315 q 683 182 703 226 q 655 126 672 157 q 615 67 638 94 q 566 19 593 39 q 507 0 539 0 q 450 14 474 0 q 411 51 426 28 q 388 101 396 74 q 376 158 379 129 q 345 103 364 132 q 301 52 326 75 q 244 15 276 29 q 172 0 213 0 q 96 17 132 0 q 33 64 60 33 q -10 138 6 94 q -26 238 -26 182 q -1 373 -26 307 q 69 490 25 439 q 170 572 113 542 q 292 603 228 603 m 128 193 q 131 150 128 174 q 140 106 133 126 q 161 70 147 85 q 196 56 175 56 q 247 76 222 56 q 292 128 271 96 q 333 201 314 161 q 368 279 353 240 q 394 351 383 318 q 410 403 404 383 q 399 458 406 432 q 381 503 392 483 q 356 535 371 524 q 319 547 342 547 q 263 528 289 547 q 215 476 236 508 q 177 406 193 444 q 150 327 161 367 q 133 252 139 288 q 128 193 128 217 m 369 629 q 328 644 343 629 q 313 685 313 660 q 328 726 313 711 q 369 742 343 742 q 410 726 394 742 q 425 685 425 711 q 410 644 425 660 q 369 629 394 629 m 217 629 q 175 644 190 629 q 160 685 160 660 q 175 726 160 711 q 217 742 190 742 q 257 726 242 742 q 272 685 272 711 q 257 644 272 660 q 217 629 242 629 z "},"":{"ha":690,"x_min":-26,"x_max":756,"o":"m 292 603 q 394 570 360 603 q 444 493 429 538 q 499 571 468 540 q 569 601 529 601 q 592 592 586 601 q 597 580 596 586 q 597 567 597 574 q 579 506 589 543 q 560 426 569 469 q 541 334 550 382 q 525 242 532 286 q 514 159 518 197 q 510 96 510 121 q 511 70 510 79 q 514 57 513 61 q 574 104 546 65 q 625 192 601 143 q 667 290 649 242 q 694 368 685 339 q 724 390 703 390 q 746 382 736 390 q 751 360 756 374 q 719 271 736 315 q 683 182 703 226 q 655 126 672 157 q 615 67 638 94 q 566 19 593 39 q 507 0 539 0 q 450 14 474 0 q 411 51 426 28 q 388 101 396 74 q 376 158 379 129 q 345 103 364 132 q 301 52 326 75 q 244 15 276 29 q 172 0 213 0 q 96 17 132 0 q 33 64 60 33 q -10 138 6 94 q -26 238 -26 182 q -1 373 -26 307 q 69 490 25 439 q 170 572 113 542 q 292 603 228 603 m 128 193 q 131 150 128 174 q 140 106 133 126 q 161 70 147 85 q 196 56 175 56 q 247 76 222 56 q 292 128 271 96 q 333 201 314 161 q 368 279 353 240 q 394 351 383 318 q 410 403 404 383 q 399 458 406 432 q 381 503 392 483 q 356 535 371 524 q 319 547 342 547 q 263 528 289 547 q 215 476 236 508 q 177 406 193 444 q 150 327 161 367 q 133 252 139 288 q 128 193 128 217 m 283 619 q 202 647 233 619 q 171 718 171 674 q 208 802 171 771 q 307 833 244 833 q 385 808 356 833 q 414 742 414 782 q 378 653 414 686 q 283 619 342 619 m 321 778 q 281 760 296 778 q 265 711 265 742 q 297 675 265 675 q 341 693 325 675 q 357 742 357 711 q 347 767 357 757 q 321 778 338 778 z "},"":{"ha":515,"x_min":-25,"x_max":581,"o":"m 204 0 q 110 17 153 0 q 38 64 68 33 q -8 138 8 94 q -25 236 -25 182 q 1 372 -25 307 q 74 489 28 438 q 179 571 119 540 q 306 601 239 601 q 401 574 368 601 q 433 497 433 547 q 407 400 433 451 q 335 306 381 349 q 244 243 294 268 q 132 215 193 218 q 131 210 132 213 q 131 204 131 207 q 131 200 131 201 q 133 153 131 178 q 147 106 136 128 q 176 70 157 85 q 228 56 196 56 q 330 92 281 56 q 417 179 379 129 q 461 244 442 211 q 493 305 481 278 q 513 350 506 332 q 519 368 519 368 q 549 390 526 390 q 571 382 561 390 q 576 360 581 374 q 522 235 556 299 q 441 119 488 171 q 335 33 394 67 q 204 0 276 0 m 378 496 q 329 546 378 546 q 255 515 288 546 q 198 440 222 483 q 158 349 174 396 q 138 271 143 301 q 219 295 176 275 q 297 346 261 315 q 355 415 332 376 q 378 496 378 454 m 306 629 q 253 647 276 629 q 211 692 229 665 q 183 750 193 719 q 174 806 174 781 q 188 856 174 833 q 233 878 201 878 q 260 860 253 878 l 331 667 q 333 657 333 661 q 325 638 333 646 q 306 629 317 629 z "},"":{"ha":515,"x_min":-25,"x_max":581,"o":"m 204 0 q 110 17 153 0 q 38 64 68 33 q -8 138 8 94 q -25 236 -25 182 q 1 372 -25 307 q 74 489 28 438 q 179 571 119 540 q 306 601 239 601 q 401 574 368 601 q 433 497 433 547 q 407 400 433 451 q 335 306 381 349 q 244 243 294 268 q 132 215 193 218 q 131 210 132 213 q 131 204 131 207 q 131 200 131 201 q 133 153 131 178 q 147 106 136 128 q 176 70 157 85 q 228 56 196 56 q 330 92 281 56 q 417 179 379 129 q 461 244 442 211 q 493 305 481 278 q 513 350 506 332 q 519 368 519 368 q 549 390 526 390 q 571 382 561 390 q 576 360 581 374 q 522 235 556 299 q 441 119 488 171 q 335 33 394 67 q 204 0 276 0 m 378 496 q 329 546 378 546 q 255 515 288 546 q 198 440 222 483 q 158 349 174 396 q 138 271 143 301 q 219 295 176 275 q 297 346 261 315 q 355 415 332 376 q 378 496 378 454 m 307 629 q 288 638 296 629 q 279 657 279 646 q 281 667 279 664 l 351 860 q 378 878 358 878 q 424 856 410 878 q 439 806 439 833 q 429 750 439 781 q 401 692 419 719 q 360 647 383 665 q 307 629 336 629 z "},"":{"ha":515,"x_min":-25,"x_max":581,"o":"m 204 0 q 110 17 153 0 q 38 64 68 33 q -8 138 8 94 q -25 236 -25 182 q 1 372 -25 307 q 74 489 28 438 q 179 571 119 540 q 306 601 239 601 q 401 574 368 601 q 433 497 433 547 q 407 400 433 451 q 335 306 381 349 q 244 243 294 268 q 132 215 193 218 q 131 210 132 213 q 131 204 131 207 q 131 200 131 201 q 133 153 131 178 q 147 106 136 128 q 176 70 157 85 q 228 56 196 56 q 330 92 281 56 q 417 179 379 129 q 461 244 442 211 q 493 305 481 278 q 513 350 506 332 q 519 368 519 368 q 549 390 526 390 q 571 382 561 390 q 576 360 581 374 q 522 235 556 299 q 441 119 488 171 q 335 33 394 67 q 204 0 276 0 m 378 496 q 329 546 378 546 q 255 515 288 546 q 198 440 222 483 q 158 349 174 396 q 138 271 143 301 q 219 295 176 275 q 297 346 261 315 q 355 415 332 376 q 378 496 378 454 m 351 874 q 394 860 375 875 q 427 822 414 844 q 447 773 440 799 q 454 726 454 747 q 450 692 454 710 q 438 661 446 675 q 415 638 429 647 q 382 629 401 629 q 363 636 371 629 q 354 653 356 643 l 338 776 l 249 656 q 226 644 240 644 q 207 653 215 644 q 199 672 199 661 q 204 688 199 682 l 333 865 q 351 874 340 874 z "},"":{"ha":515,"x_min":-25,"x_max":581,"o":"m 204 0 q 110 17 153 0 q 38 64 68 33 q -8 138 8 94 q -25 236 -25 182 q 1 372 -25 307 q 74 489 28 438 q 179 571 119 540 q 306 601 239 601 q 401 574 368 601 q 433 497 433 547 q 407 400 433 451 q 335 306 381 349 q 244 243 294 268 q 132 215 193 218 q 131 210 132 213 q 131 204 131 207 q 131 200 131 201 q 133 153 131 178 q 147 106 136 128 q 176 70 157 85 q 228 56 196 56 q 330 92 281 56 q 417 179 379 129 q 461 244 442 211 q 493 305 481 278 q 513 350 506 332 q 519 368 519 368 q 549 390 526 390 q 571 382 561 390 q 576 360 581 374 q 522 235 556 299 q 441 119 488 171 q 335 33 394 67 q 204 0 276 0 m 378 496 q 329 546 378 546 q 255 515 288 546 q 198 440 222 483 q 158 349 174 396 q 138 271 143 301 q 219 295 176 275 q 297 346 261 315 q 355 415 332 376 q 378 496 378 454 m 174 685 q 189 726 174 711 q 231 742 204 742 q 271 726 256 742 q 286 685 286 711 q 271 644 286 660 q 231 629 256 629 q 189 644 204 629 q 174 685 174 660 m 326 685 q 342 726 326 711 q 383 742 357 742 q 424 726 408 742 q 439 685 439 711 q 424 644 439 660 q 383 629 408 629 q 342 644 357 629 q 326 685 326 660 z "},"":{"ha":660,"x_min":-19,"x_max":725,"o":"m 347 151 q 165 0 267 0 q 79 20 114 0 q 22 73 44 40 q -10 148 0 106 q -19 235 -19 190 q -14 300 -19 263 q 3 378 -8 338 q 31 459 14 419 q 70 531 47 499 q 122 582 93 563 q 186 601 151 601 q 206 593 197 601 q 214 574 214 585 q 211 564 214 569 q 205 547 211 564 q 188 500 199 529 q 166 432 178 471 q 143 351 154 393 q 119 235 125 283 q 113 156 113 188 q 114 124 113 142 q 120 92 115 107 q 136 66 125 76 q 165 56 147 56 q 233 88 201 56 q 290 163 264 119 q 334 255 315 207 q 363 333 353 303 q 388 427 372 379 q 426 513 404 475 q 476 576 447 551 q 539 601 504 601 q 561 592 556 601 q 566 580 565 586 q 567 567 567 574 q 549 506 558 543 q 529 426 539 469 q 510 334 519 382 q 494 242 501 286 q 483 159 488 197 q 479 96 479 121 q 481 70 479 79 q 483 57 482 61 q 543 104 515 65 q 594 192 571 143 q 636 290 618 242 q 664 368 654 339 q 693 390 672 390 q 715 382 706 390 q 721 360 725 374 q 689 271 706 315 q 653 182 672 226 q 624 126 642 157 q 585 67 607 94 q 535 19 563 39 q 476 0 508 0 q 422 13 444 0 q 383 48 399 26 q 360 97 368 69 q 347 151 351 124 m 382 657 q 374 638 382 646 q 354 629 365 629 q 301 647 325 629 q 260 692 278 665 q 232 750 242 719 q 222 806 222 781 q 236 856 222 833 q 282 878 250 878 q 308 860 301 878 l 379 667 q 382 657 382 661 z "},"":{"ha":660,"x_min":-19,"x_max":725,"o":"m 347 151 q 165 0 267 0 q 79 20 114 0 q 22 73 44 40 q -10 148 0 106 q -19 235 -19 190 q -14 300 -19 263 q 3 378 -8 338 q 31 459 14 419 q 70 531 47 499 q 122 582 93 563 q 186 601 151 601 q 206 593 197 601 q 214 574 214 585 q 211 564 214 569 q 205 547 211 564 q 188 500 199 529 q 166 432 178 471 q 143 351 154 393 q 119 235 125 283 q 113 156 113 188 q 114 124 113 142 q 120 92 115 107 q 136 66 125 76 q 165 56 147 56 q 233 88 201 56 q 290 163 264 119 q 334 255 315 207 q 363 333 353 303 q 388 427 372 379 q 426 513 404 475 q 476 576 447 551 q 539 601 504 601 q 561 592 556 601 q 566 580 565 586 q 567 567 567 574 q 549 506 558 543 q 529 426 539 469 q 510 334 519 382 q 494 242 501 286 q 483 159 488 197 q 479 96 479 121 q 481 70 479 79 q 483 57 482 61 q 543 104 515 65 q 594 192 571 143 q 636 290 618 242 q 664 368 654 339 q 693 390 672 390 q 715 382 706 390 q 721 360 725 374 q 689 271 706 315 q 653 182 672 226 q 624 126 642 157 q 585 67 607 94 q 535 19 563 39 q 476 0 508 0 q 422 13 444 0 q 383 48 399 26 q 360 97 368 69 q 347 151 351 124 m 488 806 q 478 750 488 781 q 450 692 468 719 q 408 647 432 665 q 356 629 385 629 q 336 638 344 629 q 328 657 328 646 q 329 667 328 664 l 400 860 q 426 878 407 878 q 473 856 458 878 q 488 806 488 833 z "},"":{"ha":660,"x_min":-19,"x_max":725,"o":"m 347 151 q 165 0 267 0 q 79 20 114 0 q 22 73 44 40 q -10 148 0 106 q -19 235 -19 190 q -14 300 -19 263 q 3 378 -8 338 q 31 459 14 419 q 70 531 47 499 q 122 582 93 563 q 186 601 151 601 q 206 593 197 601 q 214 574 214 585 q 211 564 214 569 q 205 547 211 564 q 188 500 199 529 q 166 432 178 471 q 143 351 154 393 q 119 235 125 283 q 113 156 113 188 q 114 124 113 142 q 120 92 115 107 q 136 66 125 76 q 165 56 147 56 q 233 88 201 56 q 290 163 264 119 q 334 255 315 207 q 363 333 353 303 q 388 427 372 379 q 426 513 404 475 q 476 576 447 551 q 539 601 504 601 q 561 592 556 601 q 566 580 565 586 q 567 567 567 574 q 549 506 558 543 q 529 426 539 469 q 510 334 519 382 q 494 242 501 286 q 483 159 488 197 q 479 96 479 121 q 481 70 479 79 q 483 57 482 61 q 543 104 515 65 q 594 192 571 143 q 636 290 618 242 q 664 368 654 339 q 693 390 672 390 q 715 382 706 390 q 721 360 725 374 q 689 271 706 315 q 653 182 672 226 q 624 126 642 157 q 585 67 607 94 q 535 19 563 39 q 476 0 508 0 q 422 13 444 0 q 383 48 399 26 q 360 97 368 69 q 347 151 351 124 m 382 865 q 400 874 389 874 q 443 860 424 875 q 476 822 463 844 q 496 773 489 799 q 503 726 503 747 q 499 692 503 710 q 486 661 494 675 q 464 638 478 647 q 431 629 450 629 q 412 636 419 629 q 403 653 404 643 l 386 776 l 297 656 q 275 644 289 644 q 256 653 264 644 q 247 672 247 661 q 253 688 247 682 l 382 865 z "},"":{"ha":660,"x_min":-19,"x_max":725,"o":"m 347 151 q 165 0 267 0 q 79 20 114 0 q 22 73 44 40 q -10 148 0 106 q -19 235 -19 190 q -14 300 -19 263 q 3 378 -8 338 q 31 459 14 419 q 70 531 47 499 q 122 582 93 563 q 186 601 151 601 q 206 593 197 601 q 214 574 214 585 q 211 564 214 569 q 205 547 211 564 q 188 500 199 529 q 166 432 178 471 q 143 351 154 393 q 119 235 125 283 q 113 156 113 188 q 114 124 113 142 q 120 92 115 107 q 136 66 125 76 q 165 56 147 56 q 233 88 201 56 q 290 163 264 119 q 334 255 315 207 q 363 333 353 303 q 388 427 372 379 q 426 513 404 475 q 476 576 447 551 q 539 601 504 601 q 561 592 556 601 q 566 580 565 586 q 567 567 567 574 q 549 506 558 543 q 529 426 539 469 q 510 334 519 382 q 494 242 501 286 q 483 159 488 197 q 479 96 479 121 q 481 70 479 79 q 483 57 482 61 q 543 104 515 65 q 594 192 571 143 q 636 290 618 242 q 664 368 654 339 q 693 390 672 390 q 715 382 706 390 q 721 360 725 374 q 689 271 706 315 q 653 182 672 226 q 624 126 642 157 q 585 67 607 94 q 535 19 563 39 q 476 0 508 0 q 422 13 444 0 q 383 48 399 26 q 360 97 368 69 q 347 151 351 124 m 432 629 q 390 644 406 629 q 375 685 375 660 q 390 726 375 711 q 432 742 406 742 q 472 726 457 742 q 488 685 488 711 q 472 644 488 660 q 432 629 457 629 m 279 629 q 238 644 253 629 q 222 685 222 660 q 238 726 222 711 q 279 742 253 742 q 319 726 304 742 q 335 685 335 711 q 319 644 335 660 q 279 629 304 629 z "},"":{"ha":639,"x_min":-11,"x_max":704,"o":"m 194 601 q 214 594 206 601 q 222 574 222 586 q 219 563 222 571 q 185 481 203 526 q 153 386 168 435 q 130 290 139 338 q 121 203 121 243 q 122 176 121 190 q 130 149 124 161 q 147 128 136 136 q 178 121 158 121 q 253 153 218 121 q 317 232 289 186 q 364 327 344 278 q 393 410 383 376 q 400 527 399 482 q 401 574 401 572 q 410 593 403 585 q 429 601 418 601 q 467 585 451 601 q 494 544 483 569 q 510 489 504 519 q 519 428 515 458 q 523 373 522 399 q 524 332 524 347 q 522 270 524 303 q 517 203 519 238 q 593 278 558 236 q 643 368 628 319 q 672 390 651 390 q 694 382 685 390 q 700 360 704 374 q 623 224 672 276 q 506 131 574 172 q 463 -33 492 49 q 390 -180 435 -115 q 281 -285 344 -244 q 132 -325 218 -325 q 40 -292 75 -325 q 6 -203 6 -258 q 33 -101 6 -144 q 101 -25 60 -57 q 192 31 143 7 q 286 76 242 56 q 357 110 319 92 q 360 128 358 119 q 363 143 361 136 q 368 183 365 163 q 374 222 371 203 q 338 166 358 194 q 290 115 317 138 q 231 79 264 93 q 160 65 199 65 q 86 81 118 65 q 33 126 54 97 q 0 192 11 154 q -11 275 -11 231 q 5 388 -11 329 q 49 493 21 446 q 114 571 76 540 q 194 601 151 601 m 310 26 q 231 -12 275 8 q 150 -58 188 -32 q 87 -119 113 -85 q 61 -201 61 -154 q 80 -251 61 -233 q 132 -269 99 -269 q 206 -240 174 -269 q 265 -164 239 -210 q 310 -63 292 -118 q 342 43 329 -8 q 326 35 333 39 q 310 26 318 31 m 290 657 q 292 667 290 664 l 363 860 q 389 878 369 878 q 435 856 421 878 q 450 806 450 833 q 440 750 450 781 q 413 692 431 719 q 371 647 394 665 q 318 629 347 629 q 299 638 307 629 q 290 657 290 646 z "},"":{"ha":639,"x_min":-11,"x_max":704,"o":"m 194 601 q 214 594 206 601 q 222 574 222 586 q 219 563 222 571 q 185 481 203 526 q 153 386 168 435 q 130 290 139 338 q 121 203 121 243 q 122 176 121 190 q 130 149 124 161 q 147 128 136 136 q 178 121 158 121 q 253 153 218 121 q 317 232 289 186 q 364 327 344 278 q 393 410 383 376 q 400 527 399 482 q 401 574 401 572 q 410 593 403 585 q 429 601 418 601 q 467 585 451 601 q 494 544 483 569 q 510 489 504 519 q 519 428 515 458 q 523 373 522 399 q 524 332 524 347 q 522 270 524 303 q 517 203 519 238 q 593 278 558 236 q 643 368 628 319 q 672 390 651 390 q 694 382 685 390 q 700 360 704 374 q 623 224 672 276 q 506 131 574 172 q 463 -33 492 49 q 390 -180 435 -115 q 281 -285 344 -244 q 132 -325 218 -325 q 40 -292 75 -325 q 6 -203 6 -258 q 33 -101 6 -144 q 101 -25 60 -57 q 192 31 143 7 q 286 76 242 56 q 357 110 319 92 q 360 128 358 119 q 363 143 361 136 q 368 183 365 163 q 374 222 371 203 q 338 166 358 194 q 290 115 317 138 q 231 79 264 93 q 160 65 199 65 q 86 81 118 65 q 33 126 54 97 q 0 192 11 154 q -11 275 -11 231 q 5 388 -11 329 q 49 493 21 446 q 114 571 76 540 q 194 601 151 601 m 310 26 q 231 -12 275 8 q 150 -58 188 -32 q 87 -119 113 -85 q 61 -201 61 -154 q 80 -251 61 -233 q 132 -269 99 -269 q 206 -240 174 -269 q 265 -164 239 -210 q 310 -63 292 -118 q 342 43 329 -8 q 326 35 333 39 q 310 26 318 31 m 394 742 q 435 726 419 742 q 450 685 450 711 q 435 644 450 660 q 394 629 419 629 q 353 644 368 629 q 338 685 338 660 q 353 726 338 711 q 394 742 368 742 m 242 742 q 282 726 267 742 q 297 685 297 711 q 282 644 297 660 q 242 629 267 629 q 200 644 215 629 q 185 685 185 660 q 200 726 185 711 q 242 742 215 742 z "},"":{"ha":653,"x_min":-26,"x_max":718,"o":"m -26 199 q -22 262 -26 222 q -6 346 -17 301 q 21 436 6 390 q 58 519 36 482 q 108 578 81 556 q 168 601 135 601 q 190 592 185 601 q 195 580 194 586 q 196 567 196 574 q 174 488 186 538 q 150 380 163 438 q 128 264 138 322 q 113 160 118 206 q 136 241 122 194 q 169 337 150 288 q 211 435 188 386 q 264 521 235 483 q 328 582 293 558 q 403 606 363 606 q 502 551 465 606 q 539 404 539 496 q 526 284 539 346 q 499 161 514 222 q 488 109 492 136 q 476 57 483 82 q 536 104 508 65 q 588 192 564 143 q 629 290 611 242 q 657 368 647 339 q 686 390 665 390 q 708 382 699 390 q 714 360 718 374 q 682 271 699 315 q 646 182 665 226 q 617 126 635 157 q 578 67 600 94 q 528 19 556 39 q 469 0 501 0 q 418 11 439 0 q 383 41 397 22 q 363 85 369 60 q 357 139 357 111 q 365 220 357 175 q 381 314 372 265 q 397 397 389 354 q 404 481 404 439 q 399 527 404 504 q 372 550 393 550 q 339 534 356 550 q 306 493 322 518 q 274 438 289 468 q 247 379 260 407 q 226 328 235 351 q 214 294 218 306 q 184 205 197 249 q 160 124 171 161 q 143 62 150 88 q 133 26 136 36 q 126 8 133 15 q 106 0 118 0 q 41 19 67 0 q 0 68 15 39 q -21 132 -15 97 q -26 199 -26 167 m 356 653 q 328 662 344 656 q 300 668 311 668 q 294 645 297 656 q 272 635 290 635 q 253 642 261 635 q 244 663 244 650 q 278 729 244 710 q 354 749 311 749 q 411 742 383 749 q 467 726 439 736 q 486 720 475 724 q 504 715 497 717 q 510 740 506 729 q 532 751 514 751 q 551 743 543 751 q 560 722 560 735 q 528 652 560 675 q 453 629 497 629 q 403 636 426 629 q 356 653 379 643 z "},"":{"ha":564,"x_min":-43,"x_max":622,"o":"m 622 367 q 621 360 622 363 q 546 244 597 288 q 425 178 494 201 q 388 108 410 140 q 335 52 365 76 q 268 14 306 28 q 185 0 231 0 q 101 13 142 0 q 28 53 60 26 q -24 120 -4 79 q -43 215 -43 161 q -15 341 -43 281 q 63 446 14 401 q 135 557 82 513 q 265 601 188 601 q 357 578 319 601 q 417 520 394 556 q 449 440 439 485 q 458 354 458 396 q 456 301 458 328 q 447 247 453 275 q 517 297 488 271 q 564 368 547 322 q 593 390 572 390 q 613 384 604 390 q 622 367 622 378 m 294 215 q 337 217 315 215 q 381 225 358 219 q 397 293 392 260 q 403 354 403 326 q 397 417 403 383 q 375 481 390 451 q 333 529 360 510 q 265 549 307 549 q 203 535 232 549 q 156 499 175 522 q 242 514 197 514 q 261 506 253 514 q 269 486 269 497 q 261 467 269 475 q 242 458 253 458 q 203 444 221 458 q 172 406 186 429 q 146 353 157 383 q 126 293 135 324 q 196 233 150 251 q 294 215 242 215 m 294 657 q 286 638 294 646 q 267 629 278 629 q 214 647 238 629 q 172 692 190 665 q 144 750 154 719 q 135 806 135 781 q 149 856 135 833 q 194 878 163 878 q 221 860 214 878 l 292 667 q 294 657 294 661 m 213 56 q 297 87 261 56 q 356 163 332 118 q 329 160 342 161 q 303 160 317 160 q 199 175 249 160 q 114 222 150 190 q 112 202 113 211 q 111 185 111 193 q 115 143 111 165 q 131 101 119 121 q 162 69 142 82 q 213 56 182 56 z "},"":{"ha":564,"x_min":-43,"x_max":622,"o":"m 622 367 q 621 360 622 363 q 546 244 597 288 q 425 178 494 201 q 388 108 410 140 q 335 52 365 76 q 268 14 306 28 q 185 0 231 0 q 101 13 142 0 q 28 53 60 26 q -24 120 -4 79 q -43 215 -43 161 q -15 341 -43 281 q 63 446 14 401 q 135 557 82 513 q 265 601 188 601 q 357 578 319 601 q 417 520 394 556 q 449 440 439 485 q 458 354 458 396 q 456 301 458 328 q 447 247 453 275 q 517 297 488 271 q 564 368 547 322 q 593 390 572 390 q 613 384 604 390 q 622 367 622 378 m 294 215 q 337 217 315 215 q 381 225 358 219 q 397 293 392 260 q 403 354 403 326 q 397 417 403 383 q 375 481 390 451 q 333 529 360 510 q 265 549 307 549 q 203 535 232 549 q 156 499 175 522 q 242 514 197 514 q 261 506 253 514 q 269 486 269 497 q 261 467 269 475 q 242 458 253 458 q 203 444 221 458 q 172 406 186 429 q 146 353 157 383 q 126 293 135 324 q 196 233 150 251 q 294 215 242 215 m 400 806 q 390 750 400 781 q 363 692 381 719 q 321 647 344 665 q 268 629 297 629 q 249 638 257 629 q 240 657 240 646 q 242 667 240 664 l 313 860 q 339 878 319 878 q 385 856 371 878 q 400 806 400 833 m 213 56 q 297 87 261 56 q 356 163 332 118 q 329 160 342 161 q 303 160 317 160 q 199 175 249 160 q 114 222 150 190 q 112 202 113 211 q 111 185 111 193 q 115 143 111 165 q 131 101 119 121 q 162 69 142 82 q 213 56 182 56 z "},"":{"ha":564,"x_min":-43,"x_max":622,"o":"m 622 367 q 621 360 622 363 q 546 244 597 288 q 425 178 494 201 q 388 108 410 140 q 335 52 365 76 q 268 14 306 28 q 185 0 231 0 q 101 13 142 0 q 28 53 60 26 q -24 120 -4 79 q -43 215 -43 161 q -15 341 -43 281 q 63 446 14 401 q 135 557 82 513 q 265 601 188 601 q 357 578 319 601 q 417 520 394 556 q 449 440 439 485 q 458 354 458 396 q 456 301 458 328 q 447 247 453 275 q 517 297 488 271 q 564 368 547 322 q 593 390 572 390 q 613 384 604 390 q 622 367 622 378 m 294 215 q 337 217 315 215 q 381 225 358 219 q 397 293 392 260 q 403 354 403 326 q 397 417 403 383 q 375 481 390 451 q 333 529 360 510 q 265 549 307 549 q 203 535 232 549 q 156 499 175 522 q 242 514 197 514 q 261 506 253 514 q 269 486 269 497 q 261 467 269 475 q 242 458 253 458 q 203 444 221 458 q 172 406 186 429 q 146 353 157 383 q 126 293 135 324 q 196 233 150 251 q 294 215 242 215 m 294 865 q 313 874 301 874 q 356 860 336 875 q 388 822 375 844 q 408 773 401 799 q 415 726 415 747 q 411 692 415 710 q 399 661 407 675 q 376 638 390 647 q 343 629 363 629 q 324 636 332 629 q 315 653 317 643 l 299 776 l 210 656 q 188 644 201 644 q 168 653 176 644 q 160 672 160 661 q 165 688 160 682 l 294 865 m 213 56 q 297 87 261 56 q 356 163 332 118 q 329 160 342 161 q 303 160 317 160 q 199 175 249 160 q 114 222 150 190 q 112 202 113 211 q 111 185 111 193 q 115 143 111 165 q 131 101 119 121 q 162 69 142 82 q 213 56 182 56 z "},"":{"ha":564,"x_min":-43,"x_max":622,"o":"m 622 367 q 621 360 622 363 q 546 244 597 288 q 425 178 494 201 q 388 108 410 140 q 335 52 365 76 q 268 14 306 28 q 185 0 231 0 q 101 13 142 0 q 28 53 60 26 q -24 120 -4 79 q -43 215 -43 161 q -15 341 -43 281 q 63 446 14 401 q 135 557 82 513 q 265 601 188 601 q 357 578 319 601 q 417 520 394 556 q 449 440 439 485 q 458 354 458 396 q 456 301 458 328 q 447 247 453 275 q 517 297 488 271 q 564 368 547 322 q 593 390 572 390 q 613 384 604 390 q 622 367 622 378 m 294 215 q 337 217 315 215 q 381 225 358 219 q 397 293 392 260 q 403 354 403 326 q 397 417 403 383 q 375 481 390 451 q 333 529 360 510 q 265 549 307 549 q 203 535 232 549 q 156 499 175 522 q 242 514 197 514 q 261 506 253 514 q 269 486 269 497 q 261 467 269 475 q 242 458 253 458 q 203 444 221 458 q 172 406 186 429 q 146 353 157 383 q 126 293 135 324 q 196 233 150 251 q 294 215 242 215 m 425 722 q 394 652 425 675 q 318 629 363 629 q 268 636 292 629 q 221 653 244 643 q 193 662 210 656 q 165 668 176 668 q 159 645 163 656 q 138 635 156 635 q 118 642 126 635 q 110 663 110 650 q 143 729 110 710 q 219 749 176 749 q 276 742 249 749 q 332 726 304 736 q 351 720 340 724 q 369 715 363 717 q 375 740 371 729 q 397 751 379 751 q 417 743 408 751 q 425 722 425 735 m 213 56 q 297 87 261 56 q 356 163 332 118 q 329 160 342 161 q 303 160 317 160 q 199 175 249 160 q 114 222 150 190 q 112 202 113 211 q 111 185 111 193 q 115 143 111 165 q 131 101 119 121 q 162 69 142 82 q 213 56 182 56 z "},"":{"ha":564,"x_min":-43,"x_max":622,"o":"m 622 367 q 621 360 622 363 q 546 244 597 288 q 425 178 494 201 q 388 108 410 140 q 335 52 365 76 q 268 14 306 28 q 185 0 231 0 q 101 13 142 0 q 28 53 60 26 q -24 120 -4 79 q -43 215 -43 161 q -15 341 -43 281 q 63 446 14 401 q 135 557 82 513 q 265 601 188 601 q 357 578 319 601 q 417 520 394 556 q 449 440 439 485 q 458 354 458 396 q 456 301 458 328 q 447 247 453 275 q 517 297 488 271 q 564 368 547 322 q 593 390 572 390 q 613 384 604 390 q 622 367 622 378 m 294 215 q 337 217 315 215 q 381 225 358 219 q 397 293 392 260 q 403 354 403 326 q 397 417 403 383 q 375 481 390 451 q 333 529 360 510 q 265 549 307 549 q 203 535 232 549 q 156 499 175 522 q 242 514 197 514 q 261 506 253 514 q 269 486 269 497 q 261 467 269 475 q 242 458 253 458 q 203 444 221 458 q 172 406 186 429 q 146 353 157 383 q 126 293 135 324 q 196 233 150 251 q 294 215 242 215 m 213 56 q 297 87 261 56 q 356 163 332 118 q 329 160 342 161 q 303 160 317 160 q 199 175 249 160 q 114 222 150 190 q 112 202 113 211 q 111 185 111 193 q 115 143 111 165 q 131 101 119 121 q 162 69 142 82 q 213 56 182 56 m 344 629 q 303 644 318 629 q 288 685 288 660 q 303 726 288 711 q 344 742 318 742 q 385 726 369 742 q 400 685 400 711 q 385 644 400 660 q 344 629 369 629 m 192 629 q 150 644 165 629 q 135 685 135 660 q 150 726 135 711 q 192 742 165 742 q 232 726 217 742 q 247 685 247 711 q 232 644 247 660 q 192 629 217 629 z "},"":{"ha":506,"x_min":-81,"x_max":571,"o":"m 364 203 q 454 269 419 231 q 510 367 489 307 q 539 389 518 389 q 561 381 551 389 q 567 358 571 372 q 527 271 550 308 q 474 206 504 233 q 404 160 443 179 q 315 126 365 142 q 208 34 267 68 q 76 0 150 0 q 6 14 39 0 q -50 72 -28 28 q -61 99 -56 83 q -71 133 -67 115 q -78 167 -75 150 q -81 194 -81 183 q -73 214 -81 206 q -54 222 -65 222 q -36 217 -42 222 q -7 203 -28 211 q 44 187 14 194 q 110 174 74 179 q 188 169 147 169 q 231 286 215 222 q 247 403 247 350 q 244 451 247 425 q 228 498 240 476 q 197 534 217 519 q 143 549 176 549 q 128 549 136 549 q 118 550 121 550 q 106 513 115 540 q 88 455 97 486 q 69 397 78 424 q 57 360 60 369 q 28 338 49 338 q 6 346 15 338 q 0 368 -4 354 q 14 410 4 381 q 35 472 24 440 q 56 532 46 504 q 68 568 65 560 q 31 624 42 589 q 19 690 19 658 q 24 742 19 711 q 41 803 29 774 q 71 853 53 832 q 115 874 89 874 q 155 848 146 874 q 164 793 164 822 q 152 701 164 749 q 129 604 140 653 l 147 604 q 251 587 204 604 q 332 538 299 569 q 384 463 365 507 q 403 364 403 418 q 364 203 403 281 m -17 146 q -7 115 -12 131 q 7 85 -1 99 q 28 64 15 72 q 60 56 42 56 q 153 114 107 56 q 67 124 110 117 q -17 146 24 132 m 115 917 q 72 932 92 917 q 40 969 53 947 q 19 1017 26 992 q 13 1064 13 1043 q 28 1130 13 1099 q 85 1161 44 1161 q 103 1155 96 1161 q 113 1138 111 1149 l 129 1014 l 217 1135 q 240 1146 224 1146 q 260 1138 251 1146 q 268 1118 268 1129 q 263 1103 268 1111 l 133 925 q 115 917 128 917 z "},"":{"ha":506,"x_min":-81,"x_max":571,"o":"m 364 203 q 454 269 419 231 q 510 367 489 307 q 539 389 518 389 q 561 381 551 389 q 567 358 571 372 q 527 271 550 308 q 474 206 504 233 q 404 160 443 179 q 315 126 365 142 q 208 34 267 68 q 76 0 150 0 q 6 14 39 0 q -50 72 -28 28 q -61 99 -56 83 q -71 133 -67 115 q -78 167 -75 150 q -81 194 -81 183 q -73 214 -81 206 q -54 222 -65 222 q -36 217 -42 222 q -7 203 -28 211 q 44 187 14 194 q 110 174 74 179 q 188 169 147 169 q 231 286 215 222 q 247 403 247 350 q 244 451 247 425 q 228 498 240 476 q 197 534 217 519 q 143 549 176 549 q 128 549 136 549 q 118 550 121 550 q 106 513 115 540 q 88 455 97 486 q 69 397 78 424 q 57 360 60 369 q 28 338 49 338 q 6 346 15 338 q 0 368 -4 354 q 14 410 4 381 q 35 472 24 440 q 56 532 46 504 q 68 568 65 560 q 31 624 42 589 q 19 690 19 658 q 24 742 19 711 q 41 803 29 774 q 71 853 53 832 q 115 874 89 874 q 155 848 146 874 q 164 793 164 822 q 152 701 164 749 q 129 604 140 653 l 147 604 q 251 587 204 604 q 332 538 299 569 q 384 463 365 507 q 403 364 403 418 q 364 203 403 281 m -17 146 q -7 115 -12 131 q 7 85 -1 99 q 28 64 15 72 q 60 56 42 56 q 153 114 107 56 q 67 124 110 117 q -17 146 24 132 m 117 917 q 97 925 106 917 q 89 944 89 933 q 90 954 89 951 l 161 1147 q 188 1165 168 1165 q 234 1143 219 1165 q 249 1093 249 1121 q 239 1038 249 1068 q 211 980 229 1007 q 169 935 193 953 q 117 917 146 917 z "},"":{"ha":522,"x_min":-56,"x_max":588,"o":"m 151 192 q 160 211 151 203 q 179 219 168 219 q 203 235 192 219 q 224 273 214 250 q 242 324 233 296 q 257 379 250 353 q 272 434 264 407 q 289 486 279 461 q 183 450 238 464 q 82 436 129 436 q 69 398 75 417 q 57 360 64 379 q 28 338 49 338 q 6 346 15 338 q 0 368 -4 354 q 15 415 8 393 q 29 454 22 438 q 6 475 15 461 q -9 506 -3 489 q -18 539 -15 522 q -21 569 -21 556 q -15 623 -21 590 q 4 686 -8 656 q 36 739 17 717 q 83 761 56 761 q 125 737 115 761 q 135 688 135 713 q 123 590 135 639 q 99 492 111 540 q 167 503 131 493 q 235 525 203 513 q 295 550 268 538 q 336 569 322 563 q 344 579 339 574 q 408 603 375 603 q 428 594 421 603 q 436 574 436 585 q 435 555 436 572 q 429 510 433 538 q 418 447 425 482 q 399 375 411 413 q 344 259 375 301 q 281 194 314 217 q 328 156 307 178 q 447 245 390 192 q 526 368 503 299 q 556 390 535 390 q 578 382 568 390 q 583 360 588 374 q 546 278 568 314 q 495 214 524 243 q 433 160 467 185 q 358 113 399 136 q 388 40 378 79 q 397 -40 397 0 q 371 -162 397 -110 q 302 -251 344 -215 q 206 -306 260 -287 q 96 -325 151 -325 q -18 -292 19 -325 q -56 -203 -56 -260 q -31 -102 -56 -147 q 35 -20 -6 -57 q 126 46 76 17 q 226 101 176 75 q 206 145 218 128 q 179 164 194 163 q 160 172 168 164 q 151 192 151 181 m 82 -269 q 158 -251 126 -269 q 210 -201 190 -232 q 238 -131 229 -171 q 247 -50 247 -92 q 239 47 247 -6 q 154 -3 197 24 q 77 -62 111 -31 q 22 -128 43 -93 q 0 -201 0 -162 q 82 -269 0 -269 m 210 800 q 226 866 210 835 q 282 897 242 897 q 301 891 293 897 q 310 874 308 885 l 326 750 l 414 871 q 438 882 421 882 q 457 874 449 882 q 465 854 465 865 q 460 839 465 847 l 331 661 q 313 653 325 653 q 269 668 289 653 q 237 706 250 683 q 217 753 224 728 q 210 800 210 779 z "},"":{"ha":522,"x_min":-56,"x_max":588,"o":"m 151 192 q 160 211 151 203 q 179 219 168 219 q 203 235 192 219 q 224 273 214 250 q 242 324 233 296 q 257 379 250 353 q 272 434 264 407 q 289 486 279 461 q 183 450 238 464 q 82 436 129 436 q 69 398 75 417 q 57 360 64 379 q 28 338 49 338 q 6 346 15 338 q 0 368 -4 354 q 15 415 8 393 q 29 454 22 438 q 6 475 15 461 q -9 506 -3 489 q -18 539 -15 522 q -21 569 -21 556 q -15 623 -21 590 q 4 686 -8 656 q 36 739 17 717 q 83 761 56 761 q 125 737 115 761 q 135 688 135 713 q 123 590 135 639 q 99 492 111 540 q 167 503 131 493 q 235 525 203 513 q 295 550 268 538 q 336 569 322 563 q 344 579 339 574 q 408 603 375 603 q 428 594 421 603 q 436 574 436 585 q 435 555 436 572 q 429 510 433 538 q 418 447 425 482 q 399 375 411 413 q 344 259 375 301 q 281 194 314 217 q 328 156 307 178 q 447 245 390 192 q 526 368 503 299 q 556 390 535 390 q 578 382 568 390 q 583 360 588 374 q 546 278 568 314 q 495 214 524 243 q 433 160 467 185 q 358 113 399 136 q 388 40 378 79 q 397 -40 397 0 q 371 -162 397 -110 q 302 -251 344 -215 q 206 -306 260 -287 q 96 -325 151 -325 q -18 -292 19 -325 q -56 -203 -56 -260 q -31 -102 -56 -147 q 35 -20 -6 -57 q 126 46 76 17 q 226 101 176 75 q 206 145 218 128 q 179 164 194 163 q 160 172 168 164 q 151 192 151 181 m 82 -269 q 158 -251 126 -269 q 210 -201 190 -232 q 238 -131 229 -171 q 247 -50 247 -92 q 239 47 247 -6 q 154 -3 197 24 q 77 -62 111 -31 q 22 -128 43 -93 q 0 -201 0 -162 q 82 -269 0 -269 m 286 681 q 288 690 286 688 l 358 883 q 385 901 365 901 q 431 879 417 901 q 446 829 446 857 q 436 774 446 804 q 408 716 426 743 q 367 671 390 689 q 314 653 343 653 q 294 661 303 653 q 286 681 286 669 z "},"":{"ha":515,"x_min":-25,"x_max":581,"o":"m 204 0 q 110 17 153 0 q 38 64 68 33 q -8 138 8 94 q -25 236 -25 182 q 1 372 -25 307 q 74 489 28 438 q 179 571 119 540 q 306 601 239 601 q 401 574 368 601 q 433 497 433 547 q 407 400 433 451 q 335 306 381 349 q 244 243 294 268 q 132 215 193 218 q 131 210 132 213 q 131 204 131 207 q 131 200 131 201 q 133 153 131 178 q 147 106 136 128 q 176 70 157 85 q 228 56 196 56 q 330 92 281 56 q 417 179 379 129 q 461 244 442 211 q 493 305 481 278 q 513 350 506 332 q 519 368 519 368 q 549 390 526 390 q 571 382 561 390 q 576 360 581 374 q 522 235 556 299 q 441 119 488 171 q 335 33 394 67 q 204 0 276 0 m 378 496 q 329 546 378 546 q 255 515 288 546 q 198 440 222 483 q 158 349 174 396 q 138 271 143 301 q 219 295 176 275 q 297 346 261 315 q 355 415 332 376 q 378 496 378 454 m 306 629 q 263 644 282 629 q 230 682 243 660 q 210 730 217 704 q 203 776 203 756 q 219 842 203 811 q 275 874 235 874 q 294 867 286 874 q 303 850 301 861 l 319 726 l 407 847 q 431 858 414 858 q 450 850 442 858 q 458 831 458 842 q 453 815 458 824 l 324 638 q 306 629 318 629 z "},"":{"ha":515,"x_min":-25,"x_max":581,"o":"m 576 360 q 522 235 556 299 q 441 119 488 171 q 335 33 394 67 q 204 0 276 0 q 112 17 154 0 q 39 64 69 33 q -8 139 8 94 q -25 238 -25 183 q 1 373 -25 307 q 74 490 28 439 q 180 571 119 540 q 307 601 240 601 q 401 574 369 601 q 433 494 433 546 q 431 467 433 485 q 424 433 429 450 q 409 404 418 417 q 386 392 400 392 q 375 394 383 392 q 358 421 358 404 q 361 432 358 424 q 378 497 378 468 q 363 535 378 525 q 329 546 349 546 q 243 505 281 546 q 181 408 206 464 q 143 291 156 351 q 131 193 131 231 q 133 150 131 174 q 147 106 136 126 q 176 70 157 85 q 228 56 196 56 q 330 92 281 56 q 417 179 379 129 q 461 244 442 211 q 493 305 481 278 q 513 350 506 332 q 519 368 519 368 q 549 390 526 390 q 571 382 561 390 q 576 360 581 374 m 307 629 q 264 644 283 629 q 231 682 244 660 q 211 730 218 704 q 204 776 204 756 q 220 842 204 811 q 276 874 236 874 q 295 867 288 874 q 304 850 303 861 l 321 726 l 408 847 q 432 858 415 858 q 451 850 443 858 q 460 831 460 842 q 454 815 460 824 l 325 638 q 307 629 319 629 z "},"":{"ha":515,"x_min":-25,"x_max":581,"o":"m 576 360 q 522 235 556 299 q 441 119 488 171 q 335 33 394 67 q 204 0 276 0 q 112 17 154 0 q 39 64 69 33 q -8 139 8 94 q -25 238 -25 183 q 1 373 -25 307 q 74 490 28 439 q 180 571 119 540 q 307 601 240 601 q 401 574 369 601 q 433 494 433 546 q 431 467 433 485 q 424 433 429 450 q 409 404 418 417 q 386 392 400 392 q 375 394 383 392 q 358 421 358 404 q 361 432 358 424 q 378 497 378 468 q 363 535 378 525 q 329 546 349 546 q 243 505 281 546 q 181 408 206 464 q 143 291 156 351 q 131 193 131 231 q 133 150 131 174 q 147 106 136 126 q 176 70 157 85 q 228 56 196 56 q 330 92 281 56 q 417 179 379 129 q 461 244 442 211 q 493 305 481 278 q 513 350 506 332 q 519 368 519 368 q 549 390 526 390 q 571 382 561 390 q 576 360 581 374 m 308 629 q 289 638 297 629 q 281 657 281 646 q 282 667 281 664 l 353 860 q 379 878 360 878 q 426 856 411 878 q 440 806 440 833 q 431 750 440 781 q 403 692 421 719 q 361 647 385 665 q 308 629 338 629 z "},"":{"ha":293,"x_min":-10,"x_max":364,"o":"m 118 58 q 175 107 147 68 q 226 194 203 146 q 266 292 249 243 q 293 368 283 340 q 322 390 301 390 q 344 382 335 390 q 350 360 354 374 q 318 271 335 315 q 282 182 301 226 q 253 126 271 157 q 214 67 236 94 q 165 19 192 39 q 106 0 138 0 q 42 28 65 0 q 8 97 19 57 q -7 181 -4 138 q -10 251 -10 224 q -3 348 -10 279 q 17 503 4 417 q 51 681 31 589 q 97 851 71 774 q 157 977 124 928 q 231 1026 190 1026 q 252 1017 246 1026 q 258 993 258 1008 q 251 955 258 993 q 231 854 243 917 q 203 712 218 792 q 172 547 188 632 q 142 366 154 447 q 124 222 131 285 q 118 156 121 189 q 115 90 115 124 q 116 70 115 78 q 118 58 117 63 m 232 1051 q 213 1060 221 1051 q 204 1079 204 1068 q 206 1089 204 1086 l 276 1282 q 303 1300 283 1300 q 349 1278 335 1300 q 364 1228 364 1256 q 354 1172 364 1203 q 326 1115 344 1142 q 285 1069 308 1088 q 232 1051 261 1051 z "},"":{"ha":690,"x_min":-26,"x_max":756,"o":"m 292 603 q 394 570 360 603 q 444 493 429 538 q 499 571 468 540 q 569 601 529 601 q 592 592 586 601 q 597 580 596 586 q 597 567 597 574 q 579 506 589 543 q 560 426 569 469 q 541 334 550 382 q 525 242 532 286 q 514 159 518 197 q 510 96 510 121 q 511 70 510 79 q 514 57 513 61 q 574 104 546 65 q 625 192 601 143 q 667 290 649 242 q 694 368 685 339 q 724 390 703 390 q 746 382 736 390 q 751 360 756 374 q 719 271 736 315 q 683 182 703 226 q 655 126 672 157 q 615 67 638 94 q 566 19 593 39 q 507 0 539 0 q 450 14 474 0 q 411 51 426 28 q 388 101 396 74 q 376 158 379 129 q 345 103 364 132 q 301 52 326 75 q 244 15 276 29 q 172 0 213 0 q 96 17 132 0 q 33 64 60 33 q -10 138 6 94 q -26 238 -26 182 q -1 373 -26 307 q 69 490 25 439 q 170 572 113 542 q 292 603 228 603 m 128 193 q 131 150 128 174 q 140 106 133 126 q 161 70 147 85 q 196 56 175 56 q 247 76 222 56 q 292 128 271 96 q 333 201 314 161 q 368 279 353 240 q 394 351 383 318 q 410 403 404 383 q 399 458 406 432 q 381 503 392 483 q 356 535 371 524 q 319 547 342 547 q 263 528 289 547 q 215 476 236 508 q 177 406 193 444 q 150 327 161 367 q 133 252 139 288 q 128 193 128 217 m 425 808 q 385 678 425 728 q 276 629 346 629 q 190 660 224 629 q 157 740 157 690 q 161 773 157 754 q 174 808 165 792 q 194 836 182 825 q 224 847 207 847 q 254 833 246 847 q 263 799 263 818 q 261 768 263 783 q 260 738 260 753 q 269 699 260 714 q 299 685 279 685 q 350 719 331 685 q 369 807 369 753 q 373 835 369 822 q 396 847 376 847 q 420 835 415 847 q 425 808 425 824 z "},"":{"ha":528,"x_min":-21,"x_max":593,"o":"m 213 199 q 217 254 213 221 q 228 326 221 288 q 249 404 236 364 q 278 481 261 444 q 178 449 229 461 q 82 436 126 436 q 69 398 75 417 q 57 360 64 379 q 28 338 49 338 q 6 346 15 338 q 0 368 -4 354 q 15 415 8 393 q 29 454 22 438 q 6 475 15 461 q -9 506 -3 489 q -18 539 -15 522 q -21 569 -21 556 q -15 623 -21 590 q 4 686 -8 656 q 36 739 17 717 q 83 761 56 761 q 125 737 115 761 q 135 688 135 713 q 123 590 135 639 q 99 492 111 540 q 167 503 131 493 q 235 525 203 513 q 295 550 268 538 q 336 569 322 563 q 407 601 368 601 q 429 592 424 601 q 434 580 433 586 q 435 567 435 574 q 417 506 426 543 q 397 426 407 469 q 378 334 388 382 q 363 242 369 286 q 351 159 356 197 q 347 96 347 121 q 349 70 347 79 q 351 57 350 61 q 411 104 383 65 q 463 192 439 143 q 504 290 486 242 q 532 368 522 339 q 561 390 540 390 q 583 382 574 390 q 589 360 593 374 q 557 271 574 315 q 521 182 540 226 q 492 126 510 157 q 453 67 475 94 q 403 19 431 39 q 344 0 376 0 q 280 19 306 0 q 239 68 254 39 q 218 132 224 97 q 213 199 213 167 m 286 681 q 288 690 286 688 l 358 883 q 385 901 365 901 q 431 879 417 901 q 446 829 446 857 q 436 774 446 804 q 408 716 426 743 q 367 671 390 689 q 314 653 343 653 q 294 661 303 653 q 286 681 286 669 z "},"":{"ha":653,"x_min":-26,"x_max":718,"o":"m -26 199 q -22 262 -26 222 q -6 346 -17 301 q 21 436 6 390 q 58 519 36 482 q 108 578 81 556 q 168 601 135 601 q 190 592 185 601 q 195 580 194 586 q 196 567 196 574 q 174 488 186 538 q 150 380 163 438 q 128 264 138 322 q 113 160 118 206 q 136 241 122 194 q 169 337 150 288 q 211 435 188 386 q 264 521 235 483 q 328 582 293 558 q 403 606 363 606 q 502 551 465 606 q 539 404 539 496 q 526 284 539 346 q 499 161 514 222 q 488 109 492 136 q 476 57 483 82 q 536 104 508 65 q 588 192 564 143 q 629 290 611 242 q 657 368 647 339 q 686 390 665 390 q 708 382 699 390 q 714 360 718 374 q 682 271 699 315 q 646 182 665 226 q 617 126 635 157 q 578 67 600 94 q 528 19 556 39 q 469 0 501 0 q 418 11 439 0 q 383 41 397 22 q 363 85 369 60 q 357 139 357 111 q 365 220 357 175 q 381 314 372 265 q 397 397 389 354 q 404 481 404 439 q 399 527 404 504 q 372 550 393 550 q 339 534 356 550 q 306 493 322 518 q 274 438 289 468 q 247 379 260 407 q 226 328 235 351 q 214 294 218 306 q 184 205 197 249 q 160 124 171 161 q 143 62 150 88 q 133 26 136 36 q 126 8 133 15 q 106 0 118 0 q 41 19 67 0 q 0 68 15 39 q -21 132 -15 97 q -26 199 -26 167 m 375 657 q 376 667 375 664 l 447 860 q 474 878 454 878 q 520 856 506 878 q 535 806 535 833 q 525 750 535 781 q 497 692 515 719 q 456 647 479 665 q 403 629 432 629 q 383 638 392 629 q 375 657 375 646 z "},"":{"ha":653,"x_min":-26,"x_max":718,"o":"m -26 199 q -22 262 -26 222 q -6 346 -17 301 q 21 436 6 390 q 58 519 36 482 q 108 578 81 556 q 168 601 135 601 q 190 592 185 601 q 195 580 194 586 q 196 567 196 574 q 174 488 186 538 q 150 380 163 438 q 128 264 138 322 q 113 160 118 206 q 136 241 122 194 q 169 337 150 288 q 211 435 188 386 q 264 521 235 483 q 328 582 293 558 q 403 606 363 606 q 502 551 465 606 q 539 404 539 496 q 526 284 539 346 q 499 161 514 222 q 488 109 492 136 q 476 57 483 82 q 536 104 508 65 q 588 192 564 143 q 629 290 611 242 q 657 368 647 339 q 686 390 665 390 q 708 382 699 390 q 714 360 718 374 q 682 271 699 315 q 646 182 665 226 q 617 126 635 157 q 578 67 600 94 q 528 19 556 39 q 469 0 501 0 q 418 11 439 0 q 383 41 397 22 q 363 85 369 60 q 357 139 357 111 q 365 220 357 175 q 381 314 372 265 q 397 397 389 354 q 404 481 404 439 q 399 527 404 504 q 372 550 393 550 q 339 534 356 550 q 306 493 322 518 q 274 438 289 468 q 247 379 260 407 q 226 328 235 351 q 214 294 218 306 q 184 205 197 249 q 160 124 171 161 q 143 62 150 88 q 133 26 136 36 q 126 8 133 15 q 106 0 118 0 q 41 19 67 0 q 0 68 15 39 q -21 132 -15 97 q -26 199 -26 167 m 299 776 q 315 842 299 811 q 371 874 331 874 q 390 867 382 874 q 399 850 397 861 l 415 726 l 503 847 q 526 858 510 858 q 546 850 538 858 q 554 831 554 842 q 549 815 554 824 l 419 638 q 401 629 414 629 q 358 644 378 629 q 326 682 339 660 q 306 730 313 704 q 299 776 299 756 z "},"":{"ha":564,"x_min":-43,"x_max":622,"o":"m 622 367 q 621 360 622 363 q 546 244 597 288 q 425 178 494 201 q 388 108 410 140 q 335 52 365 76 q 268 14 306 28 q 185 0 231 0 q 101 13 142 0 q 28 53 60 26 q -24 120 -4 79 q -43 215 -43 161 q -15 341 -43 281 q 63 446 14 401 q 135 557 82 513 q 265 601 188 601 q 357 578 319 601 q 417 520 394 556 q 449 440 439 485 q 458 354 458 396 q 456 301 458 328 q 447 247 453 275 q 517 297 488 271 q 564 368 547 322 q 593 390 572 390 q 613 384 604 390 q 622 367 622 378 m 294 215 q 337 217 315 215 q 381 225 358 219 q 397 293 392 260 q 403 354 403 326 q 397 417 403 383 q 375 481 390 451 q 333 529 360 510 q 265 549 307 549 q 203 535 232 549 q 156 499 175 522 q 242 514 197 514 q 261 506 253 514 q 269 486 269 497 q 261 467 269 475 q 242 458 253 458 q 203 444 221 458 q 172 406 186 429 q 146 353 157 383 q 126 293 135 324 q 196 233 150 251 q 294 215 242 215 m 303 806 q 293 750 303 781 q 265 692 283 719 q 224 647 247 665 q 171 629 200 629 q 151 638 160 629 q 143 657 143 646 q 144 667 143 664 l 215 860 q 242 878 222 878 q 288 856 274 878 q 303 806 303 833 m 463 806 q 453 750 463 781 q 426 692 443 719 q 384 647 408 665 q 331 629 360 629 q 312 638 319 629 q 304 657 304 646 q 306 667 304 664 l 376 860 q 403 878 383 878 q 449 856 435 878 q 463 806 463 833 m 213 56 q 297 87 261 56 q 356 163 332 118 q 329 160 342 161 q 303 160 317 160 q 199 175 249 160 q 114 222 150 190 q 112 202 113 211 q 111 185 111 193 q 115 143 111 165 q 131 101 119 121 q 162 69 142 82 q 213 56 182 56 z "},"":{"ha":528,"x_min":-21,"x_max":593,"o":"m 213 199 q 217 254 213 221 q 228 326 221 288 q 249 404 236 364 q 278 481 261 444 q 178 449 229 461 q 82 436 126 436 q 69 398 75 417 q 57 360 64 379 q 28 338 49 338 q 6 346 15 338 q 0 368 -4 354 q 15 415 8 393 q 29 454 22 438 q 6 475 15 461 q -9 506 -3 489 q -18 539 -15 522 q -21 569 -21 556 q -15 623 -21 590 q 4 686 -8 656 q 36 739 17 717 q 83 761 56 761 q 125 737 115 761 q 135 688 135 713 q 123 590 135 639 q 99 492 111 540 q 167 503 131 493 q 235 525 203 513 q 295 550 268 538 q 336 569 322 563 q 407 601 368 601 q 429 592 424 601 q 434 580 433 586 q 435 567 435 574 q 417 506 426 543 q 397 426 407 469 q 378 334 388 382 q 363 242 369 286 q 351 159 356 197 q 347 96 347 121 q 349 70 347 79 q 351 57 350 61 q 411 104 383 65 q 463 192 439 143 q 504 290 486 242 q 532 368 522 339 q 561 390 540 390 q 583 382 574 390 q 589 360 593 374 q 557 271 574 315 q 521 182 540 226 q 492 126 510 157 q 453 67 475 94 q 403 19 431 39 q 344 0 376 0 q 280 19 306 0 q 239 68 254 39 q 218 132 224 97 q 213 199 213 167 m 210 800 q 226 866 210 835 q 282 897 242 897 q 301 891 293 897 q 310 874 308 885 l 326 750 l 414 871 q 438 882 421 882 q 457 874 449 882 q 465 854 465 865 q 460 839 465 847 l 331 661 q 313 653 325 653 q 269 668 289 653 q 237 706 250 683 q 217 753 224 728 q 210 800 210 779 z "},"":{"ha":660,"x_min":-19,"x_max":725,"o":"m 347 151 q 165 0 267 0 q 79 20 114 0 q 22 73 44 40 q -10 148 0 106 q -19 235 -19 190 q -14 300 -19 263 q 3 378 -8 338 q 31 459 14 419 q 70 531 47 499 q 122 582 93 563 q 186 601 151 601 q 206 593 197 601 q 214 574 214 585 q 211 564 214 569 q 205 547 211 564 q 188 500 199 529 q 166 432 178 471 q 143 351 154 393 q 119 235 125 283 q 113 156 113 188 q 114 124 113 142 q 120 92 115 107 q 136 66 125 76 q 165 56 147 56 q 233 88 201 56 q 290 163 264 119 q 334 255 315 207 q 363 333 353 303 q 388 427 372 379 q 426 513 404 475 q 476 576 447 551 q 539 601 504 601 q 561 592 556 601 q 566 580 565 586 q 567 567 567 574 q 549 506 558 543 q 529 426 539 469 q 510 334 519 382 q 494 242 501 286 q 483 159 488 197 q 479 96 479 121 q 481 70 479 79 q 483 57 482 61 q 543 104 515 65 q 594 192 571 143 q 636 290 618 242 q 664 368 654 339 q 693 390 672 390 q 715 382 706 390 q 721 360 725 374 q 689 271 706 315 q 653 182 672 226 q 624 126 642 157 q 585 67 607 94 q 535 19 563 39 q 476 0 508 0 q 422 13 444 0 q 383 48 399 26 q 360 97 368 69 q 347 151 351 124 m 346 619 q 265 647 296 619 q 233 718 233 674 q 270 802 233 771 q 369 833 307 833 q 447 808 418 833 q 476 742 476 782 q 440 653 476 686 q 346 619 404 619 m 383 778 q 343 760 358 778 q 328 711 328 742 q 360 675 328 675 q 403 693 388 675 q 419 742 419 711 q 410 767 419 757 q 383 778 400 778 z "},"":{"ha":660,"x_min":-19,"x_max":725,"o":"m 347 151 q 165 0 267 0 q 79 20 114 0 q 22 73 44 40 q -10 148 0 106 q -19 235 -19 190 q -14 300 -19 263 q 3 378 -8 338 q 31 459 14 419 q 70 531 47 499 q 122 582 93 563 q 186 601 151 601 q 206 593 197 601 q 214 574 214 585 q 211 564 214 569 q 205 547 211 564 q 188 500 199 529 q 166 432 178 471 q 143 351 154 393 q 119 235 125 283 q 113 156 113 188 q 114 124 113 142 q 120 92 115 107 q 136 66 125 76 q 165 56 147 56 q 233 88 201 56 q 290 163 264 119 q 334 255 315 207 q 363 333 353 303 q 388 427 372 379 q 426 513 404 475 q 476 576 447 551 q 539 601 504 601 q 561 592 556 601 q 566 580 565 586 q 567 567 567 574 q 549 506 558 543 q 529 426 539 469 q 510 334 519 382 q 494 242 501 286 q 483 159 488 197 q 479 96 479 121 q 481 70 479 79 q 483 57 482 61 q 543 104 515 65 q 594 192 571 143 q 636 290 618 242 q 664 368 654 339 q 693 390 672 390 q 715 382 706 390 q 721 360 725 374 q 689 271 706 315 q 653 182 672 226 q 624 126 642 157 q 585 67 607 94 q 535 19 563 39 q 476 0 508 0 q 422 13 444 0 q 383 48 399 26 q 360 97 368 69 q 347 151 351 124 m 390 806 q 381 750 390 781 q 353 692 371 719 q 311 647 335 665 q 258 629 288 629 q 239 638 247 629 q 231 657 231 646 q 232 667 231 664 l 303 860 q 329 878 310 878 q 376 856 361 878 q 390 806 390 833 m 550 806 q 540 750 550 781 q 513 692 531 719 q 472 647 496 665 q 418 629 447 629 q 399 638 407 629 q 392 657 392 646 q 393 667 392 664 l 464 860 q 490 878 471 878 q 536 856 522 878 q 550 806 550 833 z "},"":{"ha":522,"x_min":-56,"x_max":588,"o":"m 151 192 q 160 211 151 203 q 179 219 168 219 q 203 235 192 219 q 224 273 214 250 q 242 324 233 296 q 257 379 250 353 q 272 434 264 407 q 289 486 279 461 q 183 450 238 464 q 82 436 129 436 q 69 398 75 417 q 57 360 64 379 q 28 338 49 338 q 6 346 15 338 q 0 368 -4 354 q 15 415 8 393 q 29 454 22 438 q 6 475 15 461 q -9 506 -3 489 q -18 539 -15 522 q -21 569 -21 556 q -15 623 -21 590 q 4 686 -8 656 q 36 739 17 717 q 83 761 56 761 q 125 737 115 761 q 135 688 135 713 q 123 590 135 639 q 99 492 111 540 q 167 503 131 493 q 235 525 203 513 q 295 550 268 538 q 336 569 322 563 q 344 579 339 574 q 408 603 375 603 q 428 594 421 603 q 436 574 436 585 q 435 555 436 572 q 429 510 433 538 q 418 447 425 482 q 399 375 411 413 q 344 259 375 301 q 281 194 314 217 q 328 156 307 178 q 447 245 390 192 q 526 368 503 299 q 556 390 535 390 q 578 382 568 390 q 583 360 588 374 q 546 278 568 314 q 495 214 524 243 q 433 160 467 185 q 358 113 399 136 q 388 40 378 79 q 397 -40 397 0 q 371 -162 397 -110 q 302 -251 344 -215 q 206 -306 260 -287 q 96 -325 151 -325 q -18 -292 19 -325 q -56 -203 -56 -260 q -31 -102 -56 -147 q 35 -20 -6 -57 q 126 46 76 17 q 226 101 176 75 q 206 145 218 128 q 179 164 194 163 q 160 172 168 164 q 151 192 151 181 m 82 -269 q 158 -251 126 -269 q 210 -201 190 -232 q 238 -131 229 -171 q 247 -50 247 -92 q 239 47 247 -6 q 154 -3 197 24 q 77 -62 111 -31 q 22 -128 43 -93 q 0 -201 0 -162 q 82 -269 0 -269 m 314 765 q 354 750 339 765 q 369 708 369 735 q 354 668 369 683 q 314 653 339 653 q 272 668 288 653 q 257 708 257 683 q 272 750 257 735 q 314 765 288 765 z "},"":{"ha":699,"x_min":-24,"x_max":764,"o":"m 294 603 q 380 582 347 603 q 431 529 413 561 q 454 648 442 588 q 482 767 467 708 l 374 767 q 354 775 363 767 q 346 794 346 783 q 354 814 346 806 q 374 822 363 822 l 497 822 q 560 968 525 910 q 640 1026 596 1026 q 662 1017 656 1026 q 668 993 668 1008 q 658 945 668 992 q 633 822 649 899 l 640 822 q 660 814 651 822 q 668 794 668 806 q 660 775 668 783 q 640 767 651 767 l 622 767 q 573 496 597 631 q 533 222 549 361 q 528 156 531 189 q 525 90 525 124 q 526 70 525 78 q 528 58 526 63 q 585 107 557 68 q 635 194 613 146 q 676 292 658 243 q 703 368 693 340 q 732 390 711 390 q 754 382 744 390 q 760 360 764 374 q 728 271 744 315 q 692 182 711 226 q 663 126 681 157 q 624 67 646 94 q 574 19 601 39 q 515 0 547 0 q 460 20 482 0 q 426 71 439 40 q 408 138 414 101 q 401 206 403 174 q 401 204 401 204 q 400 203 400 204 q 371 141 389 176 q 325 74 353 106 q 260 22 297 43 q 175 0 224 0 q 99 17 135 0 q 35 64 63 33 q -8 138 8 94 q -24 238 -24 182 q 2 373 -24 307 q 72 490 28 439 q 173 572 115 542 q 294 603 231 603 m 131 193 q 133 150 131 174 q 143 106 136 126 q 164 70 150 85 q 199 56 178 56 q 249 76 225 56 q 295 128 274 96 q 336 201 317 161 q 371 279 356 240 q 397 351 386 318 q 413 403 407 383 q 401 458 408 432 q 384 503 394 483 q 359 535 374 524 q 322 547 344 547 q 265 528 292 547 q 217 476 239 508 q 180 406 196 444 q 153 327 164 367 q 136 252 142 288 q 131 193 131 217 z "},"":{"ha":515,"x_min":-25,"x_max":581,"o":"m 549 390 q 571 382 561 390 q 576 360 581 374 q 532 254 558 308 q 469 152 506 200 q 388 67 433 104 q 288 13 342 31 q 287 11 288 11 q 286 10 286 11 l 253 -68 q 360 -109 319 -75 q 400 -193 400 -143 q 356 -277 400 -246 q 246 -308 313 -308 q 152 -283 185 -308 q 119 -212 119 -257 q 127 -193 119 -201 q 147 -185 135 -185 q 167 -193 158 -185 q 175 -212 175 -201 q 190 -242 175 -232 q 228 -253 206 -253 q 273 -236 257 -253 q 289 -192 289 -219 q 270 -141 289 -160 q 219 -122 251 -122 q 213 -124 215 -122 q 189 -111 197 -124 q 183 -96 183 -106 q 186 -85 183 -90 l 222 0 q 42 60 110 0 q -25 238 -25 119 q 1 373 -25 307 q 74 490 28 439 q 180 571 119 540 q 307 601 240 601 q 401 574 369 601 q 433 494 433 546 q 431 467 433 485 q 424 433 429 450 q 409 404 418 417 q 386 392 400 392 q 375 394 383 392 q 358 421 358 404 q 361 432 358 424 q 378 497 378 468 q 363 535 378 525 q 329 546 349 546 q 243 505 281 546 q 181 408 206 464 q 143 291 156 351 q 131 193 131 231 q 133 150 131 174 q 147 106 136 126 q 176 70 157 85 q 228 56 196 56 q 330 92 281 56 q 417 179 379 129 q 461 244 442 211 q 493 305 481 278 q 513 350 506 332 q 519 368 519 368 q 549 390 526 390 z "},"":{"ha":564,"x_min":-43,"x_max":622,"o":"m 321 646 q 339 634 332 643 q 343 614 346 625 l 339 588 q 395 548 372 574 q 432 491 418 522 q 452 424 446 460 q 458 354 458 389 q 456 301 458 328 q 447 247 453 275 q 517 297 488 271 q 564 368 547 322 q 593 390 572 390 q 613 384 604 390 q 622 367 622 378 q 621 360 622 363 q 546 244 597 288 q 425 178 494 201 q 353 68 399 115 q 238 6 307 21 l 231 -36 q 218 -54 228 -50 q 197 -58 208 -58 q 179 -47 186 -56 q 175 -26 172 -37 l 179 0 q 98 15 138 1 q 26 55 58 28 q -24 122 -6 82 q -43 215 -43 161 q -15 341 -43 281 q 63 446 14 401 q 135 557 82 513 q 265 601 188 601 q 283 600 278 601 l 288 624 q 300 642 290 638 q 321 646 310 646 m 381 225 q 397 293 392 260 q 403 354 403 326 q 399 402 403 376 q 388 452 396 428 q 365 498 379 476 q 329 532 350 519 l 274 215 q 327 217 301 215 q 381 225 353 218 m 126 293 q 165 251 142 267 q 218 225 189 235 l 260 465 q 242 458 253 458 q 203 444 221 458 q 172 406 186 429 q 146 353 157 383 q 126 293 135 324 m 111 185 q 115 148 111 168 q 126 109 118 128 q 150 76 135 90 q 189 58 165 63 l 210 172 q 114 222 154 188 q 112 202 113 211 q 111 185 111 193 m 247 61 q 310 99 283 71 q 356 163 336 126 q 329 160 342 161 q 303 160 317 160 q 284 160 293 160 q 265 161 275 160 l 247 61 m 156 499 q 242 514 197 514 q 267 500 257 514 l 275 549 q 209 538 239 549 q 156 499 179 526 z "},"":{"ha":918,"x_min":-26,"x_max":983,"o":"m 385 174 q 353 115 372 146 q 308 59 333 85 q 248 17 282 33 q 172 0 214 0 q 96 17 132 0 q 33 64 60 33 q -10 138 6 94 q -26 238 -26 182 q -1 373 -26 307 q 69 490 25 439 q 170 572 113 542 q 292 603 228 603 q 360 591 332 603 q 406 559 388 579 q 436 514 425 539 q 454 463 447 489 q 567 563 500 525 q 708 601 633 601 q 803 574 771 601 q 836 497 836 547 q 808 393 836 443 q 737 305 781 343 q 640 242 693 267 q 535 215 586 218 q 534 210 535 213 q 533 204 533 207 q 533 200 533 201 q 536 153 533 178 q 549 106 539 128 q 579 70 560 85 q 631 56 599 56 q 733 92 683 56 q 819 179 782 129 q 864 244 844 211 q 896 305 883 278 q 915 350 908 332 q 922 368 922 368 q 951 390 929 390 q 974 382 964 390 q 979 360 983 374 q 924 235 958 299 q 844 119 890 171 q 738 33 797 67 q 607 0 679 0 q 460 46 519 0 q 385 174 401 92 m 410 403 q 399 458 406 432 q 381 503 392 483 q 356 535 371 524 q 319 547 342 547 q 263 528 289 547 q 215 476 236 508 q 177 406 193 444 q 150 327 161 367 q 133 252 139 288 q 128 193 128 217 q 131 150 128 174 q 140 106 133 126 q 161 70 147 85 q 196 56 175 56 q 247 76 222 56 q 292 128 271 96 q 333 201 314 161 q 368 279 353 240 q 394 351 383 318 q 410 403 404 383 m 732 546 q 658 515 690 546 q 601 440 625 483 q 561 349 576 396 q 540 271 546 301 q 622 295 579 275 q 699 346 664 315 q 758 415 735 376 q 781 496 781 454 q 732 546 781 546 z "},"":{"ha":938,"x_min":-43,"x_max":1003,"o":"m 411 147 q 323 42 379 83 q 185 0 267 0 q 101 13 142 0 q 28 53 60 26 q -24 120 -4 79 q -43 215 -43 161 q -15 341 -43 281 q 63 446 14 401 q 135 557 82 513 q 265 601 188 601 q 340 587 308 601 q 394 549 372 572 q 431 493 417 525 q 451 428 444 461 q 569 553 496 504 q 728 601 642 601 q 823 574 790 601 q 856 497 856 547 q 828 393 856 443 q 756 305 800 343 q 659 242 713 267 q 554 215 606 218 q 553 210 554 213 q 553 204 553 207 q 553 200 553 201 q 556 153 553 178 q 569 106 558 128 q 599 70 579 85 q 650 56 618 56 q 752 92 703 56 q 839 179 801 129 q 883 244 864 211 q 915 305 903 278 q 935 350 928 332 q 942 368 942 368 q 971 390 949 390 q 993 382 983 390 q 999 360 1003 374 q 944 235 978 299 q 863 119 910 171 q 758 33 817 67 q 626 0 699 0 q 490 39 546 0 q 411 147 433 78 m 242 514 q 261 506 253 514 q 269 486 269 497 q 261 467 269 475 q 242 458 253 458 q 203 444 221 458 q 172 406 186 429 q 146 353 157 383 q 126 293 135 324 q 196 233 150 251 q 294 215 242 215 q 337 217 315 215 q 381 225 358 219 q 397 293 392 260 q 403 354 403 326 q 397 417 403 383 q 375 481 390 451 q 333 529 360 510 q 265 549 307 549 q 203 535 232 549 q 156 499 175 522 q 242 514 197 514 m 751 546 q 677 515 710 546 q 620 440 644 483 q 581 349 596 396 q 560 271 565 301 q 641 295 599 275 q 719 346 683 315 q 777 415 754 376 q 800 496 800 454 q 751 546 800 546 m 303 160 q 199 175 249 160 q 114 222 150 190 q 112 202 113 211 q 111 185 111 193 q 115 143 111 165 q 131 101 119 121 q 162 69 142 82 q 213 56 182 56 q 297 87 261 56 q 356 163 332 118 q 329 160 342 161 q 303 160 317 160 z "},"":{"ha":289,"x_min":-26,"x_max":354,"o":"m 106 0 q 41 19 67 0 q 0 68 15 39 q -21 132 -15 97 q -26 199 -26 167 q -22 263 -26 224 q -6 347 -17 303 q 20 437 4 392 q 58 519 36 482 q 107 578 79 556 q 168 601 135 601 q 190 592 185 601 q 195 580 194 586 q 196 567 196 574 q 178 506 188 543 q 158 426 168 469 q 140 334 149 382 q 124 242 131 286 q 113 159 117 197 q 108 96 108 121 q 110 70 108 79 q 113 57 111 61 q 172 104 144 65 q 224 192 200 143 q 265 290 247 242 q 293 368 283 339 q 322 390 301 390 q 344 382 335 390 q 350 360 354 374 q 318 271 335 315 q 282 182 301 226 q 253 126 271 157 q 214 67 236 94 q 165 19 192 39 q 106 0 138 0 z "},"":{"ha":289,"x_min":-26,"x_max":354,"o":"m 106 0 q 41 19 67 0 q 0 68 15 39 q -21 132 -15 97 q -26 199 -26 167 q -22 263 -26 224 q -6 347 -17 303 q 20 437 4 392 q 58 519 36 482 q 107 578 79 556 q 168 601 135 601 q 190 592 185 601 q 195 580 194 586 q 196 567 196 574 q 178 506 188 543 q 158 426 168 469 q 140 334 149 382 q 124 242 131 286 q 113 159 117 197 q 108 96 108 121 q 110 70 108 79 q 113 57 111 61 q 172 104 144 65 q 224 192 200 143 q 265 290 247 242 q 293 368 283 339 q 322 390 301 390 q 344 382 335 390 q 350 360 354 374 q 318 271 335 315 q 282 182 301 226 q 253 126 271 157 q 214 67 236 94 q 165 19 192 39 q 106 0 138 0 m 168 629 q 115 647 139 629 q 74 692 92 665 q 46 750 56 719 q 36 806 36 781 q 50 856 36 833 q 96 878 64 878 q 122 860 115 878 l 193 667 q 196 657 196 661 q 188 638 196 646 q 168 629 179 629 z "},"":{"ha":289,"x_min":-26,"x_max":354,"o":"m 106 0 q 41 19 67 0 q 0 68 15 39 q -21 132 -15 97 q -26 199 -26 167 q -22 263 -26 224 q -6 347 -17 303 q 20 437 4 392 q 58 519 36 482 q 107 578 79 556 q 168 601 135 601 q 190 592 185 601 q 195 580 194 586 q 196 567 196 574 q 178 506 188 543 q 158 426 168 469 q 140 334 149 382 q 124 242 131 286 q 113 159 117 197 q 108 96 108 121 q 110 70 108 79 q 113 57 111 61 q 172 104 144 65 q 224 192 200 143 q 265 290 247 242 q 293 368 283 339 q 322 390 301 390 q 344 382 335 390 q 350 360 354 374 q 318 271 335 315 q 282 182 301 226 q 253 126 271 157 q 214 67 236 94 q 165 19 192 39 q 106 0 138 0 m 169 629 q 150 638 158 629 q 142 657 142 646 q 143 667 142 664 l 214 860 q 240 878 221 878 q 287 856 272 878 q 301 806 301 833 q 292 750 301 781 q 264 692 282 719 q 222 647 246 665 q 169 629 199 629 z "},"":{"ha":289,"x_min":-26,"x_max":354,"o":"m 106 0 q 41 19 67 0 q 0 68 15 39 q -21 132 -15 97 q -26 199 -26 167 q -22 263 -26 224 q -6 347 -17 303 q 20 437 4 392 q 58 519 36 482 q 107 578 79 556 q 168 601 135 601 q 190 592 185 601 q 195 580 194 586 q 196 567 196 574 q 178 506 188 543 q 158 426 168 469 q 140 334 149 382 q 124 242 131 286 q 113 159 117 197 q 108 96 108 121 q 110 70 108 79 q 113 57 111 61 q 172 104 144 65 q 224 192 200 143 q 265 290 247 242 q 293 368 283 339 q 322 390 301 390 q 344 382 335 390 q 350 360 354 374 q 318 271 335 315 q 282 182 301 226 q 253 126 271 157 q 214 67 236 94 q 165 19 192 39 q 106 0 138 0 m 214 874 q 257 860 238 875 q 290 822 276 844 q 310 773 303 799 q 317 726 317 747 q 313 692 317 710 q 300 661 308 675 q 278 638 292 647 q 244 629 264 629 q 226 636 233 629 q 217 653 218 643 l 200 776 l 111 656 q 89 644 103 644 q 69 653 78 644 q 61 672 61 661 q 67 688 61 682 l 196 865 q 214 874 203 874 z "},"":{"ha":289,"x_min":-26,"x_max":354,"o":"m 106 0 q 41 19 67 0 q 0 68 15 39 q -21 132 -15 97 q -26 199 -26 167 q -22 263 -26 224 q -6 347 -17 303 q 20 437 4 392 q 58 519 36 482 q 107 578 79 556 q 168 601 135 601 q 190 592 185 601 q 195 580 194 586 q 196 567 196 574 q 178 506 188 543 q 158 426 168 469 q 140 334 149 382 q 124 242 131 286 q 113 159 117 197 q 108 96 108 121 q 110 70 108 79 q 113 57 111 61 q 172 104 144 65 q 224 192 200 143 q 265 290 247 242 q 293 368 283 339 q 322 390 301 390 q 344 382 335 390 q 350 360 354 374 q 318 271 335 315 q 282 182 301 226 q 253 126 271 157 q 214 67 236 94 q 165 19 192 39 q 106 0 138 0 m 36 685 q 51 726 36 711 q 93 742 67 742 q 133 726 118 742 q 149 685 149 711 q 133 644 149 660 q 93 629 118 629 q 51 644 67 629 q 36 685 36 660 m 189 685 q 204 726 189 711 q 246 742 219 742 q 286 726 271 742 q 301 685 301 711 q 286 644 301 660 q 246 629 271 629 q 204 644 219 629 q 189 685 189 660 z "},"":{"ha":294,"x_min":-28,"x_max":429,"o":"m 297 838 q 278 846 286 838 q 269 865 269 854 q 272 875 269 869 l 343 1068 q 369 1086 350 1086 q 415 1064 401 1086 q 429 1014 429 1042 q 419 958 429 989 q 392 901 410 928 q 350 856 374 874 q 297 838 326 838 m 322 775 q 314 756 322 764 q 294 747 306 747 l 210 747 q 192 650 201 700 q 174 547 183 600 q 144 366 156 447 q 125 222 132 285 q 119 156 122 189 q 117 90 117 124 q 117 70 117 78 q 119 58 118 63 q 176 107 149 68 q 227 194 204 146 q 267 292 250 243 q 294 368 285 340 q 324 390 303 390 q 346 382 336 390 q 351 360 356 374 q 319 271 336 315 q 283 182 303 226 q 255 126 272 157 q 215 67 238 94 q 166 19 193 39 q 107 0 139 0 q 44 28 67 0 q 9 97 21 57 q -6 181 -3 138 q -8 251 -8 224 q -3 328 -8 275 q 10 449 1 381 q 34 596 19 518 q 68 747 49 674 l 0 747 q -19 756 -11 747 q -28 775 -28 764 q -19 794 -28 786 q 0 803 -11 803 l 83 803 q 114 891 97 850 q 149 962 131 932 q 189 1009 168 992 q 232 1026 210 1026 q 253 1017 247 1026 q 260 993 260 1008 q 249 939 260 992 q 221 803 238 886 l 294 803 q 314 794 306 803 q 322 775 322 786 z "},"":{"ha":836,"x_min":-24,"x_max":833,"o":"m 400 203 q 371 141 389 176 q 325 74 353 106 q 260 22 297 43 q 175 0 224 0 q 99 17 135 0 q 35 64 63 33 q -8 138 8 94 q -24 238 -24 182 q 2 373 -24 307 q 72 490 28 439 q 173 572 115 542 q 294 603 231 603 q 380 582 347 603 q 431 529 413 561 q 465 702 444 614 q 511 863 485 790 q 569 981 538 935 q 640 1026 601 1026 q 662 1017 656 1026 q 668 993 668 1008 q 660 955 668 993 q 640 854 653 917 q 613 712 628 792 q 582 547 597 632 q 552 366 564 447 q 533 222 540 285 q 528 156 531 189 q 525 90 525 124 q 526 70 525 78 q 528 58 526 63 q 585 107 557 68 q 635 194 613 146 q 676 292 658 243 q 703 368 693 340 q 732 390 711 390 q 754 382 744 390 q 760 360 764 374 q 728 271 744 315 q 692 182 711 226 q 663 126 681 157 q 624 67 646 94 q 574 19 601 39 q 515 0 547 0 q 460 20 482 0 q 426 71 439 40 q 408 138 414 101 q 401 206 403 174 q 401 204 401 204 q 400 203 400 204 m 413 403 q 401 458 408 432 q 384 503 394 483 q 359 535 374 524 q 322 547 344 547 q 265 528 292 547 q 217 476 239 508 q 180 406 196 444 q 153 327 164 367 q 136 252 142 288 q 131 193 131 217 q 133 150 131 174 q 143 106 136 126 q 164 70 150 85 q 199 56 178 56 q 249 76 225 56 q 295 128 274 96 q 336 201 317 161 q 371 279 356 240 q 397 351 386 318 q 413 403 407 383 m 674 674 q 675 683 674 681 l 746 876 q 772 894 753 894 q 819 872 804 894 q 833 822 833 850 q 824 767 833 797 q 796 709 814 736 q 754 664 778 682 q 701 646 731 646 q 682 654 690 646 q 674 674 674 663 z "},"":{"ha":417,"x_min":-10,"x_max":417,"o":"m 285 646 q 265 654 274 646 q 257 674 257 663 q 258 683 257 681 l 329 876 q 356 894 336 894 q 402 873 388 894 q 417 824 417 851 q 407 768 417 799 q 379 710 397 738 q 338 665 361 683 q 285 646 314 646 m 118 58 q 175 107 147 68 q 226 194 203 146 q 266 292 249 243 q 293 368 283 340 q 322 390 301 390 q 344 382 335 390 q 350 360 354 374 q 318 271 335 315 q 282 182 301 226 q 253 126 271 157 q 214 67 236 94 q 165 19 192 39 q 106 0 138 0 q 42 28 65 0 q 8 97 19 57 q -7 181 -4 138 q -10 251 -10 224 q -3 348 -10 279 q 17 503 4 417 q 51 681 31 589 q 97 851 71 774 q 157 977 124 928 q 231 1026 190 1026 q 252 1017 246 1026 q 258 993 258 1008 q 251 955 258 993 q 231 854 243 917 q 203 712 218 792 q 172 547 188 632 q 142 366 154 447 q 124 222 131 285 q 118 156 121 189 q 115 90 115 124 q 116 70 115 78 q 118 58 117 63 z "},"":{"ha":515,"x_min":-25,"x_max":581,"o":"m -25 236 q 1 372 -25 307 q 74 489 28 438 q 179 571 119 540 q 306 601 239 601 q 401 574 368 601 q 433 497 433 547 q 406 393 433 443 q 334 305 378 343 q 237 242 290 267 q 132 215 183 218 q 131 210 132 213 q 131 204 131 207 q 131 200 131 201 q 133 153 131 178 q 147 106 136 128 q 176 70 157 85 q 228 56 196 56 q 330 92 281 56 q 417 179 379 129 q 461 244 442 211 q 493 305 481 278 q 513 350 506 332 q 519 368 519 368 q 549 390 526 390 q 571 382 561 390 q 576 360 581 374 q 543 278 563 321 q 498 194 524 235 q 442 119 472 154 q 376 58 411 83 q 338 10 357 39 q 302 -49 318 -18 q 276 -112 286 -81 q 267 -174 267 -144 q 299 -218 267 -218 q 341 -202 319 -218 q 369 -158 363 -186 q 397 -139 376 -139 q 419 -150 415 -139 q 424 -175 424 -161 q 372 -247 410 -219 q 282 -274 335 -274 q 194 -244 229 -274 q 158 -165 158 -215 q 179 -83 158 -126 q 232 1 200 -39 q 218 0 225 0 q 204 0 211 0 q 110 17 153 0 q 38 64 68 33 q -8 138 8 94 q -25 236 -25 182 m 329 546 q 255 515 288 546 q 198 440 222 483 q 158 349 174 396 q 138 271 143 301 q 219 295 176 275 q 297 346 261 315 q 355 415 332 376 q 378 496 378 454 q 329 546 378 546 z "},"":{"ha":690,"x_min":-26,"x_max":756,"o":"m 292 603 q 394 570 360 603 q 444 493 429 538 q 499 571 468 540 q 569 601 529 601 q 592 592 586 601 q 597 580 596 586 q 597 567 597 574 q 579 506 589 543 q 560 426 569 469 q 541 334 550 382 q 525 242 532 286 q 514 159 518 197 q 510 96 510 121 q 511 70 510 79 q 514 57 513 61 q 574 104 546 65 q 625 192 601 143 q 667 290 649 242 q 694 368 685 339 q 724 390 703 390 q 746 382 736 390 q 751 360 756 374 q 719 271 736 315 q 683 182 703 226 q 655 126 672 157 q 615 67 638 94 q 566 19 593 39 q 507 0 539 0 q 486 1 493 0 q 450 -46 468 -18 q 417 -104 432 -74 q 394 -165 403 -135 q 386 -221 386 -196 q 418 -265 386 -265 q 460 -249 439 -265 q 489 -206 482 -233 q 517 -186 496 -186 q 539 -197 535 -186 q 543 -222 543 -208 q 492 -294 529 -267 q 401 -321 454 -321 q 313 -292 349 -321 q 278 -212 278 -262 q 291 -148 278 -182 q 326 -81 304 -114 q 374 -19 347 -49 q 428 31 401 10 q 392 88 404 54 q 376 158 381 122 q 345 103 364 132 q 301 52 326 75 q 244 15 276 29 q 172 0 213 0 q 96 17 132 0 q 33 64 60 33 q -10 138 6 94 q -26 238 -26 182 q -1 373 -26 307 q 69 490 25 439 q 170 572 113 542 q 292 603 228 603 m 128 193 q 131 150 128 174 q 140 106 133 126 q 161 70 147 85 q 196 56 175 56 q 247 76 222 56 q 292 128 271 96 q 333 201 314 161 q 368 279 353 240 q 394 351 383 318 q 410 403 404 383 q 399 458 406 432 q 381 503 392 483 q 356 535 371 524 q 319 547 342 547 q 263 528 289 547 q 215 476 236 508 q 177 406 193 444 q 150 327 161 367 q 133 252 139 288 q 128 193 128 217 z "},"":{"ha":285,"x_min":-68,"x_max":351,"o":"m 240 619 q 246 599 247 610 q 235 581 244 588 l 167 531 q 139 358 150 435 q 121 222 128 282 q 115 156 118 189 q 113 90 113 124 q 113 70 113 78 q 115 58 114 63 q 172 107 144 68 q 223 194 200 146 q 263 292 246 243 q 290 368 281 340 q 319 390 299 390 q 342 382 332 390 q 347 360 351 374 q 315 271 332 315 q 279 182 299 226 q 251 126 268 157 q 211 67 233 94 q 162 19 189 39 q 103 0 135 0 q 40 28 63 0 q 5 97 17 57 q -10 181 -7 138 q -12 251 -12 224 q -9 313 -12 271 q 1 408 -6 354 l -21 392 q -39 386 -28 386 q -61 397 -53 386 q -67 418 -68 407 q -54 436 -65 429 l 11 485 q 44 667 24 572 q 91 842 64 763 q 152 974 118 922 q 228 1026 186 1026 q 249 1017 243 1026 q 256 993 256 1008 q 249 961 256 993 q 231 877 242 929 q 208 756 221 825 q 181 611 194 686 l 201 626 q 217 631 208 631 q 240 619 233 631 z "},"":{"ha":290,"x_min":-28,"x_max":356,"o":"m 14 -282 q -6 -274 3 -282 q -14 -254 -14 -265 q -11 -246 -14 -251 l 60 -53 q 86 -33 67 -33 q 132 -56 118 -33 q 146 -106 146 -78 q 136 -161 146 -131 q 108 -219 126 -192 q 67 -264 90 -246 q 14 -282 43 -282 m 322 775 q 314 756 322 764 q 294 747 306 747 l 210 747 q 192 650 201 700 q 174 547 183 600 q 144 366 156 447 q 125 222 132 285 q 119 156 122 189 q 117 90 117 124 q 117 70 117 78 q 119 58 118 63 q 176 107 149 68 q 227 194 204 146 q 267 292 250 243 q 294 368 285 340 q 324 390 303 390 q 346 382 336 390 q 351 360 356 374 q 319 271 336 315 q 283 182 303 226 q 255 126 272 157 q 215 67 238 94 q 166 19 193 39 q 107 0 139 0 q 44 28 67 0 q 9 97 21 57 q -6 181 -3 138 q -8 251 -8 224 q -3 328 -8 275 q 10 449 1 381 q 34 596 19 518 q 68 747 49 674 l 0 747 q -19 756 -11 747 q -28 775 -28 764 q -19 794 -28 786 q 0 803 -11 803 l 83 803 q 114 891 97 850 q 149 962 131 932 q 189 1009 168 992 q 232 1026 210 1026 q 253 1017 247 1026 q 260 993 260 1008 q 249 939 260 992 q 221 803 238 886 l 294 803 q 314 794 306 803 q 322 775 322 786 z "},"":{"ha":506,"x_min":-81,"x_max":571,"o":"m 14 -282 q -6 -274 3 -282 q -14 -254 -14 -265 q -11 -246 -14 -251 l 60 -53 q 86 -33 67 -33 q 132 -56 118 -33 q 146 -106 146 -78 q 136 -161 146 -131 q 108 -219 126 -192 q 67 -264 90 -246 q 14 -282 43 -282 m 364 203 q 454 269 419 231 q 510 367 489 307 q 539 389 518 389 q 561 381 551 389 q 567 358 571 372 q 527 271 550 308 q 474 206 504 233 q 404 160 443 179 q 315 126 365 142 q 208 34 267 68 q 76 0 150 0 q 6 14 39 0 q -50 72 -28 28 q -61 99 -56 83 q -71 133 -67 115 q -78 167 -75 150 q -81 194 -81 183 q -73 214 -81 206 q -54 222 -65 222 q -36 217 -42 222 q -7 203 -28 211 q 44 187 14 194 q 110 174 74 179 q 188 169 147 169 q 231 286 215 222 q 247 403 247 350 q 244 451 247 425 q 228 498 240 476 q 197 534 217 519 q 143 549 176 549 q 128 549 136 549 q 118 550 121 550 q 106 513 115 540 q 88 455 97 486 q 69 397 78 424 q 57 360 60 369 q 28 338 49 338 q 6 346 15 338 q 0 368 -4 354 q 14 410 4 381 q 35 472 24 440 q 56 532 46 504 q 68 568 65 560 q 31 624 42 589 q 19 690 19 658 q 24 742 19 711 q 41 803 29 774 q 71 853 53 832 q 115 874 89 874 q 155 848 146 874 q 164 793 164 822 q 152 701 164 749 q 129 604 140 653 l 147 604 q 251 587 204 604 q 332 538 299 569 q 384 463 365 507 q 403 364 403 418 q 364 203 403 281 m -17 146 q -7 115 -12 131 q 7 85 -1 99 q 28 64 15 72 q 60 56 42 56 q 153 114 107 56 q 67 124 110 117 q -17 146 24 132 z "},"":{"ha":732,"x_min":0,"x_max":683,"o":"m 489 969 q 401 953 442 969 q 332 911 361 938 q 286 851 303 885 q 269 779 269 817 q 284 707 269 742 q 321 643 299 672 q 370 590 343 614 q 422 546 397 565 q 497 492 458 519 q 566 432 535 465 q 617 356 597 399 q 638 251 638 313 q 616 155 638 200 q 553 75 594 110 q 453 20 513 40 q 319 0 394 0 q 181 23 240 0 q 81 87 121 46 q 20 183 40 128 q 0 304 0 239 q 8 324 0 315 q 28 332 17 332 q 47 324 39 332 q 56 304 56 315 q 75 193 56 240 q 126 115 94 146 q 197 70 157 85 q 276 56 236 56 q 356 70 318 56 q 422 109 393 85 q 466 166 450 133 q 482 233 482 199 q 469 296 482 268 q 435 347 456 324 q 389 392 414 371 q 340 431 364 413 q 265 491 304 460 q 192 562 225 522 q 138 651 160 601 q 117 763 117 700 q 140 863 117 815 q 206 947 163 911 q 310 1004 249 983 q 447 1025 371 1025 q 622 979 561 1025 q 683 858 683 933 q 647 713 683 792 q 624 696 642 696 q 611 699 619 696 q 594 724 594 706 q 597 735 594 726 q 629 857 629 803 q 592 939 629 908 q 489 969 556 969 m 446 1051 q 403 1067 422 1051 q 370 1104 383 1082 q 350 1152 357 1126 q 343 1199 343 1178 q 359 1265 343 1233 q 415 1296 375 1296 q 434 1290 426 1296 q 443 1272 442 1283 l 460 1149 l 547 1269 q 571 1281 554 1281 q 590 1272 582 1281 q 599 1253 599 1264 q 593 1238 599 1246 l 464 1060 q 446 1051 458 1051 z "},"":{"ha":732,"x_min":0,"x_max":683,"o":"m 489 969 q 401 953 442 969 q 332 911 361 938 q 286 851 303 885 q 269 779 269 817 q 284 707 269 742 q 321 643 299 672 q 370 590 343 614 q 422 546 397 565 q 497 492 458 519 q 566 432 535 465 q 617 356 597 399 q 638 251 638 313 q 616 155 638 200 q 553 75 594 110 q 453 20 513 40 q 319 0 394 0 q 181 23 240 0 q 81 87 121 46 q 20 183 40 128 q 0 304 0 239 q 8 324 0 315 q 28 332 17 332 q 47 324 39 332 q 56 304 56 315 q 75 193 56 240 q 126 115 94 146 q 197 70 157 85 q 276 56 236 56 q 356 70 318 56 q 422 109 393 85 q 466 166 450 133 q 482 233 482 199 q 469 296 482 268 q 435 347 456 324 q 389 392 414 371 q 340 431 364 413 q 265 491 304 460 q 192 562 225 522 q 138 651 160 601 q 117 763 117 700 q 140 863 117 815 q 206 947 163 911 q 310 1004 249 983 q 447 1025 371 1025 q 622 979 561 1025 q 683 858 683 933 q 647 713 683 792 q 624 696 642 696 q 611 699 619 696 q 594 724 594 706 q 597 735 594 726 q 629 857 629 803 q 592 939 629 908 q 489 969 556 969 m 446 1051 q 426 1060 435 1051 q 418 1079 418 1068 q 419 1089 418 1086 l 490 1282 q 517 1300 497 1300 q 563 1278 549 1300 q 578 1228 578 1256 q 568 1172 578 1203 q 540 1115 558 1142 q 499 1069 522 1088 q 446 1051 475 1051 z "},"":{"ha":735,"x_min":0,"x_max":914,"o":"m 829 1011 q 856 1010 842 1011 q 884 1003 871 1008 q 906 988 897 997 q 914 961 914 978 q 906 942 914 950 q 886 933 897 933 q 860 953 865 933 q 832 956 851 956 q 774 951 814 956 q 678 939 731 947 q 663 867 672 910 q 644 772 654 824 q 624 663 635 721 q 603 546 614 606 q 573 365 585 446 q 554 221 561 283 q 546 88 546 154 q 547 65 546 72 q 549 53 547 57 q 564 28 564 46 q 556 8 564 17 q 536 0 547 0 q 473 28 496 0 q 438 97 450 57 q 424 181 426 138 q 421 251 421 224 q 431 409 421 321 q 458 589 440 497 q 501 767 475 681 q 557 918 526 854 q 412 896 486 907 q 271 879 338 885 q 236 877 253 878 q 204 876 219 876 q 140 880 175 876 q 73 896 104 883 q 21 931 42 908 q 0 993 0 954 q 8 1013 0 1004 q 28 1021 17 1021 q 47 1013 39 1021 q 56 993 56 1004 q 71 960 56 974 q 114 941 83 950 q 208 932 144 932 q 237 933 222 932 q 268 935 251 933 q 420 953 339 940 q 578 978 501 965 q 585 979 581 979 q 592 981 589 979 q 622 1012 603 997 q 661 1026 642 1026 q 689 996 689 1026 q 768 1007 733 1003 q 829 1011 803 1011 m 661 1051 q 618 1067 638 1051 q 585 1104 599 1082 q 565 1152 572 1126 q 558 1199 558 1178 q 574 1265 558 1233 q 631 1296 590 1296 q 649 1290 642 1296 q 658 1272 657 1283 l 675 1149 l 763 1269 q 786 1281 769 1281 q 806 1272 797 1281 q 814 1253 814 1264 q 808 1238 814 1246 l 679 1060 q 661 1051 674 1051 z "},"":{"ha":858,"x_min":0,"x_max":853,"o":"m 718 56 q 738 47 729 56 q 746 28 746 39 q 738 8 746 17 q 718 0 729 0 q 621 19 660 0 q 556 70 582 38 q 513 146 529 103 q 483 238 497 189 q 464 303 474 272 q 439 358 454 335 q 351 403 408 403 q 332 411 340 403 q 324 431 324 419 q 332 450 324 442 q 351 458 340 458 q 488 494 425 458 q 595 583 550 529 q 665 701 640 638 q 690 821 690 765 q 677 890 690 861 q 642 937 664 918 q 592 964 621 956 q 529 972 563 972 q 430 951 475 972 q 349 899 385 931 q 288 832 314 868 q 244 765 261 796 q 218 713 226 733 q 210 690 210 692 q 206 683 208 689 q 165 453 183 568 q 132 222 146 339 q 124 103 124 150 q 125 69 124 81 q 128 53 126 58 q 143 28 143 46 q 135 8 143 17 q 115 0 126 0 q 51 28 74 0 q 17 97 28 57 q 3 180 6 138 q 0 251 0 222 q 10 413 0 322 q 38 598 19 504 q 83 780 57 692 q 143 935 110 868 q 159 965 150 949 q 181 994 168 981 q 208 1017 193 1008 q 240 1026 222 1026 q 260 1019 251 1026 q 268 1000 268 1011 q 267 993 268 996 q 259 958 267 992 q 240 865 251 924 q 295 928 265 899 q 362 981 325 958 q 443 1015 399 1003 q 542 1028 488 1028 q 642 1017 588 1028 q 742 978 696 1006 q 821 906 789 951 q 853 790 853 860 q 824 665 853 724 q 747 560 794 607 q 641 478 700 513 q 524 425 582 444 q 589 377 564 406 q 630 314 614 349 q 656 240 646 279 q 672 161 665 201 q 690 81 682 107 q 718 56 699 56 m 544 1051 q 525 1060 533 1051 q 517 1079 517 1068 q 518 1089 517 1086 l 589 1282 q 615 1300 596 1300 q 662 1278 647 1300 q 676 1228 676 1256 q 667 1172 676 1203 q 639 1115 657 1142 q 597 1069 621 1088 q 544 1051 574 1051 z "},"":{"ha":874,"x_min":0,"x_max":874,"o":"m 846 1026 q 865 1019 857 1026 q 874 1000 874 1011 q 872 993 874 996 q 864 951 872 990 q 843 851 856 913 q 816 710 831 789 q 786 546 801 631 q 756 365 768 446 q 738 221 744 283 q 729 103 729 149 q 731 69 729 81 q 733 53 732 58 q 749 28 749 46 q 740 8 749 17 q 721 0 732 0 q 656 28 679 0 q 622 97 633 57 q 608 180 611 138 q 606 251 606 222 q 606 291 606 271 q 608 333 606 311 q 565 234 592 292 q 499 124 539 176 q 403 36 458 72 q 275 0 349 0 q 161 29 213 0 q 74 109 110 58 q 19 228 39 160 q 0 374 0 296 q 16 520 0 444 q 62 668 32 596 q 135 805 92 740 q 231 919 178 869 q 349 997 285 968 q 485 1025 413 1025 q 583 1006 544 1025 q 646 955 622 986 q 681 884 669 924 q 697 804 692 844 q 722 876 710 843 q 749 935 735 910 q 765 965 756 949 q 786 994 774 981 q 813 1017 799 1008 q 846 1026 828 1026 m 300 56 q 395 92 353 56 q 471 180 438 129 q 527 283 504 231 q 563 368 550 336 q 599 476 583 422 q 627 573 615 529 q 646 648 639 617 q 656 689 653 679 q 651 715 653 701 q 649 742 650 728 q 635 835 643 793 q 614 908 628 878 q 578 953 600 938 q 519 969 556 969 q 386 913 451 969 q 267 753 321 857 q 221 650 242 704 q 186 540 200 596 q 165 428 172 483 q 157 321 157 372 q 163 233 157 279 q 185 147 169 186 q 229 81 201 107 q 300 56 257 56 m 486 1051 q 467 1060 475 1051 q 458 1079 458 1068 q 460 1089 458 1086 l 531 1282 q 557 1300 538 1300 q 603 1278 589 1300 q 618 1228 618 1256 q 608 1172 618 1203 q 581 1115 599 1142 q 539 1069 563 1088 q 486 1051 515 1051 z "},"":{"ha":874,"x_min":0,"x_max":874,"o":"m 846 1026 q 865 1019 857 1026 q 874 1000 874 1011 q 872 993 874 996 q 864 951 872 990 q 843 851 856 913 q 816 710 831 789 q 786 546 801 631 q 756 365 768 446 q 738 221 744 283 q 729 103 729 149 q 731 69 729 81 q 733 53 732 58 q 749 28 749 46 q 740 8 749 17 q 721 0 732 0 q 656 28 679 0 q 622 97 633 57 q 608 180 611 138 q 606 251 606 222 q 606 291 606 271 q 608 333 606 311 q 565 234 592 292 q 499 124 539 176 q 403 36 458 72 q 275 0 349 0 q 161 29 213 0 q 74 109 110 58 q 19 228 39 160 q 0 374 0 296 q 16 520 0 444 q 62 668 32 596 q 135 805 92 740 q 231 919 178 869 q 349 997 285 968 q 485 1025 413 1025 q 583 1006 544 1025 q 646 955 622 986 q 681 884 669 924 q 697 804 692 844 q 722 876 710 843 q 749 935 735 910 q 765 965 756 949 q 786 994 774 981 q 813 1017 799 1008 q 846 1026 828 1026 m 300 56 q 395 92 353 56 q 471 180 438 129 q 527 283 504 231 q 563 368 550 336 q 599 476 583 422 q 627 573 615 529 q 646 648 639 617 q 656 689 653 679 q 651 715 653 701 q 649 742 650 728 q 635 835 643 793 q 614 908 628 878 q 578 953 600 938 q 519 969 556 969 q 386 913 451 969 q 267 753 321 857 q 221 650 242 704 q 186 540 200 596 q 165 428 172 483 q 157 321 157 372 q 163 233 157 279 q 185 147 169 186 q 229 81 201 107 q 300 56 257 56 m 532 1296 q 575 1282 556 1297 q 608 1244 594 1267 q 628 1195 621 1221 q 635 1149 635 1169 q 631 1115 635 1132 q 618 1083 626 1097 q 596 1060 610 1069 q 563 1051 582 1051 q 544 1058 551 1051 q 535 1075 536 1065 l 518 1199 l 429 1078 q 407 1067 421 1067 q 388 1075 396 1067 q 379 1094 379 1083 q 385 1110 379 1104 l 514 1288 q 532 1296 521 1296 z "},"":{"ha":874,"x_min":0,"x_max":874,"o":"m 846 1026 q 865 1019 857 1026 q 874 1000 874 1011 q 872 993 874 996 q 864 951 872 990 q 843 851 856 913 q 816 710 831 789 q 786 546 801 631 q 756 365 768 446 q 738 221 744 283 q 729 103 729 149 q 731 69 729 81 q 733 53 732 58 q 749 28 749 46 q 740 8 749 17 q 721 0 732 0 q 656 28 679 0 q 622 97 633 57 q 608 180 611 138 q 606 251 606 222 q 606 291 606 271 q 608 333 606 311 q 565 234 592 292 q 499 124 539 176 q 403 36 458 72 q 275 0 349 0 q 161 29 213 0 q 74 109 110 58 q 19 228 39 160 q 0 374 0 296 q 16 520 0 444 q 62 668 32 596 q 135 805 92 740 q 231 919 178 869 q 349 997 285 968 q 485 1025 413 1025 q 583 1006 544 1025 q 646 955 622 986 q 681 884 669 924 q 697 804 692 844 q 722 876 710 843 q 749 935 735 910 q 765 965 756 949 q 786 994 774 981 q 813 1017 799 1008 q 846 1026 828 1026 m 300 56 q 395 92 353 56 q 471 180 438 129 q 527 283 504 231 q 563 368 550 336 q 599 476 583 422 q 627 573 615 529 q 646 648 639 617 q 656 689 653 679 q 651 715 653 701 q 649 742 650 728 q 635 835 643 793 q 614 908 628 878 q 578 953 600 938 q 519 969 556 969 q 386 913 451 969 q 267 753 321 857 q 221 650 242 704 q 186 540 200 596 q 165 428 172 483 q 157 321 157 372 q 163 233 157 279 q 185 147 169 186 q 229 81 201 107 q 300 56 257 56 m 471 1051 q 385 1082 418 1051 q 351 1163 351 1113 q 356 1195 351 1176 q 368 1231 360 1214 q 389 1258 376 1247 q 418 1269 401 1269 q 449 1255 440 1269 q 457 1221 457 1240 q 456 1190 457 1206 q 454 1160 454 1175 q 464 1122 454 1136 q 493 1107 474 1107 q 544 1141 525 1107 q 564 1229 564 1175 q 567 1257 564 1244 q 590 1269 571 1269 q 615 1258 610 1269 q 619 1231 619 1246 q 580 1101 619 1150 q 471 1051 540 1051 z "},"":{"ha":874,"x_min":0,"x_max":874,"o":"m 846 1026 q 865 1019 857 1026 q 874 1000 874 1011 q 872 993 874 996 q 864 951 872 990 q 843 851 856 913 q 816 710 831 789 q 786 546 801 631 q 756 365 768 446 q 738 221 744 283 q 729 103 729 149 q 731 69 729 81 q 733 53 732 58 q 749 28 749 46 q 740 8 749 17 q 721 0 732 0 q 656 28 679 0 q 622 97 633 57 q 608 180 611 138 q 606 251 606 222 q 606 291 606 271 q 608 333 606 311 q 565 234 592 292 q 499 124 539 176 q 403 36 458 72 q 275 0 349 0 q 161 29 213 0 q 74 109 110 58 q 19 228 39 160 q 0 374 0 296 q 16 520 0 444 q 62 668 32 596 q 135 805 92 740 q 231 919 178 869 q 349 997 285 968 q 485 1025 413 1025 q 583 1006 544 1025 q 646 955 622 986 q 681 884 669 924 q 697 804 692 844 q 722 876 710 843 q 749 935 735 910 q 765 965 756 949 q 786 994 774 981 q 813 1017 799 1008 q 846 1026 828 1026 m 300 56 q 395 92 353 56 q 471 180 438 129 q 527 283 504 231 q 563 368 550 336 q 599 476 583 422 q 627 573 615 529 q 646 648 639 617 q 656 689 653 679 q 651 715 653 701 q 649 742 650 728 q 635 835 643 793 q 614 908 628 878 q 578 953 600 938 q 519 969 556 969 q 386 913 451 969 q 267 753 321 857 q 221 650 242 704 q 186 540 200 596 q 165 428 172 483 q 157 321 157 372 q 163 233 157 279 q 185 147 169 186 q 229 81 201 107 q 300 56 257 56 m 353 1107 q 368 1149 353 1133 q 410 1164 383 1164 q 450 1149 435 1164 q 465 1107 465 1133 q 450 1067 465 1082 q 410 1051 435 1051 q 368 1067 383 1051 q 353 1107 353 1082 m 506 1107 q 521 1149 506 1133 q 563 1164 536 1164 q 603 1149 588 1164 q 618 1107 618 1133 q 603 1067 618 1082 q 563 1051 588 1051 q 521 1067 536 1051 q 506 1107 506 1082 z "},"":{"ha":663,"x_min":0,"x_max":635,"o":"m 118 0 q 53 29 76 0 q 17 99 29 58 q 3 181 6 139 q 0 251 0 224 q 10 414 0 322 q 39 599 21 506 q 83 781 57 693 q 143 935 110 869 q 182 993 157 963 q 240 1026 207 1024 q 263 1017 257 1026 q 268 1006 265 1011 q 268 993 271 1000 q 256 936 267 986 q 232 817 246 886 q 203 674 218 749 q 181 544 189 600 q 151 358 163 438 q 132 221 139 279 q 126 156 128 185 q 124 103 125 126 q 125 73 124 83 q 128 56 126 63 l 607 56 q 626 47 618 56 q 635 28 635 39 q 626 8 635 17 q 607 0 618 0 l 118 0 m 240 1051 q 221 1060 229 1051 q 213 1079 213 1068 q 214 1089 213 1086 l 285 1282 q 311 1300 292 1300 q 358 1278 343 1300 q 372 1228 372 1256 q 363 1172 372 1203 q 335 1115 353 1142 q 293 1069 317 1088 q 240 1051 269 1051 z "},"":{"ha":749,"x_min":0,"x_max":693,"o":"m 656 356 q 675 347 667 356 q 683 328 683 339 q 672 292 683 317 q 647 242 661 268 q 618 192 632 215 q 597 161 604 169 q 481 47 549 93 q 325 0 413 0 q 185 26 246 0 q 83 99 124 53 q 21 212 42 146 q 0 357 0 278 q 17 501 0 425 q 65 652 33 578 q 141 794 96 726 q 244 915 186 863 q 369 997 301 967 q 515 1028 438 1028 q 645 985 597 1028 q 693 860 693 942 q 690 822 693 849 q 679 767 686 794 q 660 719 672 740 q 633 699 649 699 q 621 701 629 699 q 604 726 604 708 q 607 738 604 729 q 630 802 622 771 q 638 861 638 833 q 605 946 638 919 q 515 972 572 972 q 385 915 450 972 q 267 754 321 858 q 186 540 215 656 q 157 319 157 424 q 163 231 157 278 q 188 146 169 185 q 240 81 207 107 q 325 56 272 56 q 418 76 376 56 q 494 128 460 97 q 553 196 528 160 q 594 263 578 232 q 620 316 611 294 q 629 338 629 338 q 656 356 636 356 m 517 1051 q 497 1060 506 1051 q 489 1079 489 1068 q 490 1089 489 1086 l 561 1282 q 588 1300 568 1300 q 634 1278 619 1300 q 649 1228 649 1256 q 639 1172 649 1203 q 611 1115 629 1142 q 569 1069 593 1088 q 517 1051 546 1051 z "},"":{"ha":749,"x_min":0,"x_max":693,"o":"m 656 356 q 675 347 667 356 q 683 328 683 339 q 672 292 683 317 q 647 242 661 268 q 618 192 632 215 q 597 161 604 169 q 481 47 549 93 q 325 0 413 0 q 185 26 246 0 q 83 99 124 53 q 21 212 42 146 q 0 357 0 278 q 17 501 0 425 q 65 652 33 578 q 141 794 96 726 q 244 915 186 863 q 369 997 301 967 q 515 1028 438 1028 q 645 985 597 1028 q 693 860 693 942 q 690 822 693 849 q 679 767 686 794 q 660 719 672 740 q 633 699 649 699 q 621 701 629 699 q 604 726 604 708 q 607 738 604 729 q 630 802 622 771 q 638 861 638 833 q 605 946 638 919 q 515 972 572 972 q 385 915 450 972 q 267 754 321 858 q 186 540 215 656 q 157 319 157 424 q 163 231 157 278 q 188 146 169 185 q 240 81 207 107 q 325 56 272 56 q 418 76 376 56 q 494 128 460 97 q 553 196 528 160 q 594 263 578 232 q 620 316 611 294 q 629 338 629 338 q 656 356 636 356 m 515 1051 q 472 1067 492 1051 q 440 1104 453 1082 q 419 1152 426 1126 q 413 1199 413 1178 q 428 1265 413 1233 q 485 1296 444 1296 q 503 1290 496 1296 q 513 1272 511 1283 l 529 1149 l 617 1269 q 640 1281 624 1281 q 660 1272 651 1281 q 668 1253 668 1264 q 663 1238 668 1246 l 533 1060 q 515 1051 528 1051 z "},"":{"ha":750,"x_min":0,"x_max":694,"o":"m 656 356 q 676 347 668 356 q 685 326 685 338 q 674 292 685 317 q 648 242 663 268 q 619 192 633 215 q 599 161 604 169 q 544 98 574 128 q 477 47 514 68 q 395 13 440 25 q 292 0 350 0 q 172 16 226 0 q 80 62 118 32 q 21 133 42 92 q 0 226 0 175 q 13 306 0 267 q 51 378 26 344 q 108 440 75 413 q 183 486 142 468 q 104 569 135 510 q 74 704 74 628 q 101 835 74 775 q 178 938 129 894 q 297 1004 228 981 q 450 1028 367 1028 q 631 982 568 1028 q 694 861 694 936 q 658 715 694 794 q 635 699 653 699 q 622 701 631 699 q 606 726 606 708 q 608 738 606 729 q 639 860 639 807 q 602 942 639 911 q 496 972 565 972 q 391 951 439 972 q 309 890 343 929 q 256 798 275 851 q 238 681 238 744 q 263 559 238 604 q 332 514 289 514 q 351 506 343 514 q 360 486 360 497 q 351 467 360 475 q 332 458 343 458 q 264 441 294 458 q 211 393 233 424 q 177 324 189 363 q 165 240 165 285 q 209 105 165 154 q 329 56 253 56 q 397 67 365 56 q 457 98 429 79 q 508 141 485 117 q 551 192 532 165 q 585 244 571 218 q 610 290 600 269 q 625 324 619 311 q 631 338 631 338 q 640 351 633 346 q 656 356 647 356 m 451 1051 q 432 1060 440 1051 q 424 1079 424 1068 q 425 1089 424 1086 l 496 1282 q 522 1300 503 1300 q 569 1278 554 1300 q 583 1228 583 1256 q 574 1172 583 1203 q 546 1115 564 1142 q 504 1069 528 1088 q 451 1051 481 1051 z "},"":{"ha":750,"x_min":0,"x_max":694,"o":"m 656 356 q 676 347 668 356 q 685 326 685 338 q 674 292 685 317 q 648 242 663 268 q 619 192 633 215 q 599 161 604 169 q 544 98 574 128 q 477 47 514 68 q 395 13 440 25 q 292 0 350 0 q 172 16 226 0 q 80 62 118 32 q 21 133 42 92 q 0 226 0 175 q 13 306 0 267 q 51 378 26 344 q 108 440 75 413 q 183 486 142 468 q 104 569 135 510 q 74 704 74 628 q 101 835 74 775 q 178 938 129 894 q 297 1004 228 981 q 450 1028 367 1028 q 631 982 568 1028 q 694 861 694 936 q 658 715 694 794 q 635 699 653 699 q 622 701 631 699 q 606 726 606 708 q 608 738 606 729 q 639 860 639 807 q 602 942 639 911 q 496 972 565 972 q 391 951 439 972 q 309 890 343 929 q 256 798 275 851 q 238 681 238 744 q 263 559 238 604 q 332 514 289 514 q 351 506 343 514 q 360 486 360 497 q 351 467 360 475 q 332 458 343 458 q 264 441 294 458 q 211 393 233 424 q 177 324 189 363 q 165 240 165 285 q 209 105 165 154 q 329 56 253 56 q 397 67 365 56 q 457 98 429 79 q 508 141 485 117 q 551 192 532 165 q 585 244 571 218 q 610 290 600 269 q 625 324 619 311 q 631 338 631 338 q 640 351 633 346 q 656 356 647 356 m 318 1107 q 333 1149 318 1133 q 375 1164 349 1164 q 415 1149 400 1164 q 431 1107 431 1133 q 415 1067 431 1082 q 375 1051 400 1051 q 333 1067 349 1051 q 318 1107 318 1082 m 471 1107 q 486 1149 471 1133 q 528 1164 501 1164 q 568 1149 553 1164 q 583 1107 583 1133 q 568 1067 583 1082 q 528 1051 553 1051 q 486 1067 501 1051 q 471 1107 471 1082 z "},"":{"ha":750,"x_min":0,"x_max":694,"o":"m 656 356 q 676 347 668 356 q 685 326 685 338 q 674 292 685 317 q 648 242 663 268 q 619 192 633 215 q 599 161 604 169 q 544 98 574 128 q 477 47 514 68 q 395 13 440 25 q 292 0 350 0 q 172 16 226 0 q 80 62 118 32 q 21 133 42 92 q 0 226 0 175 q 13 306 0 267 q 51 378 26 344 q 108 440 75 413 q 183 486 142 468 q 104 569 135 510 q 74 704 74 628 q 101 835 74 775 q 178 938 129 894 q 297 1004 228 981 q 450 1028 367 1028 q 631 982 568 1028 q 694 861 694 936 q 658 715 694 794 q 635 699 653 699 q 622 701 631 699 q 606 726 606 708 q 608 738 606 729 q 639 860 639 807 q 602 942 639 911 q 496 972 565 972 q 391 951 439 972 q 309 890 343 929 q 256 798 275 851 q 238 681 238 744 q 263 559 238 604 q 332 514 289 514 q 351 506 343 514 q 360 486 360 497 q 351 467 360 475 q 332 458 343 458 q 264 441 294 458 q 211 393 233 424 q 177 324 189 363 q 165 240 165 285 q 209 105 165 154 q 329 56 253 56 q 397 67 365 56 q 457 98 429 79 q 508 141 485 117 q 551 192 532 165 q 585 244 571 218 q 610 290 600 269 q 625 324 619 311 q 631 338 631 338 q 640 351 633 346 q 656 356 647 356 m 450 1051 q 407 1067 426 1051 q 374 1104 388 1082 q 354 1152 361 1126 q 347 1199 347 1178 q 363 1265 347 1233 q 419 1296 379 1296 q 438 1290 431 1296 q 447 1272 446 1283 l 464 1149 l 551 1269 q 575 1281 558 1281 q 594 1272 586 1281 q 603 1253 603 1264 q 597 1238 603 1246 l 468 1060 q 450 1051 463 1051 z "},"":{"ha":886,"x_min":0,"x_max":914,"o":"m 829 1011 q 856 1010 842 1011 q 884 1003 871 1008 q 906 988 897 997 q 914 961 914 978 q 906 942 914 950 q 886 933 897 933 q 860 953 865 933 q 832 956 851 956 q 774 951 814 956 q 678 939 731 947 q 663 867 672 910 q 644 772 654 824 q 624 663 635 721 q 603 546 614 606 q 567 336 583 442 q 546 124 551 231 q 549 124 549 124 q 553 125 550 125 q 635 142 596 135 q 707 154 675 150 q 757 158 736 158 q 806 149 781 158 q 831 108 831 139 q 822 89 831 97 q 803 81 814 81 q 776 101 781 81 q 660 92 715 101 q 547 67 606 82 q 548 58 547 61 q 549 53 549 56 q 564 28 564 46 q 556 8 564 17 q 536 0 547 0 q 497 10 518 0 q 458 49 476 19 q 386 36 422 42 q 317 28 350 31 q 253 24 282 24 q 194 28 224 24 q 139 47 164 33 q 99 83 114 60 q 83 140 83 106 q 92 160 83 151 q 111 168 100 168 q 131 160 122 168 q 139 140 139 151 q 151 107 139 119 q 179 89 163 94 q 215 82 196 83 q 251 81 235 81 q 345 87 299 81 q 438 101 392 93 q 421 251 421 160 q 431 409 421 321 q 458 589 440 497 q 501 767 475 681 q 557 918 526 854 q 412 896 486 907 q 271 879 338 885 q 236 877 253 878 q 204 876 219 876 q 140 880 175 876 q 73 896 104 883 q 21 931 42 908 q 0 993 0 954 q 8 1013 0 1004 q 28 1021 17 1021 q 47 1013 39 1021 q 56 993 56 1004 q 71 960 56 974 q 114 941 83 950 q 208 932 144 932 q 237 933 222 932 q 268 935 251 933 q 420 953 339 940 q 578 978 501 965 q 585 979 581 979 q 592 981 589 979 q 622 1012 603 997 q 661 1026 642 1026 q 689 996 689 1026 q 768 1007 733 1003 q 829 1011 803 1011 m 661 1051 q 642 1060 650 1051 q 633 1079 633 1068 q 635 1089 633 1086 l 706 1282 q 732 1300 713 1300 q 778 1278 764 1300 q 793 1228 793 1256 q 783 1172 793 1203 q 756 1115 774 1142 q 714 1069 738 1088 q 661 1051 690 1051 z "},"":{"ha":886,"x_min":0,"x_max":914,"o":"m 829 1011 q 856 1010 842 1011 q 884 1003 871 1008 q 906 988 897 997 q 914 961 914 978 q 906 942 914 950 q 886 933 897 933 q 860 953 865 933 q 832 956 851 956 q 774 951 814 956 q 678 939 731 947 q 663 867 672 910 q 644 772 654 824 q 624 663 635 721 q 603 546 614 606 q 567 336 583 442 q 546 124 551 231 q 549 124 549 124 q 553 125 550 125 q 635 142 596 135 q 707 154 675 150 q 757 158 736 158 q 806 149 781 158 q 831 108 831 139 q 822 89 831 97 q 803 81 814 81 q 776 101 781 81 q 660 92 715 101 q 547 67 606 82 q 548 58 547 61 q 549 53 549 56 q 564 28 564 46 q 556 8 564 17 q 536 0 547 0 q 497 10 518 0 q 458 49 476 19 q 386 36 422 42 q 317 28 350 31 q 253 24 282 24 q 194 28 224 24 q 139 47 164 33 q 99 83 114 60 q 83 140 83 106 q 92 160 83 151 q 111 168 100 168 q 131 160 122 168 q 139 140 139 151 q 151 107 139 119 q 179 89 163 94 q 215 82 196 83 q 251 81 235 81 q 345 87 299 81 q 438 101 392 93 q 421 251 421 160 q 431 409 421 321 q 458 589 440 497 q 501 767 475 681 q 557 918 526 854 q 412 896 486 907 q 271 879 338 885 q 236 877 253 878 q 204 876 219 876 q 140 880 175 876 q 73 896 104 883 q 21 931 42 908 q 0 993 0 954 q 8 1013 0 1004 q 28 1021 17 1021 q 47 1013 39 1021 q 56 993 56 1004 q 71 960 56 974 q 114 941 83 950 q 208 932 144 932 q 237 933 222 932 q 268 935 251 933 q 420 953 339 940 q 578 978 501 965 q 585 979 581 979 q 592 981 589 979 q 622 1012 603 997 q 661 1026 642 1026 q 689 996 689 1026 q 768 1007 733 1003 q 829 1011 803 1011 m 707 1296 q 750 1282 731 1297 q 783 1244 769 1267 q 803 1195 796 1221 q 810 1149 810 1169 q 806 1115 810 1132 q 793 1083 801 1097 q 771 1060 785 1069 q 738 1051 757 1051 q 719 1058 726 1051 q 710 1075 711 1065 l 693 1199 l 604 1078 q 582 1067 596 1067 q 563 1075 571 1067 q 554 1094 554 1083 q 560 1110 554 1104 l 689 1288 q 707 1296 696 1296 z "},"":{"ha":879,"x_min":0,"x_max":838,"o":"m 533 1028 q 663 1002 607 1028 q 758 930 719 976 q 817 819 797 883 q 838 678 838 754 q 821 531 838 608 q 774 378 804 453 q 699 234 743 303 q 598 113 654 165 q 475 31 542 61 q 332 0 408 0 q 194 43 244 0 q 144 168 144 86 q 148 207 144 181 q 159 260 151 233 q 178 308 167 288 q 207 329 190 329 q 218 326 210 329 q 235 301 235 319 q 232 290 235 299 q 200 167 200 219 q 232 82 200 108 q 311 56 264 56 q 451 113 385 56 q 572 274 517 169 q 653 488 624 372 q 682 708 682 604 q 675 797 682 750 q 649 882 668 843 q 597 947 631 921 q 508 972 563 972 q 288 835 388 972 q 253 783 268 808 q 229 737 239 757 q 215 703 219 717 q 210 690 210 690 q 206 683 208 689 q 165 453 183 568 q 132 221 146 339 q 124 103 124 149 q 125 69 124 81 q 128 53 126 58 q 143 28 143 46 q 135 8 143 17 q 115 0 126 0 q 51 28 74 0 q 17 97 28 57 q 3 180 6 138 q 0 251 0 222 q 10 413 0 322 q 38 598 19 504 q 83 780 57 692 q 143 935 110 868 q 159 965 150 949 q 181 994 168 981 q 208 1017 193 1008 q 240 1026 222 1026 q 260 1019 251 1026 q 268 1000 268 1011 q 267 993 268 996 q 259 956 267 990 q 240 865 251 922 q 361 981 290 935 q 533 1028 432 1028 m 533 1051 q 490 1067 510 1051 q 458 1104 471 1082 q 438 1152 444 1126 q 431 1199 431 1178 q 447 1265 431 1233 q 503 1296 463 1296 q 522 1290 514 1296 q 531 1272 529 1283 l 547 1149 l 635 1269 q 658 1281 642 1281 q 678 1272 669 1281 q 686 1253 686 1264 q 681 1238 686 1246 l 551 1060 q 533 1051 546 1051 z "},"":{"ha":863,"x_min":0,"x_max":807,"o":"m 129 196 q 181 369 153 275 q 244 558 210 463 q 318 741 279 653 q 400 896 357 829 q 485 991 438 953 q 604 1029 532 1029 q 698 1006 660 1029 q 760 944 736 983 q 796 850 785 904 q 807 735 807 796 q 791 549 807 642 q 756 365 775 457 q 732 242 744 307 q 719 119 719 178 q 723 81 719 93 q 731 63 726 68 q 746 56 735 56 q 765 47 757 56 q 774 28 774 39 q 765 8 774 17 q 746 0 757 0 q 666 18 697 0 q 616 67 635 36 q 590 136 597 97 q 582 217 582 175 q 595 374 582 296 q 624 531 608 453 q 650 680 638 606 q 663 829 663 754 q 660 881 663 856 q 649 928 657 907 q 624 961 640 949 q 581 974 608 974 q 553 969 568 974 q 521 953 538 965 q 484 917 504 940 q 440 854 464 893 q 369 718 408 801 q 286 506 331 635 q 233 344 257 424 q 190 199 208 265 q 159 88 171 133 q 143 28 147 43 q 135 8 143 17 q 115 0 126 0 q 52 28 75 0 q 17 97 29 57 q 3 181 6 138 q 0 251 0 224 q 6 351 0 282 q 26 507 13 421 q 59 685 39 593 q 106 853 79 778 q 166 978 132 929 q 240 1026 200 1026 q 263 1017 254 1026 q 267 1005 265 1010 q 268 993 269 1000 q 260 951 268 990 q 239 850 251 913 q 211 708 226 788 q 181 544 196 629 q 151 364 164 444 q 132 221 139 283 q 131 208 131 214 q 129 196 131 203 m 578 1079 q 579 1089 578 1086 l 650 1282 q 676 1300 657 1300 q 723 1278 708 1300 q 738 1228 738 1256 q 728 1172 738 1203 q 700 1115 718 1142 q 658 1069 682 1088 q 606 1051 635 1051 q 586 1060 594 1051 q 578 1079 578 1068 z "},"":{"ha":863,"x_min":0,"x_max":807,"o":"m 129 196 q 181 369 153 275 q 244 558 210 463 q 318 741 279 653 q 400 896 357 829 q 485 991 438 953 q 604 1029 532 1029 q 698 1006 660 1029 q 760 944 736 983 q 796 850 785 904 q 807 735 807 796 q 791 549 807 642 q 756 365 775 457 q 732 242 744 307 q 719 119 719 178 q 723 81 719 93 q 731 63 726 68 q 746 56 735 56 q 765 47 757 56 q 774 28 774 39 q 765 8 774 17 q 746 0 757 0 q 666 18 697 0 q 616 67 635 36 q 590 136 597 97 q 582 217 582 175 q 595 374 582 296 q 624 531 608 453 q 650 680 638 606 q 663 829 663 754 q 660 881 663 856 q 649 928 657 907 q 624 961 640 949 q 581 974 608 974 q 553 969 568 974 q 521 953 538 965 q 484 917 504 940 q 440 854 464 893 q 369 718 408 801 q 286 506 331 635 q 233 344 257 424 q 190 199 208 265 q 159 88 171 133 q 143 28 147 43 q 135 8 143 17 q 115 0 126 0 q 52 28 75 0 q 17 97 29 57 q 3 181 6 138 q 0 251 0 224 q 6 351 0 282 q 26 507 13 421 q 59 685 39 593 q 106 853 79 778 q 166 978 132 929 q 240 1026 200 1026 q 263 1017 254 1026 q 267 1005 265 1010 q 268 993 269 1000 q 260 951 268 990 q 239 850 251 913 q 211 708 226 788 q 181 544 196 629 q 151 364 164 444 q 132 221 139 283 q 131 208 131 214 q 129 196 131 203 m 501 1199 q 517 1265 501 1233 q 574 1296 533 1296 q 592 1290 585 1296 q 601 1272 600 1283 l 618 1149 l 706 1269 q 729 1281 713 1281 q 749 1272 740 1281 q 757 1253 757 1264 q 751 1238 757 1246 l 622 1060 q 604 1051 617 1051 q 561 1067 581 1051 q 528 1104 542 1082 q 508 1152 515 1126 q 501 1199 501 1178 z "},"":{"ha":815,"x_min":0,"x_max":774,"o":"m 324 0 q 192 24 251 0 q 90 93 132 49 q 24 202 47 138 q 0 347 0 267 q 22 502 0 426 q 82 644 43 578 q 126 790 93 721 q 208 913 158 860 q 322 997 257 965 q 464 1028 388 1028 q 611 988 551 1028 q 707 887 671 949 q 758 750 743 825 q 774 606 774 675 q 763 476 774 544 q 728 340 751 407 q 668 210 704 272 q 582 102 632 149 q 467 28 532 56 q 324 0 403 0 m 160 368 q 159 345 160 357 q 158 317 158 333 q 167 227 158 274 q 198 142 175 181 q 260 80 221 104 q 360 56 299 56 q 473 82 422 56 q 563 151 524 108 q 632 251 603 194 q 681 370 661 308 q 709 494 700 432 q 718 608 718 556 q 706 729 718 665 q 666 847 694 793 q 588 937 638 901 q 464 972 539 972 q 371 956 414 972 q 292 912 328 940 q 227 847 256 883 q 178 768 199 810 q 411 868 285 868 q 431 860 422 868 q 439 840 439 851 q 431 821 439 829 q 411 813 422 813 q 346 793 376 813 q 290 742 315 774 q 245 669 265 710 q 210 588 225 629 q 184 508 194 547 q 168 442 174 469 q 174 433 171 439 q 299 375 218 375 q 390 392 349 375 q 460 438 431 408 q 506 509 490 468 q 522 600 522 550 q 521 629 522 615 q 515 658 519 643 q 514 667 514 661 q 535 693 514 689 q 556 690 546 693 q 568 672 565 686 q 578 600 578 639 q 557 488 578 539 q 499 399 536 436 q 411 340 463 361 q 299 319 360 319 q 160 368 217 319 m 465 1051 q 446 1060 454 1051 q 438 1079 438 1068 q 439 1089 438 1086 l 510 1282 q 536 1300 517 1300 q 583 1278 568 1300 q 597 1228 597 1256 q 588 1172 597 1203 q 560 1115 578 1142 q 518 1069 542 1088 q 465 1051 494 1051 z "},"":{"ha":815,"x_min":0,"x_max":774,"o":"m 324 0 q 192 24 251 0 q 90 93 132 49 q 24 202 47 138 q 0 347 0 267 q 22 502 0 426 q 82 644 43 578 q 126 790 93 721 q 208 913 158 860 q 322 997 257 965 q 464 1028 388 1028 q 611 988 551 1028 q 707 887 671 949 q 758 750 743 825 q 774 606 774 675 q 763 476 774 544 q 728 340 751 407 q 668 210 704 272 q 582 102 632 149 q 467 28 532 56 q 324 0 403 0 m 160 368 q 159 345 160 357 q 158 317 158 333 q 167 227 158 274 q 198 142 175 181 q 260 80 221 104 q 360 56 299 56 q 473 82 422 56 q 563 151 524 108 q 632 251 603 194 q 681 370 661 308 q 709 494 700 432 q 718 608 718 556 q 706 729 718 665 q 666 847 694 793 q 588 937 638 901 q 464 972 539 972 q 371 956 414 972 q 292 912 328 940 q 227 847 256 883 q 178 768 199 810 q 411 868 285 868 q 431 860 422 868 q 439 840 439 851 q 431 821 439 829 q 411 813 422 813 q 346 793 376 813 q 290 742 315 774 q 245 669 265 710 q 210 588 225 629 q 184 508 194 547 q 168 442 174 469 q 174 433 171 439 q 299 375 218 375 q 390 392 349 375 q 460 438 431 408 q 506 509 490 468 q 522 600 522 550 q 521 629 522 615 q 515 658 519 643 q 514 667 514 661 q 535 693 514 689 q 556 690 546 693 q 568 672 565 686 q 578 600 578 639 q 557 488 578 539 q 499 399 536 436 q 411 340 463 361 q 299 319 360 319 q 160 368 217 319 m 511 1296 q 554 1282 535 1297 q 587 1244 574 1267 q 607 1195 600 1221 q 614 1149 614 1169 q 610 1115 614 1132 q 597 1083 606 1097 q 575 1060 589 1069 q 542 1051 561 1051 q 523 1058 531 1051 q 514 1075 515 1065 l 497 1199 l 408 1078 q 386 1067 400 1067 q 367 1075 375 1067 q 358 1094 358 1083 q 364 1110 358 1104 l 493 1288 q 511 1296 500 1296 z "},"":{"ha":815,"x_min":0,"x_max":774,"o":"m 324 0 q 192 24 251 0 q 90 93 132 49 q 24 202 47 138 q 0 347 0 267 q 22 502 0 426 q 82 644 43 578 q 126 790 93 721 q 208 913 158 860 q 322 997 257 965 q 464 1028 388 1028 q 611 988 551 1028 q 707 887 671 949 q 758 750 743 825 q 774 606 774 675 q 763 476 774 544 q 728 340 751 407 q 668 210 704 272 q 582 102 632 149 q 467 28 532 56 q 324 0 403 0 m 160 368 q 159 345 160 357 q 158 317 158 333 q 167 227 158 274 q 198 142 175 181 q 260 80 221 104 q 360 56 299 56 q 473 82 422 56 q 563 151 524 108 q 632 251 603 194 q 681 370 661 308 q 709 494 700 432 q 718 608 718 556 q 706 729 718 665 q 666 847 694 793 q 588 937 638 901 q 464 972 539 972 q 371 956 414 972 q 292 912 328 940 q 227 847 256 883 q 178 768 199 810 q 411 868 285 868 q 431 860 422 868 q 439 840 439 851 q 431 821 439 829 q 411 813 422 813 q 346 793 376 813 q 290 742 315 774 q 245 669 265 710 q 210 588 225 629 q 184 508 194 547 q 168 442 174 469 q 174 433 171 439 q 299 375 218 375 q 390 392 349 375 q 460 438 431 408 q 506 509 490 468 q 522 600 522 550 q 521 629 522 615 q 515 658 519 643 q 514 667 514 661 q 535 693 514 689 q 556 690 546 693 q 568 672 565 686 q 578 600 578 639 q 557 488 578 539 q 499 399 536 436 q 411 340 463 361 q 299 319 360 319 q 160 368 217 319 m 369 1051 q 350 1060 358 1051 q 342 1079 342 1068 q 343 1089 342 1086 l 414 1282 q 440 1300 421 1300 q 487 1278 472 1300 q 501 1228 501 1256 q 492 1172 501 1203 q 464 1115 482 1142 q 422 1069 446 1088 q 369 1051 399 1051 m 529 1051 q 510 1060 518 1051 q 503 1079 503 1068 q 504 1089 503 1086 l 575 1282 q 601 1300 582 1300 q 647 1278 633 1300 q 661 1228 661 1256 q 651 1172 661 1203 q 624 1115 642 1142 q 583 1069 607 1088 q 529 1051 558 1051 z "}}}
